<?xml version="1.0" standalone="no"?>
<!DOCTYPE svg PUBLIC "-//W3C//DTD SVG 20010904//EN"
 "http://www.w3.org/TR/2001/REC-SVG-20010904/DTD/svg10.dtd">
<svg version="1.0" xmlns="http://www.w3.org/2000/svg"
 width="596.000000pt" height="596.000000pt" viewBox="0 0 596.000000 596.000000"
 preserveAspectRatio="xMidYMid meet">
<metadata>
Created by potrace 1.11, written by Peter Selinger 2001-2013
</metadata>
<g transform="translate(0.000000,596.000000) scale(0.100000,-0.100000)"
fill="#000000" stroke="none">
<path d="M2012 5410 c-29 -12 -41 -46 -30 -87 5 -18 6 -37 3 -42 -3 -5 -1 -12
4 -15 9 -6 25 -86 24 -118 0 -10 4 -18 9 -18 5 0 6 -5 2 -11 -5 -8 -8 -8 -13
0 -4 6 -22 8 -42 5 -32 -6 -36 -9 -32 -33 3 -14 5 -33 6 -41 1 -18 43 -25 52
-10 4 6 11 8 16 5 5 -4 9 2 9 12 1 16 2 16 12 -2 7 -11 14 -31 15 -45 3 -23 1
-25 -34 -24 -55 2 -64 -9 -46 -56 16 -39 35 -51 48 -29 4 6 14 8 22 5 8 -3 12
-2 10 2 -3 4 -2 15 2 24 5 14 9 10 17 -17 12 -39 4 -49 -49 -59 -14 -2 -34 -9
-44 -14 -10 -5 -54 -22 -98 -37 -135 -45 -414 -189 -455 -235 -3 -3 -23 -18
-45 -35 -34 -25 -146 -135 -181 -178 -48 -57 -160 -243 -166 -274 -5 -27 -11
-43 -17 -43 -3 0 -7 -10 -8 -23 -2 -23 -10 -60 -13 -64 -2 -2 -4 -7 -5 -13 -1
-5 -3 -11 -4 -12 -1 -2 -4 -19 -7 -38 -2 -19 -7 -42 -10 -50 -11 -27 -18 -184
-14 -298 2 -34 0 -65 -3 -69 -4 -3 -2 -12 4 -20 6 -7 8 -13 5 -13 -4 0 -2 -10
5 -21 6 -12 7 -19 2 -16 -5 4 -10 0 -10 -8 0 -8 4 -12 9 -9 4 3 8 -5 7 -18 0
-13 3 -39 6 -58 4 -19 7 -45 8 -57 1 -13 5 -23 8 -23 3 0 6 -6 6 -12 0 -7 5
-33 11 -57 6 -25 9 -48 6 -52 -2 -4 0 -10 6 -14 6 -4 8 -10 5 -15 -3 -5 -1
-11 4 -15 6 -3 8 -12 4 -20 -3 -8 -1 -15 4 -15 5 0 10 -6 11 -12 2 -28 11 -66
25 -110 10 -32 11 -46 4 -41 -7 3 -3 -3 7 -15 11 -12 16 -25 13 -28 -3 -4 0
-19 9 -35 8 -16 15 -32 15 -36 2 -9 3 -12 19 -65 6 -21 8 -43 4 -49 -4 -7 -3
-9 4 -5 8 5 32 -41 37 -74 1 -5 42 -115 52 -140 3 -8 5 -18 5 -22 -1 -5 3 -8
9 -8 5 0 8 -4 4 -9 -3 -5 -1 -12 5 -16 5 -3 10 -17 10 -31 0 -13 5 -24 10 -24
6 0 10 -9 10 -20 0 -11 5 -20 10 -20 6 0 10 -6 10 -14 0 -7 7 -26 15 -42 18
-35 27 -25 -186 -205 -29 -26 -106 -91 -169 -145 -100 -85 -144 -122 -240
-204 -82 -69 -137 -117 -239 -207 -29 -25 -34 -37 -36 -76 0 -26 3 -47 7 -47
4 0 8 -4 8 -10 0 -18 34 -50 53 -50 11 0 15 -5 11 -11 -5 -8 -1 -8 14 0 15 8
21 8 24 0 3 -8 8 -7 18 2 8 8 24 14 35 14 11 -1 22 2 25 5 3 3 16 11 29 18 19
11 22 11 15 0 -6 -10 -4 -10 9 1 9 7 17 10 17 5 0 -5 4 -3 8 3 4 7 17 14 27
16 11 1 26 6 33 10 6 5 12 5 12 1 0 -3 6 -1 14 5 7 6 25 12 40 13 14 1 26 5
26 9 0 4 7 10 16 13 15 6 15 4 3 -11 -9 -12 -4 -10 15 5 28 22 53 21 39 -1 -4
-7 0 -6 10 2 18 15 23 26 7 16 -6 -3 -10 -2 -10 3 0 9 56 26 74 23 4 -1 14 3
22 10 8 6 20 9 29 5 8 -3 14 0 12 7 -1 7 9 12 25 11 15 0 25 3 22 7 -4 8 51
22 70 19 5 -1 13 4 17 12 7 11 12 11 31 -1 20 -13 22 -13 10 1 -10 13 -8 17
20 23 18 4 36 7 41 6 4 0 7 4 7 9 0 6 5 10 11 10 5 0 7 -6 4 -12 -4 -7 0 -5 8
5 9 10 30 19 50 20 19 1 33 5 31 9 -5 8 26 18 64 21 12 0 22 4 22 8 0 3 11 11
25 17 14 6 25 8 25 3 0 -5 7 -12 16 -15 14 -5 15 -4 5 8 -9 11 -7 15 8 19 21
5 41 -9 41 -30 0 -7 5 -13 10 -13 6 0 10 -7 10 -15 0 -8 5 -15 10 -15 6 0 10
-7 10 -15 0 -8 6 -15 13 -15 8 0 7 -4 -3 -10 -13 -8 -12 -10 3 -10 10 0 15 -4
12 -10 -3 -5 -1 -10 5 -10 6 0 14 -8 17 -17 4 -10 13 -24 20 -31 17 -17 17
-35 1 -26 -8 4 -10 3 -5 -2 5 -5 12 -9 16 -9 4 0 15 -8 25 -18 10 -9 12 -17 6
-17 -6 0 0 -11 14 -23 14 -13 23 -27 19 -30 -3 -4 -1 -7 5 -7 7 0 12 -6 12
-13 0 -7 9 -18 20 -25 11 -7 20 -18 20 -25 0 -7 8 -22 18 -33 10 -10 21 -28
25 -38 7 -18 6 -19 -11 -5 -10 8 -5 2 11 -12 20 -19 25 -28 15 -32 -9 -4 -10
-8 -2 -14 6 -4 10 -20 10 -35 -1 -16 2 -28 6 -28 4 0 7 -8 7 -17 -1 -26 6 -67
13 -78 3 -6 5 -22 4 -37 -1 -16 2 -28 6 -28 4 0 7 -8 6 -17 0 -10 3 -31 7 -48
8 -40 14 -71 25 -130 5 -27 12 -61 15 -75 3 -14 7 -41 10 -61 2 -20 8 -47 13
-60 4 -13 8 -38 7 -56 -1 -18 2 -30 7 -27 4 3 8 -1 8 -8 0 -16 47 -83 58 -83
4 0 6 -4 4 -10 -2 -5 2 -5 9 2 7 7 20 9 33 3 23 -8 83 16 87 35 1 6 6 21 12
35 5 14 11 39 13 55 4 34 12 70 14 70 1 0 4 16 7 35 2 19 9 41 15 47 8 9 7 13
-3 13 -11 0 -11 2 -2 8 7 5 14 20 15 34 1 15 6 24 11 21 4 -2 5 -14 2 -26 -5
-16 -4 -18 3 -8 8 11 15 9 36 -12 14 -14 26 -34 26 -44 0 -15 2 -16 10 -3 8
13 10 12 10 -4 0 -11 3 -17 6 -14 3 4 34 -21 69 -55 35 -34 76 -72 92 -84 69
-53 78 -64 63 -73 -13 -8 -13 -11 -1 -22 8 -7 11 -8 8 -2 -4 7 1 18 10 25 14
13 16 11 11 -14 -4 -22 -3 -25 8 -16 11 9 22 5 49 -15 20 -15 32 -32 29 -38
-4 -6 -2 -8 4 -4 6 3 37 -10 70 -29 33 -19 65 -35 71 -35 6 0 11 -5 11 -11 0
-5 5 -7 10 -4 6 3 10 2 10 -3 0 -10 46 -10 56 1 15 15 26 6 13 -11 -13 -16
-13 -16 6 0 11 9 27 18 35 20 8 2 21 9 29 16 8 8 22 11 32 9 12 -3 16 0 12 9
-3 8 1 14 11 14 9 0 16 4 16 9 0 16 32 22 49 9 14 -11 14 -11 3 4 -15 18 0 34
21 22 6 -4 9 -4 5 1 -4 4 0 15 9 24 9 9 18 14 20 11 1 -3 10 5 18 18 9 12 20
20 25 17 4 -3 11 2 14 11 4 10 13 13 28 9 18 -5 20 -4 8 4 -13 9 -12 13 4 28
19 17 19 17 5 -2 -7 -10 17 11 54 48 38 37 72 65 77 62 5 -3 12 0 16 6 4 8 3
9 -4 5 -7 -4 -12 -2 -12 3 0 10 14 15 33 12 5 -1 6 3 2 9 -3 5 5 14 19 20 14
5 26 12 26 15 0 4 -4 3 -10 0 -5 -3 -10 -2 -10 4 0 5 9 13 20 16 11 3 20 10
20 15 0 4 6 10 13 13 8 3 13 -3 14 -17 1 -24 9 -68 21 -111 5 -16 8 -40 7 -53
-1 -12 3 -22 8 -22 6 0 8 -3 4 -6 -8 -8 22 -67 40 -77 7 -5 10 -13 7 -19 -4
-7 -2 -8 4 -4 6 4 21 2 33 -5 17 -9 20 -8 14 2 -6 9 -2 11 13 7 12 -4 22 -2
22 4 0 5 5 6 10 3 6 -3 10 -1 10 5 0 6 4 9 9 6 4 -3 13 6 19 19 7 14 16 25 22
25 6 0 9 4 5 9 -3 5 -1 12 4 16 5 3 8 14 6 25 -2 11 1 20 6 20 6 0 7 5 4 10
-3 6 -3 15 1 22 4 6 9 26 10 42 4 36 12 89 15 96 4 10 7 26 8 53 0 16 4 26 9
23 4 -2 7 12 7 32 -1 21 1 42 4 47 7 13 12 34 14 67 1 15 5 30 9 33 4 4 4 13
1 21 -3 8 -1 14 4 14 5 0 8 12 7 28 -1 15 6 36 15 46 9 11 11 16 4 13 -8 -5
-11 1 -8 20 2 16 4 30 5 33 2 3 2 8 1 13 0 4 7 7 17 7 14 0 15 2 2 10 -13 9
-13 11 0 19 8 5 18 7 22 5 4 -3 8 0 8 6 0 7 -7 9 -16 6 -14 -5 -15 -4 -4 9 7
9 20 13 28 10 12 -4 12 -3 3 9 -7 8 -8 16 -3 18 5 1 27 31 51 66 23 34 45 60
49 58 5 -3 9 5 9 16 1 12 6 24 11 27 5 3 11 14 15 24 4 11 12 15 18 11 7 -4 9
-3 6 3 -3 5 27 61 68 124 41 63 75 117 75 121 0 4 11 7 24 6 14 -1 22 -6 20
-10 -3 -4 9 -8 26 -8 16 0 38 -4 48 -9 19 -11 57 -24 57 -20 0 1 11 -4 25 -11
14 -8 32 -14 40 -15 8 -1 32 -7 53 -14 33 -11 36 -15 25 -29 -11 -15 -11 -15
2 -5 9 6 25 10 35 8 11 -2 26 -4 34 -4 8 -1 11 -7 6 -18 -5 -14 -3 -15 6 -6
14 14 42 5 32 -11 -4 -7 -1 -7 9 1 8 7 18 10 22 6 3 -4 12 -8 19 -9 34 -6 193
-68 199 -78 4 -6 8 -7 8 -2 0 5 8 2 17 -5 14 -12 16 -12 9 0 -6 9 -5 12 5 9 8
-3 13 -11 12 -17 -2 -6 2 -11 7 -11 6 0 10 5 10 11 0 5 4 8 10 4 5 -3 7 -13 4
-23 -4 -13 -3 -14 4 -4 7 11 18 11 58 -1 27 -8 48 -19 47 -24 -1 -6 9 -8 22
-5 14 2 25 0 25 -5 0 -5 8 -9 18 -10 36 -3 57 -10 57 -21 0 -6 4 -14 8 -19 5
-4 7 -3 5 2 -2 8 6 17 15 14 17 -5 74 -2 70 4 -2 4 3 10 11 13 8 3 18 14 21
25 4 11 11 17 16 14 5 -3 6 2 2 11 -5 13 -3 15 7 9 8 -5 11 -4 7 2 -3 5 -7 27
-9 48 -2 32 -11 45 -67 94 -35 31 -75 66 -89 79 -14 12 -29 22 -34 22 -5 0 -6
4 -3 10 3 5 0 10 -7 10 -7 0 -39 24 -71 53 -31 28 -73 66 -93 82 -20 17 -49
41 -65 55 -16 14 -43 36 -59 50 -17 14 -41 34 -54 45 -13 11 -47 40 -76 65
-111 94 -125 106 -157 136 -18 18 -40 34 -48 38 -8 3 -16 12 -16 21 -4 42 -2
50 10 47 7 -1 9 2 6 8 -4 6 1 18 11 26 11 9 14 13 7 10 -7 -4 -9 1 -6 14 3 11
9 18 13 15 4 -3 8 7 8 21 0 14 8 32 18 40 11 9 13 12 6 9 -10 -5 -11 -3 -4 11
5 11 13 28 19 39 5 11 16 41 24 68 7 26 16 47 20 47 6 0 23 58 20 73 0 4 4 7
9 7 5 0 9 3 9 8 -3 18 2 33 9 28 4 -2 8 8 7 22 0 19 5 26 15 24 11 -3 12 -1 4
8 -14 14 -6 52 9 43 6 -3 7 -1 3 6 -4 6 1 35 10 64 20 58 21 61 23 83 0 8 5
13 10 9 5 -3 13 0 17 6 4 8 3 9 -4 5 -13 -8 -9 42 6 71 6 10 12 32 15 48 12
74 30 124 41 118 6 -4 6 0 -2 9 -14 17 -6 51 11 41 6 -3 7 -1 3 6 -9 15 3 113
13 107 4 -3 5 9 3 26 -4 24 -2 29 9 23 11 -7 12 -6 2 7 -7 8 -10 18 -6 22 4 4
8 34 10 68 2 34 8 67 14 74 7 8 7 14 -1 19 -7 4 -7 12 0 25 7 13 7 21 0 25 -5
3 -10 11 -10 16 0 6 5 7 12 3 7 -5 8 -3 3 6 -5 8 -10 46 -11 84 -2 39 -6 87
-9 106 -3 19 -8 55 -11 80 -3 25 -10 51 -16 58 -6 6 -8 12 -4 12 13 0 -94 263
-114 280 -3 3 -23 31 -43 63 -21 31 -42 57 -48 57 -5 0 -9 5 -9 11 0 34 -228
229 -340 292 -25 14 -65 37 -90 51 -25 14 -52 26 -62 26 -9 0 -18 4 -20 8 -6
15 -277 115 -347 128 -29 6 -62 23 -44 24 6 0 9 9 6 23 l-6 22 20 -22 c11 -13
27 -23 35 -23 8 0 20 -6 27 -12 9 -8 11 -8 8 -2 -4 7 0 29 9 49 11 27 12 41 5
48 -6 6 -11 8 -11 4 0 -4 -9 -3 -21 3 -15 9 -24 8 -35 -1 -19 -16 -28 -6 -16
18 5 10 8 28 7 41 -2 26 7 28 29 7 8 -8 19 -15 25 -15 6 0 11 -6 11 -12 0 -25
35 38 38 69 3 26 0 31 -15 29 -10 -2 -25 0 -34 5 -10 5 -21 3 -29 -4 -10 -10
-11 -8 -7 8 8 29 38 174 44 211 8 59 -62 95 -113 59 -12 -8 -45 -37 -74 -65
-28 -27 -55 -50 -60 -50 -4 0 -10 -7 -14 -15 -8 -22 -19 -18 -38 15 -21 36
-32 37 -63 5 -34 -33 -31 -51 9 -66 l34 -12 -26 -21 c-15 -11 -32 -27 -39 -36
-10 -13 -11 -12 -7 6 5 20 -27 64 -46 64 -9 0 -51 -50 -42 -50 4 0 1 -4 -6 -9
-11 -6 -7 -13 16 -29 16 -12 32 -19 36 -15 3 3 6 4 6 0 0 -8 -50 -58 -51 -52
-1 3 -2 8 -3 13 -1 4 -9 18 -18 31 -16 23 -19 24 -44 11 -22 -12 -52 -58 -42
-64 48 -29 55 -37 53 -60 -2 -17 2 -26 11 -26 8 0 14 -5 14 -11 0 -5 -4 -8 -8
-5 -4 2 -48 7 -97 11 -50 3 -110 8 -135 11 -146 15 -604 1 -720 -21 -13 -3
-28 1 -32 8 -6 9 -8 9 -8 0 0 -7 -4 -13 -10 -13 -6 0 -5 10 2 25 6 13 16 22
22 18 6 -3 8 -3 4 2 -4 4 -2 15 5 23 6 9 7 13 2 10 -6 -4 -17 -2 -25 4 -13 8
-12 9 1 5 9 -3 29 5 45 19 16 13 24 23 18 24 -7 0 -15 11 -18 24 -8 34 -40 39
-70 11 -18 -17 -21 -26 -13 -34 7 -7 7 -11 1 -11 -6 0 -23 13 -39 30 -25 26
-26 29 -7 25 12 -2 23 3 26 11 3 9 10 12 16 9 21 -13 9 26 -18 56 l-27 31 -27
-27 c-17 -16 -24 -33 -21 -43 4 -8 -10 -1 -30 18 -35 32 -48 48 -28 35 5 -3
17 2 25 11 9 9 24 13 33 10 14 -6 13 -3 -2 21 -9 16 -26 36 -38 46 -19 17 -21
17 -44 -5 -13 -12 -21 -28 -19 -35 8 -21 -5 -15 -33 15 -56 57 -163 142 -179
141 -9 0 -27 -4 -40 -9z"/>
<path d="M2015 5020 c-3 -5 -1 -10 4 -10 6 0 11 5 11 10 0 6 -2 10 -4 10 -3 0
-8 -4 -11 -10z"/>
<path d="M1155 2580 c-3 -5 -1 -10 4 -10 6 0 11 5 11 10 0 6 -2 10 -4 10 -3 0
-8 -4 -11 -10z"/>
<path d="M4856 2542 c-3 -5 1 -9 9 -9 8 0 12 4 9 9 -3 4 -7 8 -9 8 -2 0 -6 -4
-9 -8z"/>
<path d="M1624 1590 c0 -13 4 -16 10 -10 7 7 7 13 0 20 -6 6 -10 3 -10 -10z"/>
<path d="M1555 1581 c-3 -5 -2 -12 3 -15 5 -3 9 1 9 9 0 17 -3 19 -12 6z"/>
<path d="M4386 1562 c-2 -4 4 -8 14 -8 10 0 16 4 14 8 -3 4 -9 8 -14 8 -5 0
-11 -4 -14 -8z"/>
<path d="M4316 1482 c-3 -5 1 -9 9 -9 8 0 12 4 9 9 -3 4 -7 8 -9 8 -2 0 -6 -4
-9 -8z"/>
<path d="M1729 1403 c-13 -16 -12 -17 4 -4 9 7 17 15 17 17 0 8 -8 3 -21 -13z"/>
<path d="M4255 1340 c3 -5 8 -10 11 -10 2 0 4 5 4 10 0 6 -5 10 -11 10 -5 0
-7 -4 -4 -10z"/>
<path d="M1790 1306 c0 -2 7 -7 16 -10 8 -3 12 -2 9 4 -6 10 -25 14 -25 6z"/>
<path d="M4147 1219 c7 -7 15 -10 18 -7 3 3 -2 9 -12 12 -14 6 -15 5 -6 -5z"/>
<path d="M1874 1166 c1 -8 5 -18 8 -22 4 -3 5 1 4 10 -1 8 -5 18 -8 22 -4 3
-5 -1 -4 -10z"/>
<path d="M4106 1158 c3 -5 10 -6 15 -3 13 9 11 12 -6 12 -8 0 -12 -4 -9 -9z"/>
<path d="M4036 1033 c-6 -14 -5 -15 5 -6 7 7 10 15 7 18 -3 3 -9 -2 -12 -12z"/>
<path d="M3619 578 c-5 -9 -5 -48 -1 -43 6 6 11 45 5 45 -2 0 -4 -1 -4 -2z"/>
<path d="M3513 465 c0 -8 4 -12 9 -9 5 3 6 10 3 15 -9 13 -12 11 -12 -6z"/>
<path d="M2507 459 c7 -7 15 -10 18 -7 3 3 -2 9 -12 12 -14 6 -15 5 -6 -5z"/>
<path d="M2629 377 c6 -8 9 -16 6 -19 -3 -2 2 -5 10 -5 13 0 13 3 -2 19 -19
21 -31 25 -14 5z"/>
<path d="M3415 369 c-4 -6 -5 -12 -2 -15 2 -3 7 2 10 11 7 17 1 20 -8 4z"/>
<path d="M3313 293 c0 -9 4 -10 14 -2 7 6 13 12 13 14 0 1 -6 2 -13 2 -8 0
-14 -6 -14 -14z"/>
<path d="M2670 281 c0 -6 4 -13 10 -16 6 -3 7 1 4 9 -7 18 -14 21 -14 7z"/>
<path d="M2759 253 c-13 -16 -12 -17 4 -4 16 13 21 21 13 21 -2 0 -10 -8 -17
-17z"/>
<path d="M3290 259 c0 -5 5 -7 10 -4 6 3 10 8 10 11 0 2 -4 4 -10 4 -5 0 -10
-5 -10 -11z"/>
<path d="M2846 198 c3 -4 9 -8 15 -8 5 0 9 4 9 8 0 5 -7 9 -15 9 -8 0 -12 -4
-9 -9z"/>
<path d="M3173 193 c0 -9 4 -10 14 -2 7 6 13 12 13 14 0 1 -6 2 -13 2 -8 0
-14 -6 -14 -14z"/>
<path d="M2810 186 c0 -2 7 -7 16 -10 8 -3 12 -2 9 4 -6 10 -25 14 -25 6z"/>
<path d="M3120 180 c-9 -6 -10 -10 -3 -10 6 0 15 5 18 10 8 12 4 12 -15 0z"/>
<path d="M3213 175 c0 -8 4 -12 9 -9 5 3 6 10 3 15 -9 13 -12 11 -12 -6z"/>
<path d="M2915 160 c2 -27 10 -33 12 -10 1 11 -2 22 -6 24 -4 3 -7 -4 -6 -14z"/>
<path d="M2856 158 c3 -5 10 -6 15 -3 13 9 11 12 -6 12 -8 0 -12 -4 -9 -9z"/>
<path d="M3141 156 c-9 -11 -9 -16 1 -22 7 -4 10 -4 6 1 -4 4 -3 14 3 22 6 7
9 13 6 13 -2 0 -10 -6 -16 -14z"/>
<path d="M2973 105 c0 -8 4 -12 9 -9 5 3 6 10 3 15 -9 13 -12 11 -12 -6z"/>
</g>
</svg>
