<?xml version="1.0" standalone="no"?>
<!DOCTYPE svg PUBLIC "-//W3C//DTD SVG 20010904//EN"
 "http://www.w3.org/TR/2001/REC-SVG-20010904/DTD/svg10.dtd">
<svg version="1.0" xmlns="http://www.w3.org/2000/svg"
 width="596.000000pt" height="596.000000pt" viewBox="0 0 596.000000 596.000000"
 preserveAspectRatio="xMidYMid meet">
<metadata>
Created by potrace 1.11, written by Peter Selinger 2001-2013
</metadata>
<g transform="translate(0.000000,596.000000) scale(0.100000,-0.100000)"
fill="#000000" stroke="none">
<path d="M2012 5410 c-29 -12 -41 -46 -30 -87 5 -18 6 -37 3 -42 -3 -5 -1 -12
4 -15 9 -6 25 -86 24 -118 0 -10 4 -18 8 -18 5 0 9 -5 9 -11 0 -8 -4 -8 -13
-1 -7 7 -29 9 -49 6 -29 -5 -35 -10 -32 -28 3 -31 31 -79 38 -67 4 5 14 7 23
4 11 -4 14 -3 9 5 -5 8 0 12 14 12 12 0 18 -4 15 -10 -3 -5 -2 -10 3 -10 5 0
10 -10 10 -22 0 -20 -5 -23 -37 -22 -50 2 -63 -10 -49 -44 20 -47 30 -54 61
-40 14 7 28 21 29 31 2 12 7 6 14 -18 12 -39 4 -49 -49 -59 -14 -2 -34 -9 -44
-14 -10 -5 -54 -22 -98 -37 -135 -45 -414 -189 -455 -235 -3 -3 -23 -19 -45
-35 -34 -25 -144 -134 -181 -178 -47 -56 -160 -243 -166 -274 -5 -27 -11 -43
-17 -43 -3 0 -7 -10 -8 -23 -2 -23 -10 -60 -13 -64 -2 -2 -4 -7 -5 -13 -1 -5
-3 -11 -4 -12 -1 -2 -4 -19 -7 -38 -2 -19 -7 -42 -10 -50 -9 -21 -15 -93 -16
-177 -1 -46 -5 -73 -12 -73 -7 0 -7 -3 1 -8 15 -10 23 -123 8 -114 -5 3 -4 -2
4 -11 7 -9 10 -17 7 -17 -4 0 -2 -10 5 -21 6 -12 7 -19 2 -16 -5 4 -10 0 -10
-8 0 -8 4 -12 9 -9 4 3 8 -5 8 -18 0 -35 6 -81 15 -100 4 -9 4 -21 1 -27 -4
-5 -2 -12 3 -16 5 -3 8 -14 6 -25 -2 -11 0 -20 4 -20 4 0 8 -6 9 -12 2 -30 10
-65 20 -88 5 -14 8 -29 5 -33 -3 -4 1 -14 7 -22 10 -12 10 -15 -1 -15 -11 0
-11 -2 -2 -8 7 -4 14 -17 16 -27 2 -11 7 -27 10 -35 21 -58 26 -80 14 -74 -7
4 -5 -1 4 -12 9 -10 19 -32 23 -49 8 -37 9 -41 25 -87 7 -21 9 -43 5 -49 -5
-8 -3 -9 6 -4 10 6 12 3 8 -13 -4 -12 -2 -20 2 -17 4 3 13 -9 19 -25 5 -17 6
-28 1 -25 -5 3 -12 1 -15 -5 -4 -6 -3 -10 2 -9 18 3 34 -1 30 -9 -3 -4 3 -24
13 -44 19 -39 34 -88 32 -100 -1 -5 2 -8 8 -8 5 0 10 -9 10 -19 0 -11 5 -23
10 -26 6 -3 10 -17 10 -31 0 -13 5 -24 10 -24 6 0 10 -6 10 -12 0 -7 11 -35
25 -62 l25 -50 -48 -45 c-26 -26 -59 -55 -74 -67 -36 -28 -138 -115 -160 -137
-10 -9 -20 -17 -23 -17 -3 0 -16 -10 -28 -23 -12 -12 -65 -58 -117 -102 -52
-44 -100 -84 -106 -90 -6 -5 -33 -28 -60 -50 -26 -22 -58 -49 -70 -60 -12 -11
-44 -39 -71 -62 -132 -113 -126 -105 -128 -156 0 -26 3 -47 7 -47 4 0 8 -5 8
-11 0 -6 7 -17 15 -26 8 -8 13 -18 11 -21 -2 -4 12 -7 32 -7 21 1 40 -3 43 -8
3 -5 13 -2 21 7 9 8 18 12 22 9 3 -3 13 0 23 8 14 12 16 12 8 0 -5 -8 7 -4 25
9 18 13 30 17 25 9 -8 -12 -6 -12 8 0 9 7 17 10 17 5 0 -5 4 -3 8 3 4 7 17 14
27 16 11 1 25 5 30 8 6 4 18 5 28 4 9 -2 15 1 11 6 -3 5 4 9 15 9 11 0 22 4
25 9 3 5 15 11 26 14 18 5 19 3 8 -11 -7 -9 0 -7 16 6 28 22 53 21 39 -1 -4
-7 0 -6 10 2 18 15 23 26 7 16 -6 -3 -10 -2 -10 3 0 9 56 26 74 23 4 -1 14 3
22 10 8 6 20 9 29 5 8 -3 14 0 12 7 -1 7 9 12 25 11 15 0 25 3 22 7 -4 8 51
22 70 19 5 -1 13 4 17 12 7 11 12 11 31 -1 20 -13 22 -13 10 1 -10 13 -8 17
20 23 18 4 36 7 41 6 4 0 7 4 7 9 0 6 5 10 11 10 5 0 7 -6 4 -12 -4 -7 0 -5 8
5 9 10 30 19 50 20 19 1 33 5 31 8 -5 9 26 20 37 13 5 -3 9 0 9 6 0 7 7 10 15
6 8 -3 15 -1 15 4 0 6 5 10 11 10 5 0 7 -6 4 -13 -4 -6 0 -4 8 5 11 14 16 15
27 5 9 -8 11 -8 6 0 -9 16 48 35 63 20 6 -6 11 -15 11 -19 0 -4 8 -17 17 -28
10 -11 18 -24 18 -28 0 -4 6 -15 15 -25 8 -10 14 -20 12 -23 -1 -2 6 -13 16
-24 10 -11 25 -33 33 -48 8 -15 22 -36 31 -46 10 -11 20 -28 24 -38 3 -10 10
-18 15 -18 6 0 7 -5 4 -10 -3 -6 -1 -10 4 -10 6 0 11 -6 11 -14 0 -8 7 -17 16
-20 10 -4 14 -12 10 -23 -4 -10 -4 -14 0 -10 10 9 37 -30 29 -43 -3 -5 0 -7 8
-4 14 5 33 -24 22 -34 -3 -3 -5 0 -5 6 0 7 -6 12 -12 12 -7 -1 -2 -10 11 -20
13 -12 21 -26 17 -35 -3 -8 -2 -15 2 -15 4 0 8 -8 9 -17 0 -10 4 -36 8 -58 4
-22 9 -49 11 -60 1 -11 3 -20 4 -20 1 0 3 -11 6 -25 2 -14 6 -36 8 -50 3 -14
8 -36 11 -50 3 -14 8 -38 9 -55 2 -16 6 -37 9 -45 3 -8 8 -31 11 -50 3 -19 8
-46 11 -60 3 -14 7 -41 10 -61 2 -20 8 -47 13 -60 4 -13 8 -38 7 -56 -1 -18 2
-30 7 -27 4 3 8 -1 8 -8 0 -19 45 -79 53 -71 4 3 7 1 7 -6 0 -7 4 -10 9 -7 5
4 20 2 33 -3 25 -9 86 14 89 34 0 6 5 9 10 8 4 -2 6 4 3 12 -3 8 -2 20 2 27 5
7 9 26 11 43 3 31 10 70 13 70 2 0 9 36 13 65 2 14 6 31 10 37 4 6 8 23 9 36
1 14 6 23 10 21 5 -3 6 -9 3 -14 -3 -4 5 -10 18 -14 17 -5 19 -8 9 -15 -10 -6
-7 -10 14 -15 22 -6 25 -9 13 -17 -11 -7 -9 -9 9 -9 13 0 22 -6 22 -15 0 -8 4
-15 10 -15 5 0 39 -29 76 -65 37 -36 70 -65 75 -65 15 0 21 -21 9 -35 -8 -9
-8 -15 0 -20 6 -4 9 -1 8 6 -6 25 19 18 54 -15 20 -19 39 -32 42 -29 3 4 6 -2
6 -12 0 -10 3 -15 6 -12 10 10 65 -33 58 -45 -4 -7 -2 -8 4 -4 7 4 25 -1 42
-11 32 -19 41 -39 13 -28 -15 5 -16 4 -5 -6 8 -9 15 -10 23 -2 14 14 59 -6 59
-27 0 -12 2 -12 9 -2 7 11 9 11 14 -1 3 -8 0 -21 -6 -28 -10 -11 -9 -11 5 0
10 7 15 18 11 25 -4 7 -1 6 9 -1 8 -7 18 -10 21 -6 4 3 14 0 24 -8 9 -8 14 -9
10 -2 -7 11 39 28 75 26 10 0 15 3 13 8 -3 4 0 11 6 15 6 3 15 0 20 -7 6 -11
9 -8 9 8 0 16 5 21 19 18 15 -3 18 1 14 12 -4 10 -2 14 4 10 5 -4 20 4 33 18
12 13 30 22 40 20 14 -3 17 1 13 12 -4 10 -2 14 4 10 6 -4 14 0 17 9 3 8 11
12 16 9 6 -4 9 -3 8 2 -2 4 0 8 3 8 4 0 17 11 29 25 12 14 18 19 14 11 -5 -9
-3 -12 4 -7 7 4 12 14 12 22 0 13 12 19 33 15 5 -1 6 3 3 8 -7 10 73 77 86 73
5 -1 7 2 3 8 -3 5 -1 10 5 10 6 0 8 5 5 10 -3 6 0 10 7 10 7 0 19 9 26 20 7
11 19 20 28 20 8 0 13 4 10 8 -3 5 5 18 17 29 37 31 43 33 44 10 1 -30 10 -74
19 -88 5 -8 3 -9 -7 -4 -11 7 -12 6 -2 -7 7 -8 10 -18 6 -21 -3 -4 -2 -7 3 -7
5 0 10 -8 11 -17 6 -79 41 -143 77 -143 8 0 18 -5 21 -10 5 -8 11 -8 19 -1 7
6 16 8 19 4 4 -3 7 -1 7 6 0 7 5 9 10 6 6 -3 10 -1 10 5 0 6 4 9 9 6 4 -3 13
6 19 19 7 14 16 25 22 25 6 0 9 4 5 9 -3 5 -1 12 4 16 5 3 8 14 6 25 -2 11 1
20 6 20 6 0 7 5 4 10 -3 6 -3 15 1 22 4 6 9 26 10 42 6 58 10 82 18 95 4 7 6
15 3 17 -3 3 0 22 6 42 5 20 11 51 13 67 1 17 3 30 4 30 3 0 11 40 13 67 1 15
5 30 9 33 4 4 4 13 1 21 -3 8 -1 14 5 14 5 0 8 14 7 30 -1 17 1 30 6 30 5 0 6
7 3 15 -4 8 -1 21 5 29 6 7 8 16 4 19 -3 4 0 14 8 24 9 11 10 14 2 9 -10 -5
-11 -1 -4 16 5 13 16 22 25 22 18 -2 22 12 5 18 -7 2 -4 10 7 18 10 8 15 10
11 3 -4 -6 -3 -14 2 -18 6 -3 8 4 6 16 -3 14 11 41 40 79 24 32 41 60 38 64
-4 3 1 6 11 6 9 0 14 5 11 10 -3 6 1 13 9 16 9 3 13 10 10 15 -3 5 0 9 5 9 6
0 11 6 11 14 0 23 24 37 40 23 12 -10 12 -9 2 4 -14 19 6 72 25 65 7 -3 10 1
7 7 -3 10 60 123 93 166 1 2 21 -1 44 -8 41 -12 41 -13 23 -34 l-18 -22 23 22
c17 15 29 19 40 13 26 -14 62 -26 82 -29 5 0 8 -5 4 -10 -3 -6 4 -8 17 -6 12
3 35 -2 51 -10 17 -8 38 -15 47 -15 9 0 20 -3 24 -8 8 -7 13 -8 42 -11 11 -1
14 -7 9 -18 -5 -14 -3 -15 6 -6 14 14 42 5 32 -11 -4 -7 -1 -7 9 1 8 7 18 10
22 6 3 -4 12 -8 19 -9 10 -2 91 -30 147 -51 8 -3 21 -7 29 -9 8 -1 18 -9 22
-16 5 -7 9 -9 9 -4 0 5 8 2 17 -5 14 -12 16 -12 9 0 -6 9 -5 12 5 9 8 -3 13
-11 12 -17 -2 -6 2 -11 7 -11 6 0 10 5 10 11 0 5 4 8 10 4 5 -3 7 -13 4 -23
-4 -13 -3 -14 4 -4 7 11 18 11 58 -1 27 -8 48 -19 47 -24 -1 -6 9 -8 22 -5 14
2 25 0 25 -5 0 -5 8 -9 18 -10 38 -3 57 -11 54 -24 -3 -11 -1 -11 9 -2 10 10
17 9 33 -5 11 -10 16 -11 11 -3 -6 11 -1 13 23 9 17 -2 30 -2 29 2 -1 3 8 16
21 30 12 13 22 30 22 37 0 8 5 11 12 7 6 -4 8 -3 5 3 -3 5 -7 27 -9 47 -2 39
-16 54 -131 151 -27 22 -61 51 -77 65 -15 14 -49 43 -75 65 -26 22 -57 49 -70
60 -21 19 -77 66 -124 105 -10 8 -42 35 -71 60 -68 58 -85 73 -145 123 -27 23
-65 57 -83 74 -19 18 -38 33 -43 33 -9 0 -26 30 -25 45 2 20 29 75 37 75 5 0
5 7 2 17 -5 12 -3 14 7 8 10 -6 12 -4 7 8 -3 9 0 23 8 31 8 7 12 16 9 19 -3 3
-1 13 4 24 5 10 14 29 20 43 5 14 17 41 25 60 9 19 13 38 11 42 -3 4 -1 8 4 8
9 0 26 55 23 73 0 4 4 7 9 7 5 0 9 3 9 8 -3 18 2 33 9 28 4 -2 8 8 7 22 0 19
5 26 15 24 11 -3 12 -1 4 8 -13 13 -7 53 6 45 5 -3 6 5 2 17 -4 16 -2 19 8 13
9 -5 11 -4 6 4 -10 16 13 83 26 75 7 -4 7 0 0 12 -11 23 -5 47 10 38 6 -4 8
-3 5 2 -7 12 12 105 21 100 4 -2 8 19 9 47 1 28 7 54 14 57 6 4 10 10 10 14
-4 28 1 46 10 40 8 -5 8 -1 0 13 -5 11 -6 24 -1 29 4 5 11 26 14 47 3 20 9 54
12 75 3 20 11 40 18 44 8 6 7 8 -2 8 -8 0 -10 5 -5 12 4 7 9 40 10 72 2 32 8
64 13 71 5 6 7 15 4 18 -4 4 -8 59 -10 124 -2 65 -6 129 -9 143 -3 14 -8 48
-11 75 -4 28 -9 55 -12 60 -4 6 -8 18 -9 28 -5 31 -66 181 -90 222 -13 22 -26
48 -30 58 -3 9 -9 17 -14 17 -5 0 -9 5 -9 11 0 14 -59 87 -130 162 -59 63
-207 179 -280 220 -25 14 -65 37 -90 51 -25 14 -53 26 -62 26 -10 0 -18 3 -18
8 0 6 -135 63 -160 68 -3 0 -12 4 -20 7 -25 11 -144 48 -169 53 -29 6 -61 23
-44 24 6 0 9 9 6 23 l-6 22 20 -22 c11 -13 27 -23 35 -23 8 0 20 -6 27 -12 9
-8 11 -8 8 -2 -4 7 0 28 8 48 19 45 20 42 -16 55 -24 8 -36 8 -46 0 -18 -16
-27 -5 -15 18 5 10 8 28 7 41 -2 26 7 28 29 7 8 -8 19 -15 25 -15 6 0 11 -4
11 -10 0 -24 35 28 37 56 2 27 -1 32 -31 41 -25 8 -38 7 -46 -1 -9 -8 -11 -6
-7 9 8 29 38 174 44 211 8 60 -62 95 -115 58 -13 -9 -46 -38 -73 -65 -27 -27
-54 -49 -58 -49 -5 0 -11 -7 -15 -15 -8 -22 -19 -18 -38 15 -21 36 -32 37 -63
5 -34 -33 -31 -50 9 -66 l34 -14 -39 -28 c-22 -16 -36 -22 -33 -14 5 13 -30
57 -46 57 -9 0 -51 -50 -42 -50 4 0 1 -4 -6 -9 -11 -6 -7 -13 16 -29 16 -12
32 -19 36 -15 3 3 6 4 6 0 0 -8 -50 -58 -51 -52 -1 3 -2 8 -3 13 -1 4 -9 18
-18 31 -16 23 -19 24 -44 11 -22 -12 -52 -58 -42 -64 48 -29 55 -37 53 -60 -2
-18 2 -26 11 -26 9 0 12 -5 9 -10 -4 -6 -10 -8 -14 -6 -7 5 -100 14 -231 22
-153 9 -529 3 -635 -11 -86 -11 -139 -14 -127 -6 8 4 13 11 13 15 -3 20 0 26
12 20 6 -4 9 -4 5 1 -4 4 -2 15 5 23 6 9 7 13 2 10 -6 -4 -17 -2 -25 4 -12 8
-12 9 2 4 10 -3 20 -1 24 5 3 6 13 8 22 4 9 -3 13 -3 9 1 -4 4 -2 13 3 19 7 9
2 22 -20 45 l-30 32 -29 -24 c-20 -16 -26 -27 -18 -35 20 -26 -10 -12 -38 17
-25 26 -26 29 -7 25 12 -2 23 3 26 11 3 9 10 12 16 9 21 -13 9 26 -18 56 l-27
31 -27 -27 c-17 -16 -24 -33 -21 -43 4 -8 -10 -1 -30 18 -35 32 -48 48 -28 35
5 -3 16 2 24 10 9 8 20 15 26 15 19 0 12 17 -19 50 l-31 33 -25 -24 c-13 -12
-22 -29 -20 -36 9 -21 -4 -15 -39 20 -18 17 -46 43 -61 56 -16 13 -44 37 -62
53 -34 29 -52 33 -90 18z"/>
<path d="M1295 2220 c3 -5 8 -10 11 -10 2 0 4 5 4 10 0 6 -5 10 -11 10 -5 0
-7 -4 -4 -10z"/>
<path d="M4713 2215 c0 -8 4 -12 9 -9 5 3 6 10 3 15 -9 13 -12 11 -12 -6z"/>
<path d="M1624 1590 c0 -13 4 -16 10 -10 7 7 7 13 0 20 -6 6 -10 3 -10 -10z"/>
<path d="M1590 1579 c0 -5 5 -7 10 -4 6 3 10 8 10 11 0 2 -4 4 -10 4 -5 0 -10
-5 -10 -11z"/>
<path d="M1653 1535 c0 -8 4 -12 9 -9 5 3 6 10 3 15 -9 13 -12 11 -12 -6z"/>
<path d="M4396 1533 c-6 -14 -5 -15 5 -6 7 7 10 15 7 18 -3 3 -9 -2 -12 -12z"/>
<path d="M4355 1529 c-4 -6 -5 -12 -2 -15 2 -3 7 2 10 11 7 17 1 20 -8 4z"/>
<path d="M1700 1400 c-9 -6 -10 -10 -3 -10 6 0 15 5 18 10 8 12 4 12 -15 0z"/>
<path d="M1775 1340 c3 -5 8 -10 11 -10 2 0 4 5 4 10 0 6 -5 10 -11 10 -5 0
-7 -4 -4 -10z"/>
<path d="M4255 1340 c3 -5 8 -10 11 -10 2 0 4 5 4 10 0 6 -5 10 -11 10 -5 0
-7 -4 -4 -10z"/>
<path d="M1790 1306 c0 -2 7 -7 16 -10 8 -3 12 -2 9 4 -6 10 -25 14 -25 6z"/>
<path d="M526 1238 c3 -5 10 -6 15 -3 13 9 11 12 -6 12 -8 0 -12 -4 -9 -9z"/>
<path d="M4170 1220 c0 -5 5 -10 11 -10 5 0 7 5 4 10 -3 6 -8 10 -11 10 -2 0
-4 -4 -4 -10z"/>
<path d="M1875 1169 c-4 -6 -5 -12 -2 -15 2 -3 7 2 10 11 7 17 1 20 -8 4z"/>
<path d="M4109 1163 c-13 -16 -12 -17 4 -4 16 13 21 21 13 21 -2 0 -10 -8 -17
-17z"/>
<path d="M3610 539 c0 -5 5 -7 10 -4 6 3 10 8 10 11 0 2 -4 4 -10 4 -5 0 -10
-5 -10 -11z"/>
<path d="M2456 522 c-3 -5 1 -9 9 -9 8 0 12 4 9 9 -3 4 -7 8 -9 8 -2 0 -6 -4
-9 -8z"/>
<path d="M3529 483 c-13 -16 -12 -17 4 -4 16 13 21 21 13 21 -2 0 -10 -8 -17
-17z"/>
<path d="M2485 479 c-3 -4 2 -6 10 -5 21 3 28 13 10 13 -9 0 -18 -4 -20 -8z"/>
<path d="M3486 438 c3 -5 10 -6 15 -3 13 9 11 12 -6 12 -8 0 -12 -4 -9 -9z"/>
<path d="M2559 428 c-5 -18 -6 -38 -1 -34 7 8 12 36 6 36 -2 0 -4 -1 -5 -2z"/>
<path d="M3460 426 c0 -2 8 -10 18 -17 15 -13 16 -12 3 4 -13 16 -21 21 -21
13z"/>
<path d="M3433 407 c0 -8 6 -14 14 -14 9 0 10 4 2 14 -6 7 -12 13 -14 13 -1 0
-2 -6 -2 -13z"/>
<path d="M2166 278 c3 -5 10 -6 15 -3 13 9 11 12 -6 12 -8 0 -12 -4 -9 -9z"/>
<path d="M2759 253 c-13 -16 -12 -17 4 -4 16 13 21 21 13 21 -2 0 -10 -8 -17
-17z"/>
<path d="M3236 253 c-6 -14 -5 -15 5 -6 7 7 10 15 7 18 -3 3 -9 -2 -12 -12z"/>
<path d="M3253 225 c0 -8 4 -12 9 -9 5 3 6 10 3 15 -9 13 -12 11 -12 -6z"/>
<path d="M2814 200 c0 -13 4 -16 10 -10 7 7 7 13 0 20 -6 6 -10 3 -10 -10z"/>
<path d="M3213 175 c0 -8 4 -12 9 -9 5 3 6 10 3 15 -9 13 -12 11 -12 -6z"/>
<path d="M2895 170 c-4 -6 -10 -8 -15 -5 -5 3 -11 1 -14 -4 -8 -13 22 -7 36 7
7 7 9 12 6 12 -4 0 -10 -5 -13 -10z"/>
<path d="M2913 145 c0 -8 4 -12 9 -9 5 3 6 10 3 15 -9 13 -12 11 -12 -6z"/>
<path d="M3100 146 c0 -2 8 -10 18 -17 15 -13 16 -12 3 4 -13 16 -21 21 -21
13z"/>
<path d="M3003 124 c9 -11 15 -24 12 -27 -3 -4 -2 -5 2 -2 4 3 8 13 9 21 1 9
0 13 -3 10 -4 -3 -13 0 -22 6 -12 10 -12 7 2 -8z"/>
<path d="M2973 115 c0 -8 4 -12 9 -9 5 3 6 10 3 15 -9 13 -12 11 -12 -6z"/>
</g>
</svg>
