<?xml version="1.0" standalone="no"?>
<!DOCTYPE svg PUBLIC "-//W3C//DTD SVG 20010904//EN"
 "http://www.w3.org/TR/2001/REC-SVG-20010904/DTD/svg10.dtd">
<svg version="1.0" xmlns="http://www.w3.org/2000/svg"
 width="596.000000pt" height="596.000000pt" viewBox="0 0 596.000000 596.000000"
 preserveAspectRatio="xMidYMid meet">
<metadata>
Created by potrace 1.11, written by Peter Selinger 2001-2013
</metadata>
<g transform="translate(0.000000,596.000000) scale(0.100000,-0.100000)"
fill="#000000" stroke="none">
<path d="M2012 5410 c-29 -12 -41 -46 -30 -87 5 -18 6 -37 3 -42 -3 -5 -1 -12
4 -15 9 -6 25 -86 24 -118 0 -10 4 -18 9 -18 5 0 6 -5 2 -11 -5 -8 -8 -8 -13
0 -4 6 -22 8 -42 5 -32 -6 -36 -9 -32 -33 3 -14 5 -33 6 -41 1 -18 43 -25 52
-10 4 6 11 8 16 5 5 -4 9 2 9 12 1 16 2 16 12 -2 7 -11 14 -31 15 -45 3 -23 1
-25 -34 -24 -52 2 -65 -10 -51 -44 20 -47 30 -54 61 -40 14 7 28 21 29 31 2
12 7 6 14 -18 12 -39 4 -49 -49 -59 -14 -2 -34 -9 -44 -14 -10 -5 -54 -22 -98
-37 -135 -45 -414 -189 -455 -235 -3 -3 -23 -19 -45 -35 -34 -25 -144 -134
-181 -178 -77 -92 -187 -303 -199 -382 -1 -5 -3 -13 -5 -17 -1 -5 -4 -12 -5
-18 -1 -5 -3 -11 -4 -12 -1 -2 -4 -19 -7 -38 -2 -19 -7 -42 -10 -50 -21 -51
-19 -397 1 -430 5 -8 4 -11 -2 -7 -5 3 -10 0 -10 -8 0 -8 4 -12 9 -9 4 3 8 -5
7 -18 0 -13 3 -39 6 -58 4 -19 7 -45 8 -57 1 -13 5 -23 10 -23 4 0 6 -3 5 -7
-1 -5 2 -26 7 -48 5 -22 9 -47 10 -55 1 -8 7 -26 12 -40 6 -14 8 -30 6 -36 -2
-7 1 -15 7 -19 8 -5 8 -11 -1 -21 -10 -12 -10 -14 1 -12 7 2 14 -6 15 -17 2
-11 10 -41 18 -67 10 -32 11 -46 4 -41 -7 3 -3 -3 7 -15 11 -12 16 -25 13 -28
-3 -4 0 -19 9 -35 8 -16 15 -32 15 -36 2 -9 3 -12 19 -65 6 -21 8 -43 4 -49
-4 -7 -3 -9 4 -5 9 5 28 -34 38 -79 1 -5 14 -38 27 -72 14 -34 22 -64 19 -67
-3 -3 0 -6 7 -6 7 0 9 -4 6 -10 -3 -5 -1 -10 5 -10 6 0 9 -4 5 -9 -3 -5 -1
-12 5 -16 5 -3 10 -17 10 -31 0 -13 5 -24 10 -24 6 0 10 -9 10 -20 0 -11 6
-20 13 -20 8 0 7 -4 -3 -10 -13 -8 -13 -10 1 -10 9 0 20 -14 26 -34 12 -40 23
-29 -188 -207 -29 -26 -106 -91 -169 -145 -100 -85 -144 -122 -240 -204 -82
-69 -137 -117 -239 -207 -29 -25 -34 -37 -36 -76 0 -26 3 -47 7 -47 4 0 8 -4
8 -10 0 -18 34 -50 53 -50 11 0 15 -5 11 -11 -5 -8 -1 -8 14 0 15 8 21 8 24 0
3 -8 8 -7 18 2 8 8 24 14 35 14 11 -1 22 2 25 5 3 3 16 11 29 18 19 11 22 11
15 0 -6 -10 -4 -10 9 1 9 7 17 10 17 5 0 -5 4 -3 8 3 4 7 17 14 27 16 11 1 26
6 33 10 6 5 12 5 12 1 0 -3 6 -1 14 5 7 6 25 12 40 13 14 1 26 5 26 9 0 4 7
10 16 13 15 6 15 4 3 -11 -9 -12 -4 -10 15 5 28 22 53 21 39 -1 -4 -7 0 -6 10
2 18 15 23 26 7 16 -6 -3 -10 -2 -10 3 0 9 56 26 74 23 4 -1 14 3 22 10 8 6
20 9 29 5 8 -3 14 0 12 7 -1 7 9 12 25 11 15 0 25 3 22 7 -4 8 51 22 70 19 5
-1 13 4 17 12 7 11 12 11 31 -1 20 -13 22 -13 10 1 -10 13 -8 17 20 23 18 4
36 7 41 6 4 0 7 4 7 9 0 6 5 10 11 10 5 0 7 -6 4 -12 -4 -7 0 -5 8 5 8 9 20
17 28 17 8 0 25 6 40 13 14 8 33 13 42 11 9 -1 17 2 17 8 0 6 7 8 15 4 8 -3
15 -1 15 4 0 6 5 10 11 10 5 0 7 -6 4 -13 -4 -6 1 -3 10 8 13 15 19 16 22 7 4
-10 7 -10 17 2 17 22 47 23 60 2 6 -11 19 -29 29 -40 10 -11 20 -31 23 -43 4
-13 10 -23 16 -23 5 0 6 -4 3 -10 -3 -5 -1 -10 5 -10 6 0 15 -10 20 -22 13
-29 30 -56 52 -82 10 -11 20 -28 24 -38 3 -10 10 -18 15 -18 6 0 7 -5 4 -10
-3 -6 -1 -10 5 -10 7 0 10 -7 7 -14 -4 -10 -1 -13 7 -10 15 6 29 -22 19 -38
-3 -7 -1 -8 5 -4 7 4 12 4 12 -1 0 -4 11 -21 25 -37 27 -32 35 -57 9 -32 -8 9
-18 16 -22 16 -4 0 6 -12 21 -26 17 -14 27 -31 23 -39 -3 -8 0 -15 6 -15 6 0
5 -6 -3 -17 -10 -11 -10 -14 -1 -9 8 5 12 1 13 -11 1 -10 3 -27 5 -38 1 -11 5
-31 7 -45 2 -14 6 -30 9 -35 3 -6 5 -22 4 -37 -1 -16 2 -28 6 -28 4 0 7 -8 6
-17 0 -10 3 -31 7 -48 8 -40 14 -71 25 -130 5 -27 12 -61 15 -75 3 -14 7 -41
10 -61 2 -20 8 -47 13 -60 4 -13 8 -38 7 -56 -1 -18 2 -30 7 -27 4 3 8 -1 8
-8 0 -16 47 -83 58 -83 4 0 6 -4 4 -10 -2 -5 2 -5 9 2 7 7 20 9 33 3 23 -8 83
16 87 35 1 6 6 21 12 35 5 14 11 39 13 55 4 33 12 70 14 70 1 0 3 15 5 34 2
19 7 37 12 40 8 6 9 13 15 68 2 24 18 21 18 -3 0 -8 5 -12 10 -9 9 6 14 -8 11
-28 -1 -5 3 -6 9 -2 5 3 13 -1 16 -9 3 -9 10 -13 16 -10 5 3 12 -3 15 -15 3
-12 9 -21 13 -21 12 0 125 -111 123 -121 -2 -4 4 -6 12 -3 18 7 20 -7 3 -26
-11 -12 -10 -12 3 -2 12 9 20 8 37 -4 12 -8 19 -20 16 -26 -4 -6 -2 -8 3 -5
13 8 53 -25 53 -44 0 -11 2 -11 10 1 8 13 10 12 10 -2 0 -10 6 -17 13 -15 6 1
11 -5 9 -13 -2 -8 0 -12 3 -8 11 11 47 -11 39 -24 -4 -6 -3 -8 4 -5 5 4 24 -1
41 -10 33 -19 43 -40 14 -28 -15 5 -16 4 -5 -6 8 -9 15 -10 23 -2 14 14 59 -6
59 -27 0 -13 1 -13 10 0 5 8 10 10 10 3 0 -6 13 -10 31 -9 16 1 32 -1 35 -6 3
-4 14 -4 24 2 25 14 34 13 24 -3 -5 -7 -1 -4 9 6 9 11 17 15 17 11 0 -5 4 -4
8 1 7 10 109 75 118 75 3 0 2 -4 -1 -10 -3 -5 -1 -10 5 -10 7 0 10 7 6 15 -5
15 26 39 38 28 3 -3 6 1 6 10 0 20 11 22 28 5 14 -14 44 -20 36 -7 -3 5 -9 7
-14 4 -4 -3 -13 2 -19 9 -13 16 2 32 19 21 6 -4 7 1 3 11 -4 11 -2 15 4 11 6
-4 14 0 17 9 4 10 13 14 28 10 13 -3 17 -3 11 0 -19 8 -16 27 3 20 8 -3 13 -2
9 3 -8 14 23 41 48 41 16 0 18 3 9 9 -10 6 -4 15 23 37 20 16 40 29 45 29 5 0
12 4 17 9 5 5 3 6 -4 2 -21 -12 -15 5 10 25 12 10 28 18 35 19 7 0 11 4 8 8
-3 5 5 18 17 29 37 31 43 33 44 10 1 -25 9 -69 21 -112 5 -16 8 -40 7 -53 -1
-12 3 -22 8 -22 6 0 8 -3 4 -6 -8 -8 22 -67 40 -77 7 -5 10 -13 7 -19 -4 -7
-2 -8 4 -4 6 4 21 2 33 -5 17 -9 20 -8 14 2 -6 9 -2 11 13 7 12 -4 22 -2 22 4
0 5 5 6 10 3 6 -3 10 -1 10 5 0 6 4 9 9 6 4 -3 13 6 19 19 7 14 16 25 22 25 6
0 9 4 5 9 -3 5 -1 12 4 16 5 3 8 14 6 25 -2 11 1 20 6 20 6 0 7 5 4 10 -3 6
-3 15 1 22 4 6 9 26 10 42 4 36 12 89 15 96 4 10 7 26 8 53 0 16 4 26 9 23 4
-2 7 12 7 32 -1 21 1 42 4 47 7 13 12 34 14 67 1 15 5 30 9 33 4 4 4 13 1 21
-3 8 -1 14 5 14 5 0 8 14 7 30 -1 17 1 30 6 30 5 0 6 7 3 15 -4 8 -1 21 5 29
6 7 8 16 4 19 -3 4 0 14 8 24 9 11 10 14 2 9 -10 -5 -11 -1 -4 16 5 13 16 22
25 22 18 -2 22 12 5 18 -7 2 -4 10 7 18 10 8 15 10 11 3 -4 -6 -3 -14 2 -18 6
-3 8 6 5 21 -4 20 -1 25 10 21 10 -4 13 -1 10 7 -3 7 2 20 10 29 8 8 12 18 8
22 -4 5 0 6 8 3 11 -4 16 1 18 15 0 12 6 23 12 25 5 2 10 9 10 15 0 7 11 24
24 39 14 14 22 29 19 32 -4 3 -2 6 4 6 5 0 15 12 21 26 7 14 17 22 22 19 6 -4
10 -3 9 2 -5 27 2 45 16 40 8 -4 17 -1 21 5 5 7 2 8 -6 3 -20 -12 -7 17 43 97
38 60 67 86 67 58 0 -5 -5 -10 -12 -10 -6 0 -8 -3 -4 -7 4 -5 14 1 22 11 8 11
14 14 14 8 0 -7 11 -12 25 -12 14 0 33 -4 43 -9 19 -11 57 -24 57 -20 0 1 11
-4 25 -11 14 -8 32 -14 40 -15 8 -1 32 -7 53 -14 33 -11 36 -15 25 -29 -11
-15 -11 -15 2 -5 9 6 25 10 35 8 11 -2 26 -4 34 -4 8 -1 11 -7 6 -18 -5 -14
-3 -15 6 -6 14 14 42 5 32 -11 -4 -7 -1 -7 9 1 8 7 18 10 22 6 3 -4 12 -8 19
-9 34 -6 193 -68 199 -78 4 -6 8 -7 8 -2 0 5 8 2 17 -5 14 -12 16 -12 9 0 -6
9 -5 12 5 9 8 -3 13 -11 12 -17 -2 -6 2 -11 7 -11 6 0 10 5 10 11 0 5 4 8 10
4 5 -3 7 -13 4 -23 -4 -13 -3 -14 4 -4 7 11 18 11 58 -1 27 -8 48 -19 47 -24
-1 -6 9 -8 22 -5 14 2 25 0 25 -5 0 -5 8 -9 18 -10 36 -3 57 -10 57 -21 0 -6
4 -14 8 -19 5 -4 7 -3 5 2 -2 8 6 17 15 14 13 -4 75 -3 74 1 -1 3 8 16 21 30
12 13 22 30 22 37 0 8 5 11 12 7 6 -4 8 -3 5 3 -3 5 -7 27 -9 48 -2 32 -11 45
-67 94 -35 31 -75 66 -89 79 -14 12 -29 22 -34 22 -5 0 -6 4 -3 10 3 5 0 10
-7 10 -7 0 -39 24 -71 53 -31 28 -73 66 -93 82 -20 17 -49 41 -65 55 -16 14
-43 36 -59 50 -17 14 -41 34 -54 45 -13 11 -47 40 -76 65 -111 94 -125 106
-157 136 -18 18 -40 34 -48 38 -8 3 -15 11 -16 18 0 7 -2 21 -4 30 -2 9 9 29
23 44 15 15 22 24 15 21 -7 -5 -9 0 -6 13 3 11 10 17 15 13 6 -3 8 0 6 8 -7
20 11 51 25 43 9 -5 9 -4 0 6 -9 10 -8 20 5 44 9 17 15 37 13 45 -2 9 3 12 15
7 14 -5 15 -4 4 9 -7 8 -8 15 -3 15 5 0 10 12 11 27 1 15 6 29 11 32 8 6 25
61 23 74 -1 4 3 7 8 7 5 0 9 3 9 8 -3 18 2 33 9 28 4 -2 8 8 7 22 0 19 5 26
15 24 11 -3 12 -1 4 8 -13 13 -7 53 6 45 5 -3 6 5 2 17 -4 16 -2 19 8 13 9 -5
11 -4 6 4 -4 6 -2 28 5 49 15 43 16 46 18 68 0 8 5 13 10 9 5 -3 13 0 17 6 4
8 3 9 -4 5 -7 -4 -10 3 -7 21 4 37 16 64 24 59 3 -2 6 9 5 26 -1 45 27 138 40
131 6 -4 5 0 -2 9 -12 15 -7 52 7 44 4 -3 5 11 3 31 -4 27 -1 34 8 28 9 -5 11
-4 6 3 -11 19 4 103 18 95 7 -4 6 -1 -1 9 -7 8 -10 18 -6 22 4 4 8 34 10 68 2
34 8 66 13 73 5 6 7 15 3 18 -3 4 -8 58 -9 119 -2 62 -6 129 -9 148 -3 19 -8
55 -11 80 -3 25 -10 49 -15 55 -5 5 -9 17 -9 27 0 48 -114 292 -157 336 -7 7
-13 17 -13 22 0 4 -44 53 -97 108 -178 181 -383 302 -685 403 -51 17 -104 33
-117 35 -28 6 -62 23 -44 24 6 0 9 9 6 23 l-6 22 20 -22 c11 -13 27 -23 35
-23 8 0 20 -6 27 -12 9 -8 11 -8 8 -2 -4 7 0 29 9 49 11 27 12 41 5 48 -6 6
-11 8 -11 4 0 -4 -9 -3 -21 3 -15 9 -24 8 -35 -1 -19 -16 -28 -6 -16 18 5 10
8 28 7 41 -2 26 7 28 29 7 8 -8 19 -15 25 -15 6 0 11 -6 11 -12 0 -25 35 38
38 69 3 26 0 31 -15 29 -10 -2 -25 0 -34 5 -10 5 -21 3 -29 -4 -10 -10 -11 -8
-7 8 8 29 38 174 44 211 8 59 -62 95 -113 59 -12 -8 -45 -37 -74 -65 -28 -27
-55 -50 -60 -50 -4 0 -10 -7 -14 -15 -8 -22 -19 -18 -38 15 -21 36 -32 37 -63
5 -34 -33 -31 -51 9 -66 l34 -12 -26 -21 c-15 -11 -32 -27 -39 -36 -10 -13
-11 -12 -7 6 5 20 -27 64 -46 64 -9 0 -51 -50 -42 -50 4 0 1 -4 -6 -9 -11 -6
-7 -13 16 -29 16 -12 32 -19 36 -15 3 3 6 4 6 0 0 -8 -50 -58 -51 -52 -1 3 -2
8 -3 13 -1 4 -9 18 -18 31 -16 23 -19 24 -44 11 -22 -12 -52 -58 -42 -64 43
-26 56 -38 52 -50 -3 -7 2 -20 11 -29 9 -10 11 -18 5 -22 -5 -3 -10 -3 -10 2
0 4 -26 9 -58 9 -31 1 -106 5 -167 9 -231 14 -682 1 -704 -20 -2 -3 -11 1 -19
8 -13 9 -14 9 -8 0 4 -7 3 -13 -1 -13 -5 0 -15 6 -22 13 -11 10 -13 10 -7 0 4
-7 2 -13 -3 -13 -17 0 -13 12 16 42 15 15 21 28 15 28 -7 0 -12 5 -12 11 0 6
7 8 17 5 10 -4 14 -4 11 0 -4 3 3 15 15 25 12 10 17 18 11 19 -7 0 -15 11 -18
24 -8 34 -40 39 -70 11 -18 -17 -21 -26 -13 -34 7 -7 7 -11 1 -11 -6 0 -23 13
-39 30 -25 26 -26 29 -7 25 12 -2 23 3 26 11 3 9 10 12 16 9 21 -13 9 26 -18
56 l-27 31 -27 -27 c-17 -16 -24 -33 -21 -43 4 -8 -10 -1 -30 18 -35 32 -48
48 -28 35 5 -3 17 2 25 11 9 9 24 13 33 10 14 -6 13 -3 -2 21 -9 16 -26 36
-38 46 -19 17 -21 17 -44 -5 -13 -12 -21 -28 -19 -35 8 -21 -5 -15 -33 15 -56
57 -163 142 -179 141 -9 0 -27 -4 -40 -9z"/>
<path d="M2015 5020 c-3 -5 -1 -10 4 -10 6 0 11 5 11 10 0 6 -2 10 -4 10 -3 0
-8 -4 -11 -10z"/>
<path d="M1155 2580 c-3 -5 -1 -10 4 -10 6 0 11 5 11 10 0 6 -2 10 -4 10 -3 0
-8 -4 -11 -10z"/>
<path d="M4856 2542 c-3 -5 1 -9 9 -9 8 0 12 4 9 9 -3 4 -7 8 -9 8 -2 0 -6 -4
-9 -8z"/>
<path d="M4826 2478 c3 -5 10 -6 15 -3 13 9 11 12 -6 12 -8 0 -12 -4 -9 -9z"/>
<path d="M1624 1590 c0 -13 4 -16 10 -10 7 7 7 13 0 20 -6 6 -10 3 -10 -10z"/>
<path d="M4400 1540 c-9 -6 -10 -10 -3 -10 6 0 15 5 18 10 8 12 4 12 -15 0z"/>
<path d="M4316 1482 c-3 -5 1 -9 9 -9 8 0 12 4 9 9 -3 4 -7 8 -9 8 -2 0 -6 -4
-9 -8z"/>
<path d="M1774 1356 c1 -8 5 -18 8 -22 4 -3 5 1 4 10 -1 8 -5 18 -8 22 -4 3
-5 -1 -4 -10z"/>
<path d="M4255 1340 c3 -5 8 -10 11 -10 2 0 4 5 4 10 0 6 -5 10 -11 10 -5 0
-7 -4 -4 -10z"/>
<path d="M1790 1306 c0 -2 7 -7 16 -10 8 -3 12 -2 9 4 -6 10 -25 14 -25 6z"/>
<path d="M1874 1169 c-3 -6 -2 -15 3 -20 5 -5 9 -1 9 11 0 23 -2 24 -12 9z"/>
<path d="M2403 562 c10 -10 14 -22 10 -27 -5 -4 -2 -5 5 -1 11 6 10 12 -4 27
-9 10 -19 19 -22 19 -3 0 2 -8 11 -18z"/>
<path d="M3610 539 c0 -5 5 -7 10 -4 6 3 10 8 10 11 0 2 -4 4 -10 4 -5 0 -10
-5 -10 -11z"/>
<path d="M3575 500 c3 -5 8 -10 11 -10 2 0 4 5 4 10 0 6 -5 10 -11 10 -5 0 -7
-4 -4 -10z"/>
<path d="M2496 478 c3 -5 10 -6 15 -3 13 9 11 12 -6 12 -8 0 -12 -4 -9 -9z"/>
<path d="M3513 465 c0 -8 4 -12 9 -9 5 3 6 10 3 15 -9 13 -12 11 -12 -6z"/>
<path d="M3473 433 c0 -9 4 -10 14 -2 7 6 13 12 13 14 0 1 -6 2 -13 2 -8 0
-14 -6 -14 -14z"/>
<path d="M3415 399 c-3 -4 2 -6 10 -5 21 3 28 13 10 13 -9 0 -18 -4 -20 -8z"/>
<path d="M3413 365 c0 -8 4 -12 9 -9 5 3 6 10 3 15 -9 13 -12 11 -12 -6z"/>
<path d="M2670 316 c0 -2 8 -10 18 -17 15 -13 16 -12 3 4 -13 16 -21 21 -21
13z"/>
<path d="M2670 281 c0 -6 4 -13 10 -16 6 -3 7 1 4 9 -7 18 -14 21 -14 7z"/>
<path d="M3255 231 c-3 -5 -2 -12 3 -15 5 -3 9 1 9 9 0 17 -3 19 -12 6z"/>
<path d="M2814 200 c0 -13 4 -16 10 -10 7 7 7 13 0 20 -6 6 -10 3 -10 -10z"/>
<path d="M3173 203 c1 -18 4 -20 17 -10 25 19 26 20 8 14 -9 -3 -19 -1 -21 6
-3 7 -4 2 -4 -10z"/>
<path d="M3210 180 c0 -5 5 -10 11 -10 5 0 7 5 4 10 -3 6 -8 10 -11 10 -2 0
-4 -4 -4 -10z"/>
<path d="M2895 170 c-4 -6 -10 -8 -15 -5 -5 3 -11 1 -14 -4 -8 -13 22 -7 36 7
7 7 9 12 6 12 -4 0 -10 -5 -13 -10z"/>
<path d="M2913 145 c0 -8 4 -12 9 -9 5 3 6 10 3 15 -9 13 -12 11 -12 -6z"/>
<path d="M3135 149 c-4 -6 -5 -12 -2 -15 2 -3 7 2 10 11 7 17 1 20 -8 4z"/>
<path d="M2945 140 c-3 -6 1 -7 9 -4 18 7 21 14 7 14 -6 0 -13 -4 -16 -10z"/>
<path d="M2988 143 c7 -3 16 -2 19 1 4 3 -2 6 -13 5 -11 0 -14 -3 -6 -6z"/>
<path d="M3080 140 c-9 -6 -10 -10 -3 -10 6 0 15 5 18 10 8 12 4 12 -15 0z"/>
<path d="M3015 131 c-3 -5 -2 -12 3 -15 5 -3 9 1 9 9 0 17 -3 19 -12 6z"/>
</g>
</svg>
