<?xml version="1.0" standalone="no"?>
<!DOCTYPE svg PUBLIC "-//W3C//DTD SVG 20010904//EN"
 "http://www.w3.org/TR/2001/REC-SVG-20010904/DTD/svg10.dtd">
<svg version="1.0" xmlns="http://www.w3.org/2000/svg"
 width="1172.000000pt" height="1172.000000pt" viewBox="0 0 1172.000000 1172.000000"
 preserveAspectRatio="xMidYMid meet">
<metadata>
Created by potrace 1.11, written by Peter Selinger 2001-2013
</metadata>
<g transform="translate(0.000000,1172.000000) scale(0.100000,-0.100000)"
fill="#000000" stroke="none">
<path d="M3992 10939 c-19 -12 -39 -34 -44 -48 -15 -34 -18 -81 -5 -81 5 0 3
-8 -4 -17 -12 -14 -12 -16 0 -8 11 6 13 3 9 -13 -4 -12 -2 -22 4 -22 5 0 7 -4
3 -9 -3 -5 -1 -13 5 -16 8 -5 7 -12 -2 -23 -11 -13 -11 -14 1 -7 11 6 13 3 9
-13 -3 -12 -1 -23 6 -26 7 -3 4 -11 -9 -21 -19 -16 -19 -16 -1 -13 22 4 33
-37 15 -59 -10 -11 -8 -12 7 -6 17 6 18 5 4 -12 -9 -11 -10 -16 -2 -11 6 4 12
4 13 -1 0 -4 2 -17 4 -28 2 -10 -1 -25 -7 -32 -8 -10 -7 -12 3 -8 9 3 15 -1
16 -12 1 -10 4 -30 7 -45 4 -17 2 -28 -4 -28 -5 0 -10 4 -10 8 0 5 -12 14 -26
20 -17 8 -23 9 -19 1 4 -6 1 -9 -6 -8 -8 1 -33 -2 -56 -6 -42 -7 -43 -8 -43
-49 0 -22 7 -52 15 -66 8 -14 19 -35 24 -47 5 -11 15 -24 22 -29 8 -5 9 -3 4
6 -6 10 -1 11 21 6 16 -4 24 -3 17 2 -9 5 -3 13 19 26 21 13 28 14 22 5 -10
-17 -15 -43 -6 -34 4 4 7 10 8 13 1 4 6 21 13 38 16 43 38 40 33 -4 -3 -19 -1
-32 4 -29 5 3 9 -8 10 -24 1 -15 -3 -26 -7 -23 -4 2 -2 -8 6 -23 24 -45 17
-73 -9 -37 -12 16 -76 26 -76 12 0 -4 -11 -8 -24 -8 -43 0 -52 -8 -48 -43 2
-18 4 -42 5 -54 0 -12 5 -19 9 -17 4 3 8 -2 8 -10 0 -9 5 -16 11 -16 5 0 8 -4
5 -9 -3 -4 3 -16 14 -26 13 -11 20 -14 20 -6 0 7 5 9 10 6 6 -3 10 0 10 7 0 9
3 9 10 -2 8 -13 10 -12 10 3 0 15 6 19 26 16 3 0 12 8 21 18 8 10 12 13 9 6
-4 -6 -2 -14 3 -17 10 -7 9 13 -2 31 -4 6 -3 14 3 18 6 4 8 10 5 15 -3 5 -2
11 3 14 5 3 9 -7 10 -22 1 -29 5 -48 17 -74 4 -10 5 -25 1 -33 -3 -8 0 -15 7
-15 8 0 8 -3 -2 -9 -7 -5 -9 -10 -3 -12 17 -6 18 -42 2 -46 -13 -4 -13 -3 0 6
13 9 13 11 -2 11 -10 0 -18 5 -18 10 0 12 -38 9 -59 -4 -10 -7 -12 -6 -6 4 6
10 4 11 -6 4 -14 -8 -29 -13 -61 -16 -12 -2 -14 -6 -7 -14 5 -6 9 -25 7 -40
-1 -16 4 -40 11 -53 15 -28 5 -42 -33 -44 -14 -1 -26 -6 -26 -10 0 -4 -6 -7
-12 -6 -7 1 -26 -3 -43 -10 -16 -7 -41 -15 -54 -17 -13 -3 -39 -11 -57 -19
-19 -8 -34 -12 -34 -9 0 2 -13 -2 -30 -11 -16 -8 -31 -15 -32 -15 -3 1 -29 -7
-55 -17 -10 -3 -20 -7 -23 -8 -6 -2 -51 -20 -95 -38 -16 -6 -32 -12 -35 -12
-23 -3 -356 -167 -435 -214 -37 -23 -70 -41 -74 -41 -5 0 -21 -11 -37 -25 -16
-14 -32 -25 -36 -25 -14 0 -158 -104 -273 -199 -73 -60 -255 -235 -255 -245 0
-2 -15 -20 -32 -39 -18 -19 -51 -58 -73 -87 -22 -29 -48 -61 -58 -72 -9 -10
-15 -18 -12 -18 3 0 -15 -30 -40 -67 -25 -37 -45 -73 -45 -79 0 -7 -7 -15 -16
-18 -9 -4 -14 -9 -11 -12 3 -4 -5 -23 -18 -44 -13 -21 -22 -40 -19 -42 2 -3
-2 -11 -11 -18 -8 -7 -15 -19 -15 -27 0 -7 -10 -33 -22 -56 -12 -23 -23 -46
-24 -52 -1 -5 -14 -41 -28 -79 -14 -38 -23 -72 -21 -77 3 -4 1 -9 -4 -11 -6
-1 -12 -15 -15 -30 -2 -15 -7 -31 -10 -36 -3 -5 -7 -21 -10 -36 -3 -15 -10
-42 -15 -59 -6 -18 -12 -48 -14 -67 -2 -20 -6 -40 -9 -45 -3 -6 -4 -18 -3 -27
2 -10 0 -18 -4 -18 -4 0 -7 -18 -6 -40 1 -22 -2 -40 -5 -40 -3 0 -8 -21 -9
-47 -5 -71 -9 -118 -11 -118 -1 0 -3 -10 -4 -22 -2 -13 1 -23 6 -23 5 0 5 -8
0 -17 -4 -10 -7 -70 -5 -133 3 -128 3 -135 3 -152 -1 -7 1 -30 3 -50 2 -23 0
-38 -7 -38 -7 0 -7 -3 -1 -8 6 -4 11 -11 11 -17 1 -5 4 -23 8 -38 5 -22 4 -27
-6 -21 -10 6 -10 5 -2 -7 6 -8 10 -22 9 -31 -2 -10 0 -18 3 -18 4 0 7 -20 7
-45 -1 -25 3 -45 7 -45 4 0 8 -5 8 -11 0 -5 -5 -7 -11 -3 -7 4 -6 -3 2 -17 7
-13 12 -25 11 -26 -1 -2 -2 -4 -1 -5 0 -2 2 -18 5 -37 7 -56 12 -80 20 -92 5
-8 3 -9 -7 -4 -11 6 -12 5 -1 -6 6 -7 12 -23 12 -36 0 -13 7 -40 15 -59 14
-34 14 -36 -3 -30 -14 5 -14 3 2 -9 11 -8 17 -15 13 -15 -3 0 -3 -10 2 -22 6
-17 4 -26 -8 -35 -14 -10 -14 -11 4 -10 15 2 19 -4 19 -28 0 -16 3 -32 7 -35
3 -3 9 -20 12 -38 5 -24 3 -31 -6 -27 -6 4 -5 1 4 -7 8 -7 23 -45 32 -84 10
-39 20 -81 23 -95 4 -13 6 -34 6 -46 0 -13 4 -20 9 -17 5 3 9 -4 9 -16 0 -14
-4 -19 -12 -15 -7 4 -5 0 4 -8 10 -8 15 -17 11 -20 -3 -4 -1 -7 6 -7 7 0 10
-4 6 -9 -3 -5 -1 -12 5 -16 6 -4 8 -11 4 -16 -3 -5 -10 -7 -15 -4 -15 10 -10
-2 8 -16 15 -12 16 -12 8 1 -4 8 -4 12 0 7 5 -4 10 -15 11 -25 3 -36 13 -71
23 -91 10 -18 9 -20 -6 -15 -10 3 -7 -1 6 -9 16 -10 20 -16 12 -21 -8 -6 -9
-12 -2 -20 8 -10 89 -235 90 -249 0 -2 1 -7 20 -66 6 -18 8 -38 4 -44 -3 -5
-2 -7 3 -4 6 3 16 -15 23 -41 8 -26 18 -53 24 -59 5 -7 6 -13 2 -13 -4 0 0
-12 10 -26 9 -15 12 -24 6 -20 -5 4 -4 -6 4 -20 8 -15 12 -31 9 -36 -3 -4 0
-8 6 -8 6 0 9 -4 5 -9 -3 -5 2 -16 10 -24 18 -19 20 -41 3 -32 -7 4 -5 0 4 -8
10 -8 15 -17 11 -20 -3 -4 -1 -7 5 -7 7 0 12 -9 12 -19 0 -11 7 -32 15 -48 8
-15 27 -59 41 -97 22 -56 24 -70 13 -78 -11 -7 -9 -8 5 -6 10 2 21 -3 24 -11
3 -10 0 -12 -12 -8 -10 4 -15 3 -11 -3 3 -6 13 -10 21 -10 11 0 13 -6 8 -22
-3 -13 -3 -20 1 -16 10 9 37 -41 29 -53 -3 -5 -1 -9 4 -9 6 0 13 -7 16 -16 3
-8 2 -12 -4 -9 -6 3 -10 2 -10 -4 0 -5 8 -11 17 -13 14 -3 13 -7 -10 -31 -14
-16 -31 -26 -36 -22 -7 4 -8 0 -4 -11 5 -14 3 -16 -11 -11 -10 4 -15 3 -11 -3
3 -6 1 -10 -5 -10 -6 0 -9 -3 -7 -7 3 -5 -17 -24 -43 -43 -27 -19 -46 -38 -44
-42 3 -5 -1 -8 -8 -8 -8 0 -36 -20 -62 -44 -26 -25 -62 -56 -80 -70 -18 -13
-52 -43 -76 -65 -24 -22 -48 -37 -53 -34 -6 3 -7 1 -3 -5 4 -7 0 -12 -10 -12
-10 0 -14 -3 -11 -6 4 -4 -14 -22 -38 -41 -25 -19 -45 -39 -45 -45 0 -6 -3 -8
-7 -5 -3 4 -19 -7 -35 -23 -15 -17 -33 -30 -38 -30 -6 0 -10 -5 -10 -11 0 -5
-5 -7 -12 -3 -6 4 -8 3 -5 -3 4 -6 -6 -19 -21 -29 -15 -9 -35 -26 -44 -37 -10
-11 -18 -17 -18 -14 0 4 -13 -6 -29 -21 -59 -55 -86 -79 -93 -81 -4 -1 -23
-16 -41 -34 -19 -17 -53 -48 -76 -67 -22 -19 -60 -52 -84 -73 -23 -20 -45 -37
-49 -37 -5 0 -8 -7 -8 -16 0 -8 -5 -12 -10 -9 -5 3 -10 1 -10 -5 0 -7 -7 -10
-14 -7 -11 4 -13 1 -9 -11 3 -9 3 -14 -1 -10 -5 4 -21 -7 -37 -23 -16 -16 -29
-26 -29 -22 0 4 -5 0 -11 -9 -5 -10 -17 -18 -25 -18 -8 0 -13 -3 -11 -7 3 -5
-7 -17 -20 -28 -14 -11 -44 -37 -67 -57 -22 -21 -45 -38 -49 -38 -5 0 -5 -4
-2 -10 3 -5 1 -10 -5 -10 -6 0 -8 -5 -5 -10 3 -6 1 -10 -6 -10 -7 0 -10 -3 -7
-6 4 -3 2 -19 -2 -35 -5 -18 -5 -41 0 -55 7 -18 7 -23 -1 -18 -6 3 -3 -8 6
-26 12 -23 13 -30 3 -24 -7 4 -1 -7 15 -25 15 -18 27 -39 27 -47 0 -9 4 -12
10 -9 5 3 10 -1 10 -10 0 -11 5 -15 14 -12 8 3 16 2 18 -3 3 -8 29 -16 61 -19
5 -1 5 -6 1 -12 -5 -8 -1 -8 13 0 11 5 32 8 47 5 14 -2 26 0 26 6 0 14 37 12
43 -2 3 -8 6 -5 6 5 1 10 5 16 10 13 5 -4 11 -1 13 5 2 5 18 11 35 11 18 1 30
5 27 10 -3 4 6 8 20 8 14 0 26 5 26 12 0 6 3 9 6 6 3 -4 21 0 40 8 27 11 34
11 34 2 0 -9 3 -8 10 2 5 8 13 15 17 15 4 1 18 7 31 14 13 7 30 10 37 7 8 -3
15 0 18 7 2 6 22 11 44 11 23 1 41 6 40 11 -1 6 8 9 21 8 12 -2 22 1 22 6 0
13 48 31 67 24 10 -4 14 -2 10 4 -4 6 2 13 13 16 10 3 21 0 24 -7 2 -6 5 -3 5
8 1 15 4 16 15 7 11 -9 16 -9 22 0 5 8 3 9 -6 4 -9 -6 -11 -4 -5 4 4 7 16 11
26 8 11 -3 19 0 19 5 0 6 7 5 16 -2 8 -8 14 -9 13 -4 -4 21 2 28 11 14 8 -12
10 -12 10 5 l1 20 16 -20 c13 -16 15 -17 10 -3 -6 16 3 23 26 19 4 0 7 3 7 9
0 6 3 9 8 9 4 -1 9 0 12 1 10 3 45 11 58 12 6 1 12 5 12 10 0 4 3 7 8 6 4 -1
17 3 29 10 13 7 23 10 23 6 0 -3 6 -1 13 5 8 6 17 8 20 4 4 -3 12 -1 19 4 18
14 80 34 74 24 -3 -4 1 -8 8 -8 8 0 12 6 10 12 -5 11 0 13 46 17 11 1 20 6 20
10 0 4 3 7 8 6 4 -1 17 3 30 10 12 7 22 11 22 8 0 -3 16 2 36 10 30 13 38 13
45 2 7 -10 9 -9 9 5 0 10 5 15 10 12 5 -3 10 -1 10 5 0 6 6 10 13 9 13 -2 24
1 119 39 20 8 28 8 32 -1 2 -7 5 -3 5 7 1 11 4 16 7 13 4 -3 15 -2 25 3 12 7
20 7 24 0 8 -13 25 -13 25 1 0 5 -4 7 -10 4 -5 -3 -10 -1 -10 6 0 7 11 10 30
7 22 -3 29 -1 26 8 -3 9 3 11 20 8 13 -2 24 0 24 5 0 13 33 7 37 -6 2 -6 -1
-15 -8 -19 -9 -5 -10 -2 -6 9 4 11 2 14 -9 10 -23 -9 3 -32 28 -25 18 4 20 2
16 -16 -4 -12 -1 -20 5 -19 5 1 14 -9 18 -23 4 -14 8 -20 8 -15 1 6 14 -16 30
-48 15 -31 31 -54 35 -50 4 5 6 4 5 -2 -2 -5 2 -20 9 -32 6 -12 9 -30 6 -40
-5 -15 -4 -16 5 -3 9 13 12 12 17 -7 4 -13 10 -23 14 -23 4 0 11 -7 14 -16 4
-10 2 -13 -7 -8 -6 4 -2 -3 10 -15 12 -11 34 -42 49 -68 15 -27 34 -57 43 -67
13 -16 14 -18 1 -12 -8 4 -6 0 5 -9 17 -14 18 -17 5 -26 -12 -9 -12 -10 3 -5
12 4 20 -1 26 -17 5 -12 7 -25 4 -30 -2 -4 -1 -6 4 -5 4 2 9 -1 10 -6 1 -5 5
-12 10 -15 18 -14 48 -54 33 -46 -8 4 -5 -2 7 -14 13 -12 23 -26 23 -31 0 -5
6 -15 13 -22 27 -27 56 -76 50 -82 -3 -3 -1 -6 6 -6 8 0 11 -7 7 -15 -3 -8 -2
-14 2 -14 20 3 32 -2 27 -11 -4 -6 -11 -8 -16 -5 -15 10 -10 -2 8 -16 11 -10
14 -10 9 -1 -4 6 -3 12 3 12 5 0 13 -10 17 -22 4 -13 10 -25 14 -28 3 -3 21
-27 39 -53 24 -36 30 -52 22 -60 -14 -14 -14 -27 -1 -27 6 0 9 5 8 11 -2 6 3
14 10 16 6 3 12 -2 12 -11 0 -9 5 -16 11 -16 5 0 7 -4 4 -10 -3 -5 -1 -10 6
-10 7 0 10 -3 7 -6 -3 -3 4 -16 16 -29 32 -36 47 -55 42 -55 -3 0 8 -15 25
-32 16 -18 29 -36 29 -41 0 -5 7 -15 15 -24 8 -8 12 -20 8 -26 -3 -7 -3 -9 2
-5 8 8 35 -15 35 -30 0 -6 6 -13 13 -15 9 -4 8 -8 -3 -17 -13 -10 -13 -11 2
-6 12 4 24 -3 35 -22 10 -15 29 -40 43 -55 14 -16 25 -33 25 -38 0 -4 9 -15
20 -23 11 -8 20 -20 20 -28 1 -7 7 -12 14 -10 7 1 10 -2 6 -8 -3 -5 -2 -10 4
-10 5 0 8 -9 6 -20 -2 -12 2 -20 10 -20 18 0 28 -31 15 -44 -8 -8 -9 -5 -5 9
5 16 5 17 -3 5 -13 -17 -5 -33 12 -27 8 3 12 -3 11 -16 -1 -12 3 -25 9 -29 7
-5 6 -8 -3 -8 -11 0 -11 -3 0 -17 10 -11 10 -14 2 -9 -7 4 -13 2 -13 -3 0 -6
5 -11 10 -11 6 0 10 -12 10 -26 0 -17 4 -23 13 -18 7 5 6 0 -3 -11 -12 -14
-12 -19 -2 -23 10 -3 10 -7 0 -20 -11 -13 -11 -14 1 -7 11 6 13 2 9 -19 -3
-14 -2 -26 3 -26 4 0 6 -9 4 -20 -2 -11 0 -20 6 -20 5 0 9 -7 9 -16 0 -9 -5
-12 -12 -8 -7 4 -6 -1 3 -12 9 -10 14 -25 12 -31 -3 -7 -1 -13 4 -13 4 0 8
-10 9 -22 0 -13 2 -36 5 -53 3 -23 0 -29 -11 -27 -8 2 -11 0 -7 -5 5 -4 14 -8
20 -8 15 0 17 -35 3 -53 -6 -9 -6 -12 3 -10 12 3 20 -15 23 -49 1 -7 6 -13 11
-13 6 0 7 -3 4 -7 -4 -3 4 -21 18 -38 13 -18 21 -35 18 -39 -4 -3 -2 -6 4 -6
5 0 20 -9 32 -19 16 -14 18 -21 9 -25 -7 -3 -3 -3 9 -1 12 3 24 1 28 -5 3 -6
11 -8 16 -5 5 4 9 -2 9 -12 0 -15 2 -16 10 -3 8 13 10 12 10 -4 0 -20 0 -20
15 0 13 17 14 17 15 2 0 -10 5 -18 11 -18 5 0 7 4 4 10 -4 6 7 9 27 7 18 -2
39 3 46 10 20 20 37 16 21 -4 -13 -16 -12 -17 3 -5 10 8 17 17 16 20 -2 19 3
32 13 32 5 0 7 -5 3 -12 -4 -7 -3 -8 4 -4 7 4 12 16 12 28 0 13 5 18 14 15 8
-3 13 1 13 11 0 44 4 62 12 62 5 0 7 -12 5 -27 -5 -27 -4 -27 9 -8 14 18 13
45 -2 45 -4 0 -7 9 -7 19 0 24 22 10 31 -20 4 -10 11 -19 17 -19 14 0 128
-115 128 -129 0 -7 5 -9 10 -6 6 3 10 -2 10 -11 0 -10 3 -14 7 -11 3 4 15 -5
25 -20 10 -16 18 -24 18 -19 0 5 9 -1 20 -14 19 -22 19 -24 3 -44 -18 -21 -18
-21 4 -2 23 19 23 19 52 -10 16 -16 56 -54 89 -84 40 -37 57 -59 51 -66 -6 -8
-1 -10 18 -6 16 2 25 1 21 -3 -5 -5 8 -19 27 -32 28 -19 34 -29 31 -49 -3 -14
-1 -22 5 -19 5 4 7 11 4 16 -4 5 0 9 8 9 14 0 69 -53 69 -67 0 -4 2 -10 5 -13
4 -3 3 1 -1 8 -4 6 -2 12 3 12 6 0 11 -4 11 -10 0 -5 7 -10 16 -10 8 0 12 -4
9 -10 -3 -5 -1 -10 5 -10 7 0 10 -6 7 -14 -4 -10 0 -12 14 -9 10 3 19 0 19 -6
0 -6 7 -11 15 -11 8 0 15 -4 15 -8 0 -5 11 -15 25 -22 18 -10 24 -19 20 -34
-3 -12 -2 -15 1 -8 3 6 10 12 15 12 6 0 7 -5 3 -12 -4 -7 -3 -8 4 -4 7 4 17 2
24 -4 29 -24 107 -80 112 -80 6 0 37 -24 62 -48 7 -7 16 -13 19 -12 21 1 25
-1 19 -12 -5 -8 -2 -9 10 -5 12 5 19 0 26 -16 5 -12 9 -16 9 -8 1 11 6 10 26
-3 13 -9 32 -16 41 -16 14 0 15 -2 3 -17 -13 -15 -12 -15 5 -6 13 7 26 6 48
-5 17 -8 43 -15 58 -16 16 0 26 -4 24 -8 -6 -9 61 -2 77 8 6 4 15 0 20 -7 7
-11 9 -11 9 3 0 11 6 16 19 13 11 -2 25 3 32 11 9 11 15 12 26 2 11 -9 13 -8
11 3 -2 8 3 13 10 11 6 -1 12 3 12 9 0 5 5 7 10 4 6 -3 10 -1 10 5 0 7 7 10
15 6 8 -3 14 -1 12 5 -3 12 118 79 136 75 6 -1 9 -1 5 1 -5 3 -8 8 -8 12 0 11
50 32 60 26 4 -3 7 3 6 13 0 9 6 17 14 17 8 0 27 13 43 28 23 24 30 26 50 17
20 -10 21 -10 4 3 -12 10 -14 17 -8 22 6 3 11 3 11 -1 0 -4 9 5 21 20 11 14
26 26 34 26 7 0 15 5 17 12 5 13 28 2 28 -13 0 -6 -4 -8 -8 -5 -5 3 -9 -2 -9
-10 0 -11 6 -9 24 8 27 26 28 26 7 24 -9 0 -19 5 -22 13 -3 8 0 11 6 7 6 -4
16 3 22 14 6 12 17 19 24 17 7 -3 19 -1 27 5 11 8 10 9 -3 4 -10 -3 -18 -1
-18 4 0 6 4 10 9 10 4 0 23 14 40 31 18 17 39 28 46 25 9 -3 12 0 9 8 -7 18
61 70 77 60 8 -5 9 -3 4 5 -9 15 41 71 64 71 8 0 12 3 9 6 -8 7 82 90 94 86 4
-1 7 2 6 6 -4 14 91 104 102 97 6 -4 7 1 3 12 -6 16 -4 16 17 -2 l23 -20 -13
22 c-13 19 -10 25 31 66 32 32 51 44 69 42 14 -1 30 2 36 7 8 5 14 3 18 -7 3
-9 2 -13 -3 -10 -5 3 -13 1 -16 -5 -4 -6 -3 -10 2 -9 15 3 28 -2 48 -17 17
-13 18 -16 5 -25 -13 -9 -12 -10 2 -5 10 3 20 1 23 -4 4 -6 15 -10 26 -10 13
0 18 -4 13 -12 -4 -6 -3 -8 3 -5 6 4 36 9 68 12 32 2 64 10 71 16 7 6 18 8 24
4 6 -4 9 -1 8 6 -2 6 3 14 11 16 10 4 11 -1 7 -18 -6 -20 -5 -21 4 -6 6 9 9
21 6 26 -3 5 5 20 18 34 29 31 67 108 68 139 1 13 6 29 11 35 5 7 7 13 4 13
-2 0 1 28 8 62 8 34 11 66 9 70 -3 4 3 8 13 9 11 0 13 3 5 6 -10 4 -10 8 0 21
9 11 9 14 1 9 -9 -6 -10 -1 -3 20 8 26 15 61 24 121 2 13 8 28 15 35 6 6 11
16 11 21 0 6 -5 4 -11 -4 -8 -12 -9 -9 -4 10 12 48 17 75 18 87 0 7 4 10 9 7
4 -3 8 2 8 10 0 8 4 18 10 21 6 4 7 -1 4 -12 -5 -14 -4 -15 4 -4 6 8 8 19 6
26 -7 16 22 38 38 29 11 -6 11 -5 0 8 -11 13 -9 19 10 35 13 10 28 28 35 38 6
11 16 19 22 18 6 -2 8 3 5 10 -2 7 4 21 15 31 11 10 18 23 15 27 -5 8 18 14
39 10 5 -1 6 3 2 9 -3 6 -11 7 -17 4 -7 -5 -8 -2 -4 5 5 7 14 10 22 7 8 -3 14
-1 14 4 0 6 -6 10 -12 10 -7 0 -2 7 10 16 12 8 20 20 17 25 -4 5 -1 9 5 9 6 0
16 11 22 25 6 14 15 25 20 25 5 0 7 -4 3 -9 -3 -5 -1 -12 4 -16 6 -3 8 5 5 20
-3 15 0 25 7 25 7 0 10 3 6 6 -3 4 4 15 16 26 12 11 15 16 7 12 -9 -4 -6 2 5
13 11 11 27 31 35 43 8 13 23 31 32 41 9 9 13 21 10 25 -4 4 1 4 10 1 13 -5
15 -2 11 11 -6 15 -5 16 13 3 18 -14 18 -14 2 3 -15 17 -15 20 6 40 11 11 28
34 36 49 8 16 24 40 37 53 12 13 20 24 17 24 -3 0 1 7 8 15 30 33 38 45 32 45
-4 0 3 8 14 19 12 10 19 21 15 25 -3 3 0 6 7 6 7 0 11 3 7 6 -3 4 1 13 9 21 8
8 12 19 9 24 -6 8 8 13 27 10 4 0 5 6 1 15 -3 9 -2 19 3 23 13 9 68 94 69 105
0 5 6 11 14 14 9 3 11 0 6 -8 -5 -9 -4 -11 4 -6 6 4 8 12 5 18 -6 9 9 47 29
76 8 10 13 10 26 0 14 -11 14 -11 3 3 -10 13 -9 22 2 44 8 15 18 31 23 34 4 3
19 28 33 55 14 27 33 51 43 54 15 4 16 7 5 13 -11 7 -10 11 2 19 8 5 11 10 7
10 -5 0 -1 7 7 16 9 8 16 22 16 30 0 8 4 14 9 14 5 0 13 9 16 20 3 11 14 20
23 21 11 0 12 3 5 6 -7 2 -13 9 -13 15 0 6 6 8 14 5 9 -4 13 2 12 16 -1 12 4
21 11 20 7 -2 10 3 7 10 -2 7 4 22 14 33 10 10 16 26 14 33 -3 8 0 11 7 7 6
-4 11 0 11 11 0 14 2 15 9 4 7 -11 9 -11 14 0 4 10 6 10 6 2 1 -7 12 -13 26
-13 23 0 31 -13 26 -43 -1 -5 3 -6 8 -3 5 3 7 16 5 29 -2 12 -2 16 2 10 3 -7
15 -13 25 -13 14 0 18 -4 13 -13 -6 -9 -4 -9 8 1 10 8 19 9 22 3 4 -5 -2 -14
-11 -20 -10 -6 -13 -11 -8 -11 6 0 16 5 22 11 7 7 19 8 30 4 10 -4 25 -9 33
-11 45 -9 55 -13 53 -22 -1 -5 6 -8 16 -5 10 3 22 0 25 -6 4 -5 13 -8 21 -4
10 3 15 -1 15 -13 0 -13 3 -15 8 -7 6 10 19 9 55 -5 26 -10 44 -22 40 -27 -5
-4 -3 -5 4 -1 14 8 113 -22 113 -34 0 -5 8 -6 19 -3 10 2 24 -2 32 -9 8 -7 26
-13 42 -13 15 1 27 -2 27 -5 0 -7 80 -35 93 -32 4 1 7 -3 7 -9 0 -6 7 -9 15
-6 8 4 17 2 20 -4 4 -5 10 -7 15 -4 5 3 15 -2 23 -10 12 -11 17 -12 20 -2 4 9
6 9 6 -1 1 -7 6 -10 11 -7 6 3 10 1 10 -4 0 -6 -4 -11 -10 -11 -5 0 -10 -5
-10 -12 0 -6 9 -3 20 7 18 16 24 14 22 -6 -1 -3 5 -6 13 -6 8 0 12 4 9 9 -10
15 9 8 23 -9 8 -10 12 -12 8 -6 -4 9 -1 11 9 7 9 -3 16 -10 16 -14 0 -5 9 -7
20 -5 11 2 20 0 20 -5 0 -4 7 -11 16 -14 9 -4 13 -2 8 5 -4 7 -1 10 7 7 8 -3
13 -11 11 -17 -1 -7 2 -10 8 -6 13 8 90 -13 90 -26 0 -5 6 -9 13 -8 33 4 47
-2 48 -23 1 -17 2 -19 6 -5 5 18 15 22 27 9 4 -4 11 -7 14 -8 29 -3 69 -20 80
-33 8 -9 11 -11 8 -5 -3 7 3 9 19 6 14 -2 25 -8 25 -13 0 -5 14 -9 30 -9 17 0
30 -5 30 -10 0 -6 8 -10 18 -8 9 2 16 -2 15 -7 -1 -6 14 -10 33 -10 25 1 34
-3 34 -14 0 -13 2 -13 9 -3 6 11 10 10 15 -3 5 -14 9 -15 21 -5 12 10 15 9 15
-4 0 -9 4 -16 10 -16 5 0 7 8 3 17 -5 14 -3 15 7 6 7 -6 19 -9 27 -6 8 3 19 0
24 -8 7 -11 9 -10 9 6 l1 20 16 -20 c12 -15 14 -16 10 -3 -5 14 10 28 33 32
11 2 62 46 54 46 -5 0 -2 5 6 10 8 5 15 13 16 17 4 41 18 82 26 77 7 -5 7 -1
0 12 -6 11 -7 27 -1 41 6 15 5 23 -2 23 -6 0 -9 9 -6 20 3 11 1 20 -5 20 -5 0
-8 5 -6 12 2 6 -11 25 -30 42 -19 17 -50 46 -69 63 -19 18 -37 33 -39 33 -4 0
-28 21 -88 75 -20 18 -82 70 -140 118 -53 44 -111 94 -137 119 -15 16 -30 28
-33 28 -3 0 -18 12 -33 26 -15 14 -45 40 -67 58 -21 17 -54 46 -72 63 -19 18
-37 33 -40 33 -3 0 -15 10 -28 23 -13 12 -40 35 -59 52 -19 16 -33 34 -30 39
4 5 1 6 -4 3 -6 -4 -25 5 -41 21 -17 15 -44 38 -61 52 -16 14 -48 42 -71 62
-22 21 -45 38 -50 38 -6 0 -10 8 -10 17 0 9 -3 14 -6 10 -3 -3 -17 4 -32 16
-118 100 -171 150 -167 157 3 5 -4 7 -15 5 -13 -2 -20 1 -20 11 0 8 -4 12 -10
9 -5 -3 -10 1 -10 9 0 9 -6 16 -14 16 -8 0 -17 8 -21 18 -7 20 -6 28 4 25 4
-1 7 8 7 20 -1 12 4 22 11 22 6 0 15 4 20 8 4 5 3 7 -4 5 -15 -4 -17 3 -9 30
4 12 11 20 15 17 5 -2 8 3 8 13 -1 9 4 28 10 42 19 42 26 65 24 74 -1 5 6 6
15 2 14 -5 15 -4 5 8 -8 10 -9 16 -1 21 6 3 8 11 5 16 -4 5 -2 9 2 9 5 0 9 9
10 21 1 12 10 28 20 36 10 8 11 11 3 7 -12 -7 -13 -5 -3 8 7 8 10 18 6 21 -3
4 -1 7 5 7 6 0 9 6 6 14 -3 8 -1 17 5 21 6 3 11 12 11 19 0 8 8 31 17 52 9 22
17 41 18 44 1 3 5 17 9 32 5 16 13 25 19 21 6 -3 7 -1 3 6 -8 13 2 53 12 47 4
-2 7 8 8 22 0 34 7 55 18 64 5 3 10 18 12 34 2 15 7 30 12 33 5 3 8 14 6 24
-1 9 2 17 7 17 4 0 6 6 3 14 -3 8 0 17 5 21 6 3 9 11 6 16 -4 5 2 9 12 10 11
0 13 3 5 6 -8 3 -10 9 -3 16 10 13 11 17 11 43 0 9 5 12 13 8 9 -5 9 -4 0 6
-9 9 -9 19 0 39 6 14 14 28 17 31 3 3 6 18 8 35 2 16 7 32 10 35 4 3 9 16 10
30 2 14 8 30 13 36 5 6 6 14 2 18 -4 3 2 13 13 22 10 8 13 13 7 9 -7 -3 -13
-2 -13 4 0 5 6 12 13 14 9 4 8 6 -2 6 -10 1 -11 4 -2 15 7 8 14 29 16 46 3 18
12 39 22 47 10 8 12 12 6 8 -8 -3 -13 0 -13 8 0 8 7 17 15 21 8 3 12 12 9 21
-9 24 5 67 19 59 9 -5 9 -4 1 5 -12 13 -7 54 5 47 4 -3 6 11 6 30 -1 19 2 34
7 34 5 0 7 4 3 9 -3 5 0 13 6 17 8 4 7 9 -2 15 -10 6 -11 9 -1 9 7 0 12 13 12
29 0 17 4 32 9 35 5 3 9 17 10 31 3 47 4 55 11 55 3 0 7 12 8 28 1 15 4 38 7
52 3 14 8 40 11 57 4 18 10 31 14 28 4 -2 5 7 2 22 -3 18 -1 24 7 19 6 -4 11
-2 11 3 0 6 -5 11 -11 11 -7 0 -8 7 -4 18 10 25 18 64 17 85 0 9 2 15 7 13 4
-3 5 11 3 30 -3 22 0 34 8 34 9 0 9 4 2 13 -6 7 -7 18 -3 26 5 7 6 22 3 34 -3
11 -1 18 4 15 5 -3 10 22 11 56 2 70 10 199 13 206 3 8 -1 282 -5 325 -2 22
-7 76 -11 120 -4 44 -8 94 -8 112 -1 17 -4 29 -8 26 -8 -4 -9 8 -11 70 -1 15
-4 27 -9 27 -4 0 -6 15 -4 34 1 19 -1 33 -6 30 -4 -3 -8 1 -9 8 -2 34 -11 73
-18 78 -4 3 -7 15 -6 28 1 13 -2 25 -7 28 -4 3 -6 10 -3 15 4 5 2 9 -3 9 -5 0
-12 12 -15 28 -3 15 -11 41 -18 57 -7 17 -13 32 -13 35 -1 3 -4 10 -7 15 -7
11 -18 56 -18 69 1 5 -4 12 -9 15 -5 3 -29 47 -53 96 -24 50 -47 93 -52 96 -4
3 -9 15 -10 27 0 11 -4 19 -7 17 -3 -2 -21 22 -40 53 -18 31 -36 59 -39 62
-12 10 -71 89 -71 95 0 6 -56 71 -82 94 -10 8 -18 19 -18 23 0 13 -174 181
-265 256 -124 102 -125 102 -125 97 0 -3 -10 4 -22 15 -29 28 -254 170 -268
170 -5 0 -10 5 -10 10 0 6 -9 10 -19 10 -11 0 -21 4 -23 9 -2 7 -189 100 -313
156 -80 36 -179 75 -191 75 -8 0 -14 5 -14 12 0 6 -3 9 -6 5 -5 -5 -58 10
-104 30 -8 3 -19 7 -25 8 -5 1 -32 10 -60 20 -27 9 -54 18 -60 19 -5 2 -30 9
-55 16 -25 8 -48 14 -52 16 -5 1 -9 2 -10 3 -2 2 -14 5 -28 7 -13 3 -29 10
-35 16 -7 8 -5 9 9 4 14 -5 16 -3 9 6 -9 13 -9 32 0 79 4 20 1 25 -17 26 -23
1 -73 11 -94 18 -7 3 -20 -4 -29 -15 -17 -20 -35 -18 -28 3 8 21 17 71 17 90
-1 9 3 17 8 17 5 0 7 9 5 20 -2 11 0 20 5 20 4 0 6 9 3 20 -3 11 -1 20 4 20 6
0 10 -12 9 -27 -1 -24 7 -33 54 -58 34 -19 54 -36 52 -45 -2 -8 0 -11 5 -7 4
5 8 12 9 15 2 21 43 93 59 104 7 5 6 8 0 8 -6 0 -9 14 -7 33 3 26 -1 34 -22
44 -20 8 -24 8 -19 0 5 -9 3 -9 -8 -1 -8 5 -21 10 -29 9 -8 -1 -27 2 -43 6
-15 4 -25 4 -23 0 8 -12 -11 -34 -23 -26 -9 5 -9 10 0 21 6 8 8 14 4 14 -4 0
-1 8 6 17 8 9 9 14 2 10 -8 -5 -9 1 -4 20 6 19 14 27 27 26 18 -1 18 -1 2 11
-20 15 -24 31 -5 20 9 -5 9 -4 1 5 -13 14 -7 54 7 46 4 -3 6 -12 3 -19 -5 -13
31 -43 57 -48 18 -4 38 -22 33 -30 -2 -3 6 -4 18 0 16 4 19 2 13 -8 -5 -8 -4
-11 3 -6 6 4 8 14 5 23 -5 12 -3 14 7 8 9 -5 11 -4 6 3 -7 12 17 56 25 48 2
-3 5 21 6 53 2 47 -1 57 -15 58 -44 3 -62 8 -62 16 0 4 -6 5 -12 0 -7 -4 -23
-6 -35 -4 -15 1 -23 -3 -23 -13 0 -8 -4 -17 -10 -21 -5 -3 -7 9 -5 32 3 21 7
55 9 76 3 20 8 43 12 49 5 7 9 19 10 28 17 114 24 140 37 140 7 0 6 4 -3 10
-9 6 -11 13 -5 18 6 4 11 18 12 32 5 51 12 91 17 99 10 15 -38 75 -74 93 -66
33 -118 19 -193 -54 -10 -10 -22 -18 -28 -18 -6 0 -7 -4 -4 -10 6 -9 -8 -14
-27 -11 -5 0 -7 -2 -5 -7 2 -7 -70 -82 -78 -82 -3 0 -22 -18 -44 -40 -22 -22
-44 -40 -50 -40 -5 0 -13 -9 -16 -20 -3 -11 -13 -20 -21 -20 -8 0 -14 -5 -14
-12 0 -6 -3 -9 -6 -5 -3 3 -2 12 2 19 16 26 12 39 -32 83 -24 25 -45 45 -47
45 -12 0 -75 -58 -70 -64 3 -3 1 -6 -6 -6 -7 0 -17 -13 -22 -30 -7 -18 -16
-27 -22 -24 -7 4 -1 -5 13 -18 14 -14 28 -24 32 -22 4 3 13 -4 20 -14 8 -10
25 -17 44 -17 22 0 30 -4 26 -13 -2 -7 -7 -11 -9 -8 -3 3 -20 -11 -39 -30 -18
-20 -38 -33 -44 -29 -5 3 -10 -1 -10 -10 0 -9 -7 -24 -16 -32 -14 -14 -15 -13
-12 18 3 19 0 39 -6 45 -6 6 -23 25 -39 43 -25 29 -57 42 -57 23 0 -5 -11 -14
-25 -20 -13 -6 -34 -31 -47 -54 -24 -47 -31 -71 -18 -63 4 3 13 -2 20 -10 7
-8 17 -12 22 -9 5 3 12 -4 15 -16 4 -16 8 -18 14 -8 7 10 9 9 9 -4 0 -10 5
-18 11 -18 5 0 8 4 5 8 -2 4 4 9 15 9 23 2 24 -4 4 -23 -8 -9 -20 -12 -26 -8
-7 4 -9 3 -6 -3 3 -5 -8 -23 -26 -39 -49 -46 -57 -49 -48 -17 6 22 3 33 -13
50 -12 12 -30 31 -40 42 -23 25 -39 26 -60 5 -9 -8 -16 -12 -16 -8 0 10 -32
-34 -58 -78 -17 -31 -19 -38 -6 -38 8 0 13 -4 9 -9 -3 -5 0 -13 6 -17 8 -4 9
-3 5 4 -4 7 -4 12 1 12 12 0 40 -20 28 -20 -5 0 3 -7 18 -15 20 -10 35 -12 54
-4 23 8 24 8 13 -6 -7 -8 -16 -12 -21 -9 -5 3 -9 -2 -9 -11 0 -9 -4 -13 -10
-10 -5 3 -10 -3 -10 -14 0 -12 5 -21 11 -21 5 0 7 -4 4 -10 -3 -5 1 -10 9 -10
9 0 16 -7 16 -16 0 -9 5 -12 13 -8 8 5 7 2 -2 -9 -12 -15 -12 -17 2 -11 12 4
18 -2 23 -20 3 -14 10 -26 15 -26 5 0 9 -5 9 -11 0 -6 -10 -8 -22 -5 -16 4
-14 2 5 -6 15 -7 27 -16 27 -21 0 -4 -4 -6 -10 -2 -5 3 -3 -7 5 -22 15 -29 13
-39 -4 -28 -6 3 -9 11 -6 16 4 5 1 9 -4 9 -18 0 -12 -19 9 -32 30 -19 24 -25
-25 -24 -25 1 -45 5 -45 9 0 4 -8 3 -19 -2 -10 -6 -21 -7 -25 -4 -4 4 -28 8
-54 9 -26 1 -76 5 -112 8 -36 4 -96 9 -135 11 -38 3 -108 7 -155 10 -47 4 -91
6 -97 6 -7 -1 -21 -1 -30 -1 -24 -1 -435 -1 -450 -1 -86 2 -173 0 -243 -4 -47
-2 -123 -7 -170 -9 -47 -3 -85 -5 -85 -6 0 0 -22 -3 -50 -5 -27 -2 -79 -7
-115 -10 -36 -3 -81 -8 -102 -11 -30 -4 -37 -2 -41 13 -4 16 -5 16 -6 -2 -1
-17 -3 -18 -11 -5 -8 13 -10 13 -10 -2 0 -13 -5 -15 -27 -9 -17 5 -26 14 -24
22 2 8 5 28 7 44 6 45 24 95 35 95 5 0 9 9 9 20 0 11 5 20 11 20 5 0 7 5 3 12
-4 6 -3 8 4 4 6 -3 13 2 17 12 3 11 15 24 28 30 12 6 16 11 10 11 -7 1 -13 7
-13 15 0 8 -5 18 -12 22 -7 5 -8 3 -3 -7 5 -8 -1 -5 -13 5 -28 25 -28 26 7 16
22 -6 31 -4 42 11 7 10 18 19 24 19 20 1 60 40 49 47 -10 8 -22 33 -21 43 2 9
-48 56 -56 53 -4 -3 -10 2 -13 10 -3 8 -11 14 -17 13 -15 -2 -65 -36 -53 -36
5 0 -3 -11 -17 -24 -19 -18 -25 -31 -21 -51 3 -19 1 -26 -8 -22 -7 2 -12 10
-11 16 2 6 -2 10 -9 8 -6 -1 -17 8 -23 20 -7 13 -15 20 -18 16 -4 -3 -7 -1 -7
5 0 7 -7 12 -16 12 -13 0 -14 3 -5 14 10 12 9 13 -7 9 -11 -2 -23 0 -26 5 -7
12 32 10 51 -1 7 -4 16 1 22 10 6 10 11 14 11 9 0 -5 8 0 18 11 9 11 25 22 35
26 15 6 16 10 5 29 -7 13 -17 26 -23 30 -5 4 -6 8 -2 8 11 0 -33 43 -63 62
-26 15 -50 14 -50 -4 0 -5 -13 -23 -30 -40 -23 -22 -29 -35 -24 -54 7 -26 -2
-30 -26 -14 -13 9 -13 11 0 21 13 9 12 10 -3 5 -12 -4 -33 10 -70 45 -29 28
-45 47 -37 43 8 -5 22 -9 30 -9 8 0 14 -8 14 -17 -1 -10 2 -15 8 -12 5 3 6 13
3 23 -4 13 4 21 29 31 20 7 33 17 30 22 -3 4 1 8 9 8 18 0 18 27 0 34 -7 3
-13 11 -13 18 0 20 -70 88 -90 88 -14 0 -79 -68 -72 -75 3 -3 0 -5 -7 -5 -7 0
-9 -4 -6 -10 3 -5 1 -10 -5 -10 -7 0 -5 -7 4 -16 22 -22 20 -25 -9 -12 -14 6
-25 17 -25 25 0 7 -4 13 -10 13 -5 0 -35 25 -66 55 -31 30 -58 55 -60 55 -2 0
-22 18 -45 40 -23 22 -46 40 -51 40 -4 0 -8 7 -8 15 0 8 -5 15 -11 15 -7 0
-24 13 -39 28 -36 38 -118 43 -168 11z m155 -1154 c0 -8 -4 -12 -9 -9 -5 3 -6
10 -3 15 9 13 12 11 12 -6z m3077 -8510 c-5 -13 -44 -15 -44 -2 0 4 3 6 6 5 3
-2 10 5 16 16 8 14 12 15 18 6 5 -7 6 -19 4 -25z"/>
<path d="M5016 10238 c3 -5 10 -6 15 -3 13 9 11 12 -6 12 -8 0 -12 -4 -9 -9z"/>
<path d="M7770 10216 c0 -2 8 -10 18 -17 15 -13 16 -12 3 4 -13 16 -21 21 -21
13z"/>
<path d="M4885 10019 c-4 -6 -4 -13 -1 -16 3 -4 6 -1 6 6 0 7 5 9 12 5 7 -4 8
-3 4 4 -9 15 -13 15 -21 1z"/>
<path d="M4897 9977 c4 -6 0 -8 -10 -4 -22 8 -21 5 5 -17 16 -14 20 -15 15 -3
-3 8 -1 19 4 24 6 6 4 10 -5 10 -8 0 -12 -5 -9 -10z"/>
<path d="M7696 9958 c3 -5 10 -6 15 -3 13 9 11 12 -6 12 -8 0 -12 -4 -9 -9z"/>
<path d="M6835 9940 c-4 -6 1 -7 11 -3 13 5 15 3 9 -7 -5 -9 -4 -11 4 -6 6 4
9 12 6 17 -8 12 -22 12 -30 -1z"/>
<path d="M1715 7280 c-3 -5 -1 -10 4 -10 6 0 11 5 11 10 0 6 -2 10 -4 10 -3 0
-8 -4 -11 -10z"/>
<path d="M9995 6609 c-4 -6 -5 -12 -2 -15 2 -3 7 2 10 11 7 17 1 20 -8 4z"/>
<path d="M9810 5859 c0 -5 5 -7 10 -4 6 3 10 8 10 11 0 2 -4 4 -10 4 -5 0 -10
-5 -10 -11z"/>
<path d="M1996 5778 c3 -5 10 -6 15 -3 13 9 11 12 -6 12 -8 0 -12 -4 -9 -9z"/>
<path d="M2056 5622 c-3 -5 1 -9 9 -9 8 0 12 4 9 9 -3 4 -7 8 -9 8 -2 0 -6 -4
-9 -8z"/>
<path d="M9735 5580 c-3 -5 -1 -10 4 -10 6 0 11 5 11 10 0 6 -2 10 -4 10 -3 0
-8 -4 -11 -10z"/>
<path d="M2095 5500 c3 -5 8 -10 11 -10 2 0 4 5 4 10 0 6 -5 10 -11 10 -5 0
-7 -4 -4 -10z"/>
<path d="M2126 5342 c-3 -5 1 -9 9 -9 8 0 12 4 9 9 -3 4 -7 8 -9 8 -2 0 -6 -4
-9 -8z"/>
<path d="M2116 5287 c3 -10 9 -15 12 -12 3 3 0 11 -7 18 -10 9 -11 8 -5 -6z"/>
<path d="M2176 5262 c-3 -5 1 -9 9 -9 8 0 12 4 9 9 -3 4 -7 8 -9 8 -2 0 -6 -4
-9 -8z"/>
<path d="M9610 5220 c0 -5 5 -10 11 -10 5 0 7 5 4 10 -3 6 -8 10 -11 10 -2 0
-4 -4 -4 -10z"/>
<path d="M2336 4782 c-3 -4 4 -9 15 -9 23 -2 25 3 4 10 -8 4 -16 3 -19 -1z"/>
<path d="M2377 4655 c-4 -8 -3 -16 1 -19 4 -3 9 4 9 15 2 23 -3 25 -10 4z"/>
<path d="M9410 4660 c0 -5 5 -10 11 -10 5 0 7 5 4 10 -3 6 -8 10 -11 10 -2 0
-4 -4 -4 -10z"/>
<path d="M2420 4566 c0 -2 8 -10 18 -17 15 -13 16 -12 3 4 -13 16 -21 21 -21
13z"/>
<path d="M2896 3525 c-3 -8 -1 -15 4 -15 6 0 10 7 10 15 0 8 -2 15 -4 15 -2 0
-6 -7 -10 -15z"/>
<path d="M8856 3532 c-3 -5 5 -8 17 -8 13 1 21 -4 19 -12 -1 -8 2 -11 8 -7 8
5 7 11 -1 21 -13 15 -35 19 -43 6z"/>
<path d="M2920 3526 c0 -2 8 -10 18 -17 15 -13 16 -12 3 4 -13 16 -21 21 -21
13z"/>
<path d="M8839 3493 c-13 -16 -12 -17 4 -4 9 7 17 15 17 17 0 8 -8 3 -21 -13z"/>
<path d="M9029 3483 c-13 -16 -12 -17 4 -4 16 13 21 21 13 21 -2 0 -10 -8 -17
-17z"/>
<path d="M2739 3488 c-5 -18 -6 -38 -1 -34 7 8 12 36 6 36 -2 0 -4 -1 -5 -2z"/>
<path d="M9077 3475 c-4 -8 -3 -16 1 -19 4 -3 9 4 9 15 2 23 -3 25 -10 4z"/>
<path d="M2935 3460 c-3 -5 -1 -10 4 -10 6 0 11 5 11 10 0 6 -2 10 -4 10 -3 0
-8 -4 -11 -10z"/>
<path d="M8850 3459 c0 -5 5 -7 10 -4 6 3 10 8 10 11 0 2 -4 4 -10 4 -5 0 -10
-5 -10 -11z"/>
<path d="M9149 3443 c-13 -16 -12 -17 4 -4 9 7 17 15 17 17 0 8 -8 3 -21 -13z"/>
<path d="M2655 3440 c3 -5 8 -10 11 -10 2 0 4 5 4 10 0 6 -5 10 -11 10 -5 0
-7 -4 -4 -10z"/>
<path d="M2975 3420 c-3 -5 -1 -10 4 -10 6 0 11 5 11 10 0 6 -2 10 -4 10 -3 0
-8 -4 -11 -10z"/>
<path d="M3010 3420 c0 -5 5 -10 11 -10 5 0 7 5 4 10 -3 6 -8 10 -11 10 -2 0
-4 -4 -4 -10z"/>
<path d="M2535 3411 c-3 -5 -2 -12 3 -15 5 -3 9 1 9 9 0 17 -3 19 -12 6z"/>
<path d="M8815 3391 c-3 -5 -2 -12 3 -15 5 -3 9 1 9 9 0 17 -3 19 -12 6z"/>
<path d="M2470 3379 c0 -5 5 -7 10 -4 6 3 10 8 10 11 0 2 -4 4 -10 4 -5 0 -10
-5 -10 -11z"/>
<path d="M9295 3380 c-2 -3 5 -6 15 -7 11 -1 22 2 24 5 3 4 -4 8 -15 8 -11 0
-22 -3 -24 -6z"/>
<path d="M2989 3363 c-13 -16 -12 -17 4 -4 16 13 21 21 13 21 -2 0 -10 -8 -17
-17z"/>
<path d="M9390 3376 c0 -2 8 -10 18 -17 15 -13 16 -12 3 4 -13 16 -21 21 -21
13z"/>
<path d="M2385 3359 c-3 -4 2 -6 10 -5 21 3 28 13 10 13 -9 0 -18 -4 -20 -8z"/>
<path d="M8757 3333 c-10 -9 -9 -23 1 -23 5 0 9 7 9 15 0 17 -1 18 -10 8z"/>
<path d="M2286 3318 c3 -5 10 -6 15 -3 13 9 11 12 -6 12 -8 0 -12 -4 -9 -9z"/>
<path d="M9455 3321 c-3 -5 -2 -12 3 -15 5 -3 9 1 9 9 0 17 -3 19 -12 6z"/>
<path d="M9520 3319 c0 -5 5 -7 10 -4 6 3 10 8 10 11 0 2 -4 4 -10 4 -5 0 -10
-5 -10 -11z"/>
<path d="M2198 3303 c7 -3 16 -2 19 1 4 3 -2 6 -13 5 -11 0 -14 -3 -6 -6z"/>
<path d="M2230 3306 c0 -2 7 -7 16 -10 8 -3 12 -2 9 4 -6 10 -25 14 -25 6z"/>
<path d="M9613 3285 c0 -8 4 -12 9 -9 5 3 6 10 3 15 -9 13 -12 11 -12 -6z"/>
<path d="M9659 3273 c-13 -16 -12 -17 4 -4 9 7 17 15 17 17 0 8 -8 3 -21 -13z"/>
<path d="M8756 3167 c3 -10 9 -15 12 -12 3 3 0 11 -7 18 -10 9 -11 8 -5 -6z"/>
<path d="M3161 3156 c-9 -11 -9 -16 1 -22 7 -4 10 -4 6 1 -4 4 -3 14 3 22 6 7
9 13 6 13 -2 0 -10 -6 -16 -14z"/>
<path d="M8609 3123 c-13 -16 -12 -17 4 -4 16 13 21 21 13 21 -2 0 -10 -8 -17
-17z"/>
<path d="M10073 3125 c0 -8 4 -12 9 -9 5 3 6 10 3 15 -9 13 -12 11 -12 -6z"/>
<path d="M3135 3120 c-3 -5 -1 -10 4 -10 6 0 11 5 11 10 0 6 -2 10 -4 10 -3 0
-8 -4 -11 -10z"/>
<path d="M8656 3102 c-3 -5 1 -9 9 -9 8 0 12 4 9 9 -3 4 -7 8 -9 8 -2 0 -6 -4
-9 -8z"/>
<path d="M10135 3100 c3 -5 8 -10 11 -10 2 0 4 5 4 10 0 6 -5 10 -11 10 -5 0
-7 -4 -4 -10z"/>
<path d="M10170 3100 c0 -5 5 -10 11 -10 5 0 7 5 4 10 -3 6 -8 10 -11 10 -2 0
-4 -4 -4 -10z"/>
<path d="M3210 3080 c0 -5 5 -10 11 -10 5 0 7 5 4 10 -3 6 -8 10 -11 10 -2 0
-4 -4 -4 -10z"/>
<path d="M10196 3058 c3 -5 10 -6 15 -3 13 9 11 12 -6 12 -8 0 -12 -4 -9 -9z"/>
<path d="M3195 3040 c3 -5 8 -10 11 -10 2 0 4 5 4 10 0 6 -5 10 -11 10 -5 0
-7 -4 -4 -10z"/>
<path d="M8550 3038 c0 -4 4 -8 9 -8 6 0 12 4 15 8 3 5 -1 9 -9 9 -8 0 -15 -4
-15 -9z"/>
<path d="M10676 3033 c-6 -14 -5 -15 5 -6 7 7 10 15 7 18 -3 3 -9 -2 -12 -12z"/>
<path d="M1135 2991 c-3 -5 -2 -12 3 -15 5 -3 9 1 9 9 0 17 -3 19 -12 6z"/>
<path d="M1296 2962 c-3 -5 1 -9 9 -9 8 0 12 4 9 9 -3 4 -7 8 -9 8 -2 0 -6 -4
-9 -8z"/>
<path d="M8440 2860 c-9 -6 -10 -10 -3 -10 6 0 15 5 18 10 8 12 4 12 -15 0z"/>
<path d="M8409 2803 c-13 -16 -12 -17 4 -4 16 13 21 21 13 21 -2 0 -10 -8 -17
-17z"/>
<path d="M3330 2776 c0 -2 8 -10 18 -17 15 -13 16 -12 3 4 -13 16 -21 21 -21
13z"/>
<path d="M3416 2767 c3 -10 9 -15 12 -12 3 3 0 11 -7 18 -10 9 -11 8 -5 -6z"/>
<path d="M8431 2767 c-8 -10 -7 -14 2 -14 8 0 14 6 14 14 0 7 -1 13 -2 13 -2
0 -8 -6 -14 -13z"/>
<path d="M3416 2727 c3 -10 9 -15 12 -12 3 3 0 11 -7 18 -10 9 -11 8 -5 -6z"/>
<path d="M8373 2715 c0 -8 4 -12 9 -9 4 3 8 9 8 15 0 5 -4 9 -8 9 -5 0 -9 -7
-9 -15z"/>
<path d="M8331 2687 c-8 -10 -7 -14 2 -14 8 0 14 6 14 14 0 7 -1 13 -2 13 -2
0 -8 -6 -14 -13z"/>
<path d="M3435 2640 c3 -5 8 -10 11 -10 2 0 4 5 4 10 0 6 -5 10 -11 10 -5 0
-7 -4 -4 -10z"/>
<path d="M3515 2620 c3 -5 8 -10 11 -10 2 0 4 5 4 10 0 6 -5 10 -11 10 -5 0
-7 -4 -4 -10z"/>
<path d="M8278 2616 c-22 -16 -23 -23 -3 -23 8 0 13 3 10 5 -3 3 0 11 6 19 14
16 9 16 -13 -1z"/>
<path d="M3500 2606 c0 -2 8 -10 18 -17 15 -13 16 -12 3 4 -13 16 -21 21 -21
13z"/>
<path d="M3550 2585 c0 -5 5 -17 10 -25 5 -8 10 -10 10 -5 0 6 -5 17 -10 25
-5 8 -10 11 -10 5z"/>
<path d="M8273 2565 c0 -8 4 -12 9 -9 5 3 6 10 3 15 -9 13 -12 11 -12 -6z"/>
<path d="M3473 2555 c0 -8 4 -12 9 -9 5 3 6 10 3 15 -9 13 -12 11 -12 -6z"/>
<path d="M3535 2551 c-3 -5 -2 -12 3 -15 5 -3 9 1 9 9 0 17 -3 19 -12 6z"/>
<path d="M8271 2527 c-8 -10 -7 -14 2 -14 8 0 14 6 14 14 0 7 -1 13 -2 13 -2
0 -8 -6 -14 -13z"/>
<path d="M8313 2515 c0 -8 4 -12 9 -9 5 3 6 10 3 15 -9 13 -12 11 -12 -6z"/>
<path d="M3515 2491 c-3 -5 -2 -12 3 -15 5 -3 9 1 9 9 0 17 -3 19 -12 6z"/>
<path d="M8200 2460 c-9 -6 -10 -10 -3 -10 6 0 15 5 18 10 8 12 4 12 -15 0z"/>
<path d="M3547 2439 c7 -7 15 -10 18 -7 3 3 -2 9 -12 12 -14 6 -15 5 -6 -5z"/>
<path d="M3653 2423 c4 -3 1 -13 -6 -22 -11 -14 -10 -14 5 -2 16 12 16 31 1
31 -4 0 -3 -3 0 -7z"/>
<path d="M8135 2400 c-2 -3 5 -7 16 -7 10 -1 19 2 19 6 0 9 -29 10 -35 1z"/>
<path d="M8190 2400 c0 -5 5 -10 11 -10 5 0 7 5 4 10 -3 6 -8 10 -11 10 -2 0
-4 -4 -4 -10z"/>
<path d="M3653 2345 c0 -8 4 -12 9 -9 5 3 6 10 3 15 -9 13 -12 11 -12 -6z"/>
<path d="M3710 2342 c0 -5 7 -9 15 -9 8 0 12 4 9 9 -3 4 -9 8 -15 8 -5 0 -9
-4 -9 -8z"/>
<path d="M8076 2322 c-3 -5 1 -9 9 -9 8 0 12 4 9 9 -3 4 -7 8 -9 8 -2 0 -6 -4
-9 -8z"/>
<path d="M3734 2289 c-3 -6 -2 -15 3 -20 5 -5 9 -1 9 11 0 23 -2 24 -12 9z"/>
<path d="M3697 2275 c-4 -8 -3 -16 1 -19 4 -3 9 4 9 15 2 23 -3 25 -10 4z"/>
<path d="M8066 2261 c-3 -4 4 -7 14 -6 27 2 33 10 10 12 -11 1 -22 -2 -24 -6z"/>
<path d="M3773 2247 c0 -8 6 -14 14 -14 9 0 10 4 2 14 -6 7 -12 13 -14 13 -1
0 -2 -6 -2 -13z"/>
<path d="M8016 2242 c-3 -5 1 -9 9 -9 8 0 12 4 9 9 -3 4 -7 8 -9 8 -2 0 -6 -4
-9 -8z"/>
<path d="M8016 2207 c3 -10 9 -15 12 -12 3 3 0 11 -7 18 -10 9 -11 8 -5 -6z"/>
<path d="M8050 2200 c0 -5 5 -10 11 -10 5 0 7 5 4 10 -3 6 -8 10 -11 10 -2 0
-4 -4 -4 -10z"/>
<path d="M3839 2178 c-5 -18 -6 -38 -1 -34 7 8 12 36 6 36 -2 0 -4 -1 -5 -2z"/>
<path d="M8015 2140 c3 -5 8 -10 11 -10 2 0 4 5 4 10 0 6 -5 10 -11 10 -5 0
-7 -4 -4 -10z"/>
<path d="M3854 2129 c-3 -6 -2 -15 3 -20 5 -5 9 -1 9 11 0 23 -2 24 -12 9z"/>
<path d="M7956 2118 c3 -5 10 -6 15 -3 13 9 11 12 -6 12 -8 0 -12 -4 -9 -9z"/>
<path d="M7906 2103 c-6 -14 -5 -15 5 -6 7 7 10 15 7 18 -3 3 -9 -2 -12 -12z"/>
<path d="M3876 2073 c-6 -14 -5 -15 5 -6 7 7 10 15 7 18 -3 3 -9 -2 -12 -12z"/>
<path d="M3875 2039 c-3 -4 2 -6 10 -5 21 3 28 13 10 13 -9 0 -18 -4 -20 -8z"/>
<path d="M7860 2045 c0 -2 6 -8 13 -14 10 -8 14 -7 14 2 0 8 -6 14 -14 14 -7
0 -13 -1 -13 -2z"/>
<path d="M3965 2000 c3 -5 8 -10 11 -10 2 0 4 5 4 10 0 6 -5 10 -11 10 -5 0
-7 -4 -4 -10z"/>
<path d="M7827 1999 c7 -7 15 -10 18 -7 3 3 -2 9 -12 12 -14 6 -15 5 -6 -5z"/>
<path d="M7870 1979 c0 -5 5 -7 10 -4 6 3 10 8 10 11 0 2 -4 4 -10 4 -5 0 -10
-5 -10 -11z"/>
<path d="M3945 1959 c-3 -4 2 -6 10 -5 21 3 28 13 10 13 -9 0 -18 -4 -20 -8z"/>
<path d="M3986 1943 c-6 -14 -5 -15 5 -6 7 7 10 15 7 18 -3 3 -9 -2 -12 -12z"/>
<path d="M7790 1941 c0 -6 4 -13 10 -16 6 -3 7 1 4 9 -7 18 -14 21 -14 7z"/>
<path d="M7775 1901 c-6 -11 13 -26 22 -17 4 3 1 6 -6 6 -7 0 -9 5 -6 10 3 6
4 10 1 10 -3 0 -7 -4 -11 -9z"/>
<path d="M4015 1890 c6 -10 4 -12 -11 -6 -15 6 -17 5 -6 -5 9 -9 15 -10 23 -2
8 8 7 13 -2 18 -8 6 -10 4 -4 -5z"/>
<path d="M7740 1860 c-9 -6 -10 -10 -3 -10 6 0 15 5 18 10 8 12 4 12 -15 0z"/>
<path d="M4000 1840 c-9 -6 -10 -10 -3 -10 6 0 15 5 18 10 8 12 4 12 -15 0z"/>
<path d="M7754 1835 c-4 -8 -11 -12 -17 -8 -6 3 -7 1 -3 -5 9 -15 33 -5 33 13
0 19 -6 19 -13 0z"/>
<path d="M3995 1800 c3 -5 8 -10 11 -10 2 0 4 5 4 10 0 6 -5 10 -11 10 -5 0
-7 -4 -4 -10z"/>
<path d="M7740 1786 c0 -2 8 -10 18 -17 15 -13 16 -12 3 4 -13 16 -21 21 -21
13z"/>
<path d="M7715 1719 c-4 -6 -5 -12 -2 -15 2 -3 7 2 10 11 7 17 1 20 -8 4z"/>
<path d="M4575 1259 c-4 -6 -5 -12 -2 -15 2 -3 7 2 10 11 7 17 1 20 -8 4z"/>
<path d="M4594 1249 c-3 -6 -2 -15 3 -20 5 -5 9 -1 9 11 0 23 -2 24 -12 9z"/>
<path d="M7190 1236 c0 -2 7 -9 15 -16 13 -11 14 -10 9 4 -5 14 -24 23 -24 12z"/>
<path d="M4550 1218 c0 -4 4 -8 9 -8 6 0 12 4 15 8 3 5 -1 9 -9 9 -8 0 -15 -4
-15 -9z"/>
<path d="M4620 1226 c0 -2 8 -10 18 -17 15 -13 16 -12 3 4 -13 16 -21 21 -21
13z"/>
<path d="M7230 1216 c0 -2 7 -9 15 -16 9 -7 15 -8 15 -2 0 5 -7 12 -15 16 -8
3 -15 4 -15 2z"/>
<path d="M4585 1200 c-3 -6 1 -7 9 -4 18 7 21 14 7 14 -6 0 -13 -4 -16 -10z"/>
<path d="M4668 1199 c6 -9 10 -18 7 -20 -2 -3 6 -5 20 -5 13 0 21 4 18 9 -3 4
-8 6 -11 3 -3 -3 -15 2 -26 11 -15 14 -18 14 -8 2z"/>
<path d="M7120 1205 c0 -2 6 -8 13 -14 10 -8 14 -7 14 2 0 8 -6 14 -14 14 -7
0 -13 -1 -13 -2z"/>
<path d="M4530 1179 c0 -5 5 -7 10 -4 6 3 10 8 10 11 0 2 -4 4 -10 4 -5 0 -10
-5 -10 -11z"/>
<path d="M7190 1180 c0 -5 5 -10 11 -10 5 0 7 5 4 10 -3 6 -8 10 -11 10 -2 0
-4 -4 -4 -10z"/>
<path d="M7227 1179 c7 -7 15 -10 18 -7 3 3 -2 9 -12 12 -14 6 -15 5 -6 -5z"/>
<path d="M7113 1166 c0 -15 22 -15 34 0 4 5 4 6 -1 2 -5 -4 -14 -3 -21 2 -8 7
-12 5 -12 -4z"/>
<path d="M7295 1151 c-3 -5 -2 -12 3 -15 5 -3 9 1 9 9 0 17 -3 19 -12 6z"/>
<path d="M4617 1135 c-4 -8 -3 -16 1 -19 4 -3 9 4 9 15 2 23 -3 25 -10 4z"/>
<path d="M7236 1142 c-3 -5 1 -9 9 -9 8 0 12 4 9 9 -3 4 -7 8 -9 8 -2 0 -6 -4
-9 -8z"/>
<path d="M7426 1138 c3 -5 10 -6 15 -3 13 9 11 12 -6 12 -8 0 -12 -4 -9 -9z"/>
<path d="M7466 1138 c3 -5 10 -6 15 -3 13 9 11 12 -6 12 -8 0 -12 -4 -9 -9z"/>
<path d="M4450 1121 c0 -6 4 -13 10 -16 6 -3 7 1 4 9 -7 18 -14 21 -14 7z"/>
<path d="M4753 1105 c0 -8 10 -23 21 -32 21 -18 21 -18 4 2 -9 11 -17 24 -16
28 0 5 -2 11 -4 13 -3 2 -5 -3 -5 -11z"/>
<path d="M7130 1099 c0 -5 5 -7 10 -4 6 3 10 8 10 11 0 2 -4 4 -10 4 -5 0 -10
-5 -10 -11z"/>
<path d="M7000 1060 c-9 -6 -10 -10 -3 -10 6 0 15 5 18 10 8 12 4 12 -15 0z"/>
<path d="M7110 1036 c0 -2 8 -10 18 -17 15 -13 16 -12 3 4 -13 16 -21 21 -21
13z"/>
<path d="M6959 1013 c-13 -16 -12 -17 4 -4 9 7 17 15 17 17 0 8 -8 3 -21 -13z"/>
<path d="M7055 1020 c3 -5 8 -10 11 -10 2 0 4 5 4 10 0 6 -5 10 -11 10 -5 0
-7 -4 -4 -10z"/>
<path d="M6926 1003 c-6 -14 -5 -15 5 -6 7 7 10 15 7 18 -3 3 -9 -2 -12 -12z"/>
<path d="M4836 999 c4 -8 30 -6 38 2 3 3 -5 5 -19 5 -13 0 -22 -3 -19 -7z"/>
<path d="M6993 993 c0 -9 4 -10 14 -2 7 6 13 12 13 14 0 1 -6 2 -13 2 -8 0
-14 -6 -14 -14z"/>
<path d="M4849 963 c-13 -16 -12 -17 4 -4 9 7 17 15 17 17 0 8 -8 3 -21 -13z"/>
<path d="M4916 967 c3 -10 9 -15 12 -12 3 3 0 11 -7 18 -10 9 -11 8 -5 -6z"/>
<path d="M6890 970 c-9 -6 -10 -10 -3 -10 6 0 15 5 18 10 8 12 4 12 -15 0z"/>
<path d="M4880 966 c0 -2 8 -10 18 -17 15 -13 16 -12 3 4 -13 16 -21 21 -21
13z"/>
<path d="M6915 951 c-3 -5 -2 -12 3 -15 5 -3 9 1 9 9 0 17 -3 19 -12 6z"/>
<path d="M4810 939 c0 -5 5 -7 10 -4 6 3 10 8 10 11 0 2 -4 4 -10 4 -5 0 -10
-5 -10 -11z"/>
<path d="M6870 946 c0 -2 7 -7 16 -10 8 -3 12 -2 9 4 -6 10 -25 14 -25 6z"/>
<path d="M6835 890 c-4 -6 -11 -7 -17 -4 -7 4 -8 2 -4 -5 6 -9 11 -9 22 0 14
11 18 19 10 19 -3 0 -8 -5 -11 -10z"/>
<path d="M4879 873 c-13 -16 -12 -17 4 -4 9 7 17 15 17 17 0 8 -8 3 -21 -13z"/>
<path d="M4951 887 c2 -2 11 -8 20 -15 12 -9 16 -9 16 1 0 7 -9 14 -20 14 -11
1 -18 1 -16 0z"/>
<path d="M6870 856 c4 -4 16 -4 26 2 16 9 14 10 -8 9 -15 -1 -23 -6 -18 -11z"/>
<path d="M6829 843 c-13 -16 -12 -17 4 -4 9 7 17 15 17 17 0 8 -8 3 -21 -13z"/>
<path d="M4933 835 c0 -8 4 -12 9 -9 5 3 6 10 3 15 -9 13 -12 11 -12 -6z"/>
<path d="M4966 838 c3 -5 10 -6 15 -3 13 9 11 12 -6 12 -8 0 -12 -4 -9 -9z"/>
<path d="M6759 848 c-7 -23 -4 -35 7 -35 9 0 11 4 4 12 -5 7 -7 15 -3 18 3 4
3 7 0 7 -4 0 -7 -1 -8 -2z"/>
<path d="M6797 835 c-4 -8 -3 -16 1 -19 4 -3 9 4 9 15 2 23 -3 25 -10 4z"/>
<path d="M5055 800 c5 -8 42 -6 50 1 2 3 -8 5 -25 5 -16 0 -27 -3 -25 -6z"/>
<path d="M6747 779 c7 -7 15 -10 18 -7 3 3 -2 9 -12 12 -14 6 -15 5 -6 -5z"/>
<path d="M6680 766 c7 -7 13 -7 20 0 6 6 3 10 -10 10 -13 0 -16 -4 -10 -10z"/>
<path d="M5135 753 c-5 -14 -4 -15 6 -6 10 10 15 9 26 -5 13 -15 13 -15 3 6
-13 26 -25 28 -35 5z"/>
<path d="M6650 761 c0 -6 4 -13 10 -16 6 -3 7 1 4 9 -7 18 -14 21 -14 7z"/>
<path d="M6773 745 c0 -8 4 -12 9 -9 5 3 6 10 3 15 -9 13 -12 11 -12 -6z"/>
<path d="M5066 722 c-3 -5 1 -9 9 -9 8 0 12 4 9 9 -3 4 -7 8 -9 8 -2 0 -6 -4
-9 -8z"/>
<path d="M5133 713 c0 -9 4 -10 14 -2 7 6 13 12 13 14 0 1 -6 2 -13 2 -8 0
-14 -6 -14 -14z"/>
<path d="M6631 707 c-13 -21 -12 -21 5 -5 10 10 16 20 13 22 -3 3 -11 -5 -18
-17z"/>
<path d="M5180 706 c0 -2 8 -10 18 -17 15 -13 16 -12 3 4 -13 16 -21 21 -21
13z"/>
<path d="M6690 699 c0 -5 5 -7 10 -4 6 3 10 8 10 11 0 2 -4 4 -10 4 -5 0 -10
-5 -10 -11z"/>
<path d="M6650 659 c0 -5 5 -7 10 -4 6 3 10 8 10 11 0 2 -4 4 -10 4 -5 0 -10
-5 -10 -11z"/>
<path d="M5241 636 c-9 -11 -9 -16 1 -22 7 -4 10 -4 6 1 -4 4 -3 14 3 22 6 7
9 13 6 13 -2 0 -10 -6 -16 -14z"/>
<path d="M5273 643 c4 -3 1 -13 -6 -22 -11 -14 -10 -14 5 -2 16 12 16 31 1 31
-4 0 -3 -3 0 -7z"/>
<path d="M6593 635 c0 -8 4 -12 9 -9 4 3 8 9 8 15 0 5 -4 9 -8 9 -5 0 -9 -7
-9 -15z"/>
<path d="M5316 592 l-20 -27 22 19 c15 13 22 15 22 6 0 -7 3 -11 6 -7 3 3 2
12 -3 20 -6 12 -12 10 -27 -11z"/>
<path d="M6474 575 c0 -13 3 -22 7 -19 8 4 6 30 -2 38 -3 3 -5 -5 -5 -19z"/>
<path d="M6416 562 c-3 -4 4 -9 15 -9 23 -2 25 3 4 10 -8 4 -16 3 -19 -1z"/>
<path d="M5335 531 c-3 -5 -2 -12 3 -15 5 -3 9 1 9 9 0 17 -3 19 -12 6z"/>
<path d="M6410 536 c0 -2 8 -10 18 -17 15 -13 16 -12 3 4 -13 16 -21 21 -21
13z"/>
<path d="M5468 503 c6 -2 9 -10 6 -15 -4 -7 -2 -8 5 -4 13 9 5 26 -12 25 -9 0
-8 -2 1 -6z"/>
<path d="M6396 493 c-6 -14 -5 -15 5 -6 7 7 10 15 7 18 -3 3 -9 -2 -12 -12z"/>
<path d="M5353 485 c0 -8 4 -12 9 -9 5 3 6 10 3 15 -9 13 -12 11 -12 -6z"/>
<path d="M5306 478 c3 -5 10 -6 15 -3 13 9 11 12 -6 12 -8 0 -12 -4 -9 -9z"/>
<path d="M5416 478 c3 -5 10 -6 15 -2 5 3 18 0 27 -8 15 -12 16 -11 4 4 -13
16 -56 22 -46 6z"/>
<path d="M6333 473 c0 -9 4 -10 14 -2 7 6 13 12 13 14 0 1 -6 2 -13 2 -8 0
-14 -6 -14 -14z"/>
<path d="M5496 472 c-2 -4 4 -8 14 -8 10 0 16 4 14 8 -3 4 -9 8 -14 8 -5 0
-11 -4 -14 -8z"/>
<path d="M6386 458 c3 -5 10 -6 15 -3 13 9 11 12 -6 12 -8 0 -12 -4 -9 -9z"/>
<path d="M5490 441 c0 -6 4 -13 10 -16 6 -3 7 1 4 9 -7 18 -14 21 -14 7z"/>
<path d="M5533 435 c0 -8 4 -12 9 -9 5 3 6 10 3 15 -9 13 -12 11 -12 -6z"/>
<path d="M5560 431 c0 -6 4 -13 10 -16 6 -3 7 1 4 9 -7 18 -14 21 -14 7z"/>
<path d="M6230 436 c0 -2 9 -6 20 -9 11 -3 18 -1 14 4 -5 9 -34 13 -34 5z"/>
<path d="M5411 427 c2 -1 13 -9 24 -17 19 -14 19 -14 6 3 -7 9 -18 17 -24 17
-6 0 -8 -1 -6 -3z"/>
<path d="M6193 395 c0 -14 3 -25 6 -25 4 0 7 11 7 25 0 14 -3 25 -7 25 -3 0
-6 -11 -6 -25z"/>
<path d="M5466 402 c-3 -5 1 -9 9 -9 8 0 12 4 9 9 -3 4 -7 8 -9 8 -2 0 -6 -4
-9 -8z"/>
<path d="M5533 394 c0 -9 4 -11 12 -4 7 5 14 9 16 7 2 -1 3 0 1 2 -7 11 -29 7
-29 -5z"/>
<path d="M6436 393 c-6 -14 -5 -15 5 -6 7 7 10 15 7 18 -3 3 -9 -2 -12 -12z"/>
<path d="M5640 365 c0 -2 6 -8 13 -14 10 -8 14 -7 14 2 0 8 -6 14 -14 14 -7 0
-13 -1 -13 -2z"/>
<path d="M6130 361 c0 -6 4 -12 8 -15 5 -3 9 1 9 9 0 8 -4 15 -9 15 -4 0 -8
-4 -8 -9z"/>
<path d="M6076 334 c-8 -20 -8 -24 2 -24 4 0 8 9 9 20 2 24 -3 26 -11 4z"/>
<path d="M5695 330 c-4 -6 -11 -7 -17 -4 -7 4 -8 2 -4 -5 6 -9 11 -9 22 0 14
11 18 19 10 19 -3 0 -8 -5 -11 -10z"/>
<path d="M5765 320 c22 -24 22 -24 22 -5 0 8 -4 12 -9 9 -4 -3 -8 0 -8 5 0 6
-5 11 -12 11 -6 0 -3 -9 7 -20z"/>
<path d="M5730 321 c0 -6 4 -13 10 -16 6 -3 7 1 4 9 -7 18 -14 21 -14 7z"/>
<path d="M5815 310 c-3 -6 1 -7 9 -4 18 7 21 14 7 14 -6 0 -13 -4 -16 -10z"/>
<path d="M5987 307 c-3 -8 1 -14 8 -14 7 0 11 6 8 14 -6 16 -10 16 -16 0z"/>
<path d="M5674 293 c16 -20 36 -23 36 -6 0 4 -3 3 -7 0 -3 -4 -16 1 -27 10
-21 18 -21 18 -2 -4z"/>
<path d="M6170 299 c0 -5 5 -7 10 -4 6 3 10 8 10 11 0 2 -4 4 -10 4 -5 0 -10
-5 -10 -11z"/>
<path d="M5891 284 c0 -11 3 -14 6 -6 3 7 2 16 -1 19 -3 4 -6 -2 -5 -13z"/>
<path d="M5716 273 c-6 -14 -5 -15 5 -6 7 7 10 15 7 18 -3 3 -9 -2 -12 -12z"/>
<path d="M5755 270 c10 -11 20 -20 23 -20 3 0 -3 9 -13 20 -10 11 -20 20 -23
20 -3 0 3 -9 13 -20z"/>
<path d="M5810 281 c0 -6 4 -13 10 -16 6 -3 7 1 4 9 -7 18 -14 21 -14 7z"/>
<path d="M5867 259 c7 -7 15 -10 18 -7 3 3 -2 9 -12 12 -14 6 -15 5 -6 -5z"/>
<path d="M5905 260 c-3 -6 1 -7 9 -4 18 7 21 14 7 14 -6 0 -13 -4 -16 -10z"/>
<path d="M5952 251 c7 -9 13 -18 15 -20 1 -2 1 5 0 16 0 11 -7 20 -14 20 -10
0 -10 -4 -1 -16z"/>
<path d="M5987 259 c7 -7 15 -10 18 -7 3 3 -2 9 -12 12 -14 6 -15 5 -6 -5z"/>
<path d="M5730 239 c0 -5 5 -7 10 -4 6 3 10 8 10 11 0 2 -4 4 -10 4 -5 0 -10
-5 -10 -11z"/>
<path d="M5799 233 c-12 -16 -12 -17 2 -6 9 7 20 9 24 5 5 -4 5 -1 1 6 -9 16
-11 15 -27 -5z"/>
<path d="M5920 246 c0 -2 8 -10 18 -17 15 -13 16 -12 3 4 -13 16 -21 21 -21
13z"/>
<path d="M6070 241 c0 -6 4 -13 10 -16 6 -3 7 1 4 9 -7 18 -14 21 -14 7z"/>
<path d="M5993 225 c0 -8 4 -12 9 -9 5 3 6 10 3 15 -9 13 -12 11 -12 -6z"/>
<path d="M5990 185 c0 -5 5 -17 10 -25 5 -8 10 -10 10 -5 0 6 -5 17 -10 25 -5
8 -10 11 -10 5z"/>
</g>
</svg>
