<?xml version="1.0" standalone="no"?>
<!DOCTYPE svg PUBLIC "-//W3C//DTD SVG 20010904//EN"
 "http://www.w3.org/TR/2001/REC-SVG-20010904/DTD/svg10.dtd">
<svg version="1.0" xmlns="http://www.w3.org/2000/svg"
 width="1132.000000pt" height="1132.000000pt" viewBox="0 0 1132.000000 1132.000000"
 preserveAspectRatio="xMidYMid meet">
<metadata>
Created by potrace 1.11, written by Peter Selinger 2001-2013
</metadata>
<g transform="translate(0.000000,1132.000000) scale(0.100000,-0.100000)"
fill="#000000" stroke="none">
<path d="M7892 11313 c-36 -14 -78 -72 -73 -102 1 -8 -2 -10 -10 -5 -7 4 -10
3 -6 -3 4 -6 -2 -33 -12 -61 -10 -28 -16 -54 -12 -58 3 -4 -3 -4 -13 0 -14 5
-16 3 -9 -6 7 -9 7 -21 0 -38 -12 -29 -14 -36 -21 -69 -3 -14 -9 -27 -14 -30
-4 -3 -8 -13 -8 -21 0 -8 -6 -28 -13 -45 -7 -16 -13 -38 -14 -48 -1 -17 -2
-17 -14 -1 -7 9 -11 20 -8 23 2 4 -6 8 -19 9 -12 1 -41 8 -65 17 -46 16 -71 8
-71 -21 0 -8 -4 -14 -10 -14 -6 0 -9 -3 -9 -7 1 -5 0 -10 -1 -13 -1 -3 -3 -31
-5 -63 -2 -63 7 -75 55 -71 14 1 31 -3 38 -8 8 -7 12 -7 12 0 0 6 8 9 18 7 9
-1 24 3 32 9 13 9 13 9 3 -5 -7 -9 -9 -20 -5 -24 4 -5 -1 -5 -10 -2 -10 3 -20
1 -24 -5 -4 -6 -3 -8 4 -4 19 12 20 -8 1 -59 -9 -27 -18 -42 -18 -33 -1 19
-34 41 -45 31 -3 -3 -6 -2 -6 4 0 6 -12 13 -27 16 -16 3 -40 9 -54 12 -24 6
-28 3 -47 -47 -11 -29 -20 -74 -20 -100 0 -47 1 -48 32 -49 17 0 51 -2 74 -2
30 -1 47 3 53 13 8 12 9 11 7 -5 -2 -11 -7 -23 -13 -27 -10 -7 -11 -12 -14
-46 0 -10 -8 -27 -16 -38 -11 -14 -14 -15 -9 -3 4 13 -4 20 -30 29 -20 6 -34
15 -32 18 2 4 -6 8 -17 9 -12 1 -35 5 -51 9 -21 5 -27 4 -22 -5 4 -6 3 -11 -3
-11 -26 0 -52 -179 -27 -181 84 -6 124 -6 141 2 19 10 19 9 2 -4 -14 -11 -15
-16 -5 -20 10 -4 9 -9 -4 -19 -15 -13 -14 -15 12 -25 21 -8 30 -8 34 1 3 7 5
7 5 -2 1 -7 6 -10 11 -7 6 3 13 0 16 -9 3 -8 12 -12 20 -9 8 3 14 0 14 -6 0
-6 7 -8 17 -4 9 4 14 2 10 -3 -3 -5 8 -16 24 -23 16 -7 29 -19 29 -27 0 -9 5
-12 10 -9 6 3 10 2 10 -3 0 -4 9 -18 21 -31 12 -12 22 -30 24 -39 2 -9 4 -17
5 -17 1 0 4 -13 6 -28 3 -19 1 -26 -6 -22 -6 3 -8 11 -5 16 3 5 -2 6 -12 3
-10 -3 -14 -2 -8 3 6 4 11 15 13 23 1 10 -2 9 -13 -4 -8 -11 -18 -16 -22 -12
-5 4 2 16 14 26 12 9 19 20 16 24 -10 10 -25 7 -18 -3 3 -5 -4 -16 -16 -25
l-22 -15 31 -18 c18 -10 32 -21 32 -25 0 -12 -15 -9 -28 4 -9 9 -15 9 -24 -1
-11 -10 -10 -12 2 -10 8 2 26 -3 39 -10 14 -8 21 -9 17 -2 -4 6 -2 11 3 11 6
0 11 -7 11 -16 0 -12 -5 -14 -17 -9 -10 4 -26 8 -35 9 -10 1 -21 5 -24 9 -4 4
-17 7 -30 7 -12 0 -25 6 -27 13 -4 9 -6 9 -6 -1 -1 -8 -6 -10 -13 -5 -7 4 -20
9 -28 10 -8 2 -28 5 -45 8 -41 7 -114 22 -145 29 -14 3 -51 10 -82 16 -32 6
-70 12 -85 15 -16 3 -44 8 -63 11 -19 3 -46 7 -59 9 -13 2 -45 7 -70 11 -25 3
-57 8 -71 10 -39 6 -121 16 -160 19 -19 1 -35 3 -35 4 0 1 -29 4 -65 7 -36 2
-87 6 -115 9 -27 3 -95 8 -150 12 -186 13 -1180 7 -1180 -7 0 -2 -150 -12
-192 -14 -18 0 -33 -3 -33 -6 0 -3 -15 -4 -32 -4 -18 1 -41 -3 -50 -8 -12 -6
-18 -5 -18 3 0 8 -4 8 -13 1 -7 -6 -22 -11 -32 -10 -19 1 -107 -10 -149 -18
-12 -2 -41 -7 -66 -10 -25 -3 -54 -8 -65 -11 -11 -2 -36 -6 -55 -9 -42 -6 -67
-10 -100 -18 -35 -8 -80 -17 -115 -22 -23 -3 -220 -51 -325 -78 -8 -2 -44 -12
-80 -21 -161 -42 -472 -154 -630 -227 -36 -16 -69 -30 -75 -31 -5 -1 -12 -4
-15 -7 -3 -3 -41 -23 -85 -45 -44 -21 -81 -43 -83 -47 -2 -4 -9 -8 -15 -8 -11
0 -198 -108 -207 -120 -3 -3 -23 -17 -45 -30 -22 -13 -42 -26 -45 -30 -3 -3
-23 -18 -46 -33 -22 -15 -49 -35 -60 -45 -10 -10 -30 -25 -43 -34 -55 -38
-265 -237 -316 -300 -6 -7 -33 -40 -59 -73 -26 -33 -56 -69 -65 -80 -9 -11
-22 -33 -30 -48 -8 -15 -18 -27 -23 -27 -4 0 -8 -6 -8 -13 0 -7 -8 -22 -18
-33 -9 -10 -23 -31 -29 -46 -7 -16 -17 -28 -22 -28 -6 0 -8 -7 -5 -15 4 -8 2
-15 -3 -15 -5 0 -22 -28 -38 -62 -16 -35 -32 -65 -35 -68 -3 -3 -6 -12 -8 -20
-2 -8 -7 -16 -12 -18 -5 -2 -6 -10 -3 -18 3 -8 0 -14 -7 -14 -6 0 -9 -4 -5 -9
3 -5 0 -15 -7 -23 -12 -13 -17 -26 -22 -56 -1 -8 -7 -17 -12 -20 -5 -4 -10
-18 -12 -32 -1 -13 -6 -27 -10 -30 -4 -3 -8 -12 -8 -20 -2 -24 -48 -195 -54
-200 -3 -3 -5 -15 -4 -27 1 -13 -5 -34 -12 -48 -7 -14 -9 -25 -3 -25 6 0 6 -7
1 -17 -10 -20 -29 -156 -36 -263 -1 -14 -5 -30 -9 -37 -4 -6 -4 -14 1 -17 6
-4 7 -24 3 -69 -1 -5 -7 -5 -13 -1 -10 6 -10 4 -2 -7 13 -16 13 -77 0 -98 -7
-10 -6 -12 4 -6 10 6 12 4 7 -8 -3 -9 -1 -18 6 -21 8 -3 8 -5 -2 -5 -11 -1
-11 -4 -1 -16 7 -8 8 -15 3 -15 -10 0 -10 -46 0 -57 4 -3 2 -12 -4 -20 -6 -7
-7 -13 -2 -13 5 0 9 -9 9 -19 0 -11 -4 -18 -7 -15 -4 2 -11 0 -14 -6 -4 -6 -1
-9 7 -8 8 2 14 -7 14 -22 1 -14 5 -52 9 -85 4 -33 8 -78 10 -100 8 -77 12
-103 20 -115 6 -9 4 -11 -4 -5 -10 5 -10 2 0 -13 10 -17 10 -23 -1 -36 -11
-14 -10 -16 5 -10 12 5 16 4 12 -3 -4 -6 -3 -24 3 -38 9 -22 7 -30 -7 -41 -17
-13 -17 -14 0 -8 11 4 17 1 18 -10 2 -20 3 -25 13 -54 5 -14 3 -28 -5 -38 -10
-12 -9 -13 6 -8 12 5 16 4 12 -3 -4 -6 0 -30 8 -52 8 -24 10 -39 4 -35 -7 4
-7 0 0 -12 21 -37 38 -133 27 -145 -8 -9 -8 -10 2 -5 11 7 17 -5 13 -28 -1 -4
3 -14 9 -21 6 -7 11 -30 13 -53 1 -22 5 -38 8 -36 9 5 20 -56 13 -67 -3 -5 -1
-9 4 -9 8 0 33 -75 37 -110 0 -3 4 -11 9 -19 6 -9 5 -12 -2 -7 -6 3 -4 -7 4
-24 9 -16 13 -34 10 -39 -4 -5 -2 -11 4 -13 5 -1 11 -15 12 -30 1 -16 6 -28
10 -28 4 0 7 -3 6 -7 -2 -7 18 -77 52 -184 6 -19 3 -32 -10 -49 -10 -14 -16
-28 -14 -31 2 -4 -3 -14 -11 -23 -8 -8 -14 -19 -13 -23 1 -4 -3 -18 -10 -29
-6 -12 -8 -24 -5 -28 3 -3 1 -6 -5 -6 -6 0 -14 -15 -17 -32 -4 -18 -12 -36
-16 -39 -5 -3 -12 -16 -14 -29 -2 -13 -8 -26 -12 -29 -5 -3 -10 -15 -11 -26
-2 -11 -8 -23 -14 -26 -5 -3 -10 -9 -9 -12 1 -18 -22 -66 -29 -62 -4 3 -6 -4
-3 -15 3 -11 0 -20 -6 -20 -6 0 -10 -3 -10 -7 3 -21 -2 -33 -13 -27 -7 4 -8 3
-4 -4 4 -6 2 -19 -4 -29 -14 -26 -34 -77 -32 -85 1 -5 -3 -8 -9 -8 -5 0 -7 -4
-4 -10 3 -5 1 -10 -4 -10 -6 0 -10 -3 -10 -7 1 -5 0 -11 -1 -15 -1 -5 -3 -11
-4 -15 -1 -5 -14 -32 -29 -61 -15 -29 -21 -50 -14 -46 6 4 5 -1 -5 -12 -9 -10
-24 -39 -34 -64 -10 -25 -22 -48 -27 -51 -5 -3 -8 -10 -7 -15 3 -19 -9 -46
-18 -40 -5 3 -8 -6 -6 -19 1 -14 -2 -25 -7 -25 -5 0 -9 -7 -9 -15 0 -8 -4 -15
-9 -15 -5 0 -8 -8 -7 -18 2 -9 0 -19 -3 -22 -11 -9 -72 -145 -75 -167 -1 -7
-9 -22 -17 -32 -8 -9 -15 -23 -16 -29 -2 -7 -4 -18 -5 -24 -2 -7 -9 -19 -16
-26 -6 -7 -12 -22 -12 -33 0 -10 -4 -19 -8 -19 -7 0 -35 -74 -34 -90 0 -3 -4
-10 -10 -17 -19 -24 -47 -86 -42 -94 3 -5 0 -9 -5 -9 -6 0 -11 -6 -11 -12 -1
-7 -9 -31 -20 -53 -11 -22 -19 -46 -20 -52 0 -7 -4 -13 -9 -13 -5 0 -12 -7
-15 -16 -4 -10 -2 -13 6 -8 7 4 3 -6 -9 -22 -21 -30 -39 -73 -35 -86 1 -5 -3
-8 -9 -8 -5 0 -7 -4 -4 -10 3 -5 1 -10 -4 -10 -6 0 -11 -9 -11 -20 0 -11 -5
-20 -12 -20 -6 0 -8 -3 -5 -6 3 -4 1 -16 -5 -28 -7 -11 -13 -25 -14 -31 -6
-29 -10 -41 -16 -45 -4 -4 -9 -23 -10 -43 -2 -20 -5 -37 -8 -37 -3 0 -5 -34
-5 -75 0 -41 2 -75 5 -75 5 0 10 -28 13 -67 0 -7 4 -13 9 -13 5 0 7 -4 4 -9
-3 -5 8 -27 24 -50 17 -22 30 -45 30 -50 0 -5 7 -11 15 -15 8 -3 15 -12 15
-21 0 -8 6 -14 13 -13 6 2 11 -3 9 -10 -1 -8 2 -11 7 -8 5 4 16 0 24 -8 8 -8
17 -12 21 -9 3 4 6 -1 6 -10 0 -9 7 -17 16 -17 11 0 14 -6 9 -22 -4 -15 -3
-19 3 -10 8 12 45 13 67 1 6 -3 28 -5 50 -4 22 1 48 -2 59 -7 14 -8 17 -7 11
3 -6 9 -3 11 8 6 9 -3 18 -1 21 6 3 9 5 8 5 -1 1 -7 6 -10 13 -6 8 5 9 1 5
-12 -7 -18 -6 -18 7 -2 7 10 16 18 19 18 4 0 4 -8 1 -18 -5 -16 -5 -16 6 1 11
17 45 18 71 1 8 -5 9 -3 4 6 -6 10 -4 12 8 7 9 -3 18 -1 21 6 3 9 5 8 5 -1 1
-7 6 -10 13 -6 8 5 9 1 5 -12 -7 -18 -6 -18 7 -1 17 22 30 22 22 -1 -6 -16 -5
-16 7 0 13 17 43 18 69 2 7 -5 8 -3 3 6 -6 10 -4 12 8 7 9 -3 18 -1 21 6 3 9
5 8 5 -1 1 -7 6 -10 13 -6 8 5 9 1 5 -12 -6 -16 -5 -17 5 -4 7 8 29 16 48 17
25 2 31 0 20 -7 -12 -7 -10 -9 7 -8 14 2 19 7 15 18 -5 13 -3 13 11 1 14 -11
17 -11 17 0 0 11 2 11 8 2 4 -7 18 -11 31 -8 18 3 22 1 17 -13 -6 -16 -5 -16
8 1 15 19 31 23 20 5 -6 -10 -4 -10 7 -2 8 6 22 10 33 8 10 -1 29 1 42 6 13 5
24 6 24 1 0 -11 64 -8 72 4 5 6 8 6 8 -2 0 -8 15 -11 45 -8 32 2 43 0 38 -8
-5 -9 -3 -9 8 0 13 10 64 18 82 13 19 -6 33 -6 50 2 12 6 17 5 17 -6 0 -20 17
-29 26 -15 4 8 3 9 -4 5 -7 -4 -12 -3 -12 2 0 6 32 8 72 7 40 -2 73 -4 73 -5
0 -1 8 -3 18 -5 9 -2 14 1 11 6 -3 6 5 8 20 5 16 -3 26 0 26 7 0 9 2 9 8 1 4
-7 25 -11 49 -9 30 2 41 -1 36 -9 -4 -7 -1 -6 9 2 12 9 63 11 63 2 0 -1 8 -3
18 -5 9 -2 15 1 12 5 -3 5 3 8 12 8 10 0 23 0 28 2 25 6 44 -1 39 -15 -4 -8
-1 -15 6 -15 6 0 9 4 5 9 -3 5 0 13 6 17 6 3 15 0 20 -7 6 -10 9 -11 9 -1 0 6
4 12 9 12 6 0 8 -10 6 -21 -3 -12 -1 -18 3 -15 4 4 7 12 7 18 0 6 11 13 25 15
24 3 24 3 5 -12 -19 -16 -19 -16 3 -5 12 6 27 8 32 5 5 -3 11 -1 15 5 7 11 45
7 67 -6 8 -5 7 0 -2 12 -13 17 -13 18 0 8 8 -6 23 -10 33 -9 9 2 15 -1 11 -6
-3 -5 0 -9 5 -9 6 0 11 -9 11 -19 0 -11 9 -23 21 -26 11 -4 18 -9 16 -12 -3
-2 3 -13 14 -24 11 -11 17 -24 14 -29 -4 -6 -2 -10 4 -10 6 0 33 -34 61 -76
44 -64 50 -78 39 -92 -11 -14 -11 -15 0 -5 7 6 20 9 28 6 11 -4 10 -8 -4 -19
-14 -11 -14 -13 -2 -9 9 3 22 -1 29 -10 7 -8 9 -15 4 -15 -5 0 2 -7 15 -16 15
-11 21 -23 18 -35 -3 -11 -1 -16 4 -13 13 8 36 -18 33 -38 -1 -11 3 -15 14
-11 12 5 14 2 8 -12 -4 -11 -4 -16 0 -13 13 13 59 -56 49 -73 -4 -5 -3 -9 2
-8 21 4 32 -2 38 -20 3 -10 18 -31 33 -47 15 -15 20 -24 12 -19 -13 8 -13 6
-2 -8 8 -9 10 -22 6 -29 -6 -11 -5 -11 8 0 14 11 17 10 23 -7 3 -12 11 -21 16
-21 6 0 7 -4 4 -10 -3 -5 -1 -10 4 -10 6 0 11 -7 11 -16 0 -8 4 -13 9 -10 9 6
26 -22 22 -37 -1 -5 3 -6 8 -3 5 4 19 -10 31 -30 13 -19 34 -47 49 -61 14 -14
21 -23 14 -19 -13 7 -12 -19 2 -31 4 -4 5 -2 1 4 -15 27 10 11 37 -22 23 -29
26 -39 17 -50 -7 -8 -17 -12 -23 -8 -6 4 -7 1 -3 -6 6 -9 12 -9 25 3 22 20 31
20 31 2 0 -8 6 -17 13 -19 8 -4 9 -8 2 -14 -13 -10 -13 -28 -2 -40 5 -4 8 -3
7 2 -4 20 0 35 11 35 7 0 9 -9 6 -21 -4 -16 -3 -18 8 -9 10 9 15 6 21 -12 4
-13 7 -27 6 -31 -1 -5 1 -6 6 -3 4 2 14 1 22 -4 12 -7 12 -11 0 -27 -10 -12
-10 -14 -1 -6 10 8 18 7 32 -5 10 -9 19 -21 19 -27 0 -5 -5 -3 -11 5 -9 13
-10 13 -6 0 2 -8 12 -13 23 -12 10 2 16 1 12 -3 -4 -4 3 -15 15 -25 19 -16 20
-20 7 -36 -13 -17 -13 -18 0 -7 23 18 62 -16 48 -43 -8 -15 -8 -17 2 -7 9 8
17 7 31 -5 12 -10 15 -18 8 -23 -6 -3 1 -9 15 -13 14 -3 26 -12 26 -18 0 -6
15 -24 32 -40 27 -24 30 -31 18 -39 -13 -9 -13 -10 0 -8 29 3 41 -1 35 -11 -3
-5 1 -10 9 -10 9 0 16 -5 16 -10 0 -6 11 -20 25 -32 13 -11 22 -26 18 -31 -3
-6 -2 -7 4 -4 12 8 46 -31 38 -43 -3 -6 0 -7 7 -5 19 7 62 -40 53 -56 -5 -8
-4 -10 4 -5 17 11 46 -21 32 -38 -8 -9 -7 -13 4 -13 8 0 12 4 9 9 -8 13 6 9
21 -6 8 -7 11 -16 8 -20 -4 -3 -1 -6 6 -6 16 0 41 -25 41 -41 0 -7 3 -10 6 -6
3 3 25 -13 49 -36 23 -23 65 -62 94 -87 28 -25 51 -51 51 -58 0 -7 4 -10 10
-7 6 3 10 3 10 -2 0 -4 14 -16 32 -26 25 -15 29 -20 17 -28 -11 -7 -9 -9 9 -9
12 0 22 -4 22 -10 0 -5 6 -10 14 -10 8 0 18 -9 21 -20 4 -11 11 -17 17 -14 7
5 9 2 5 -8 -3 -10 0 -15 11 -14 9 0 16 -5 14 -11 -1 -7 6 -13 16 -13 22 0 82
-51 82 -71 0 -11 2 -11 10 1 5 8 10 11 10 5 0 -5 23 -25 50 -44 28 -19 50 -37
50 -41 0 -4 14 -13 30 -20 27 -11 34 -21 31 -42 0 -4 6 -5 14 -2 17 7 48 -20
37 -31 -4 -5 -1 -5 5 -1 17 9 56 -12 50 -28 -4 -9 2 -11 20 -8 18 3 24 1 19
-7 -4 -7 0 -11 12 -11 10 0 27 -8 38 -17 10 -10 28 -20 39 -21 11 -2 22 -8 23
-13 2 -5 10 -9 17 -9 7 0 26 -7 41 -15 16 -8 37 -15 46 -15 9 0 20 -5 24 -11
4 -8 -1 -9 -17 -4 -19 5 -21 4 -9 -4 14 -10 7 -16 -15 -11 -5 1 -6 -2 -2 -6
11 -11 38 -14 31 -3 -5 8 10 13 29 10 5 -1 6 3 2 9 -8 13 -3 13 30 0 16 -6 23
-14 19 -22 -4 -7 -3 -8 5 -4 6 4 8 12 5 18 -5 7 -1 9 9 5 9 -3 19 -2 22 3 3 5
12 7 19 4 8 -3 30 1 49 10 41 17 47 14 41 -20 -2 -13 0 -24 5 -24 5 0 7 14 6
30 -3 31 24 58 45 45 6 -3 10 -2 10 4 0 11 18 9 40 -3 12 -7 13 -6 2 5 -13 14
-16 30 -4 27 11 -2 45 14 60 28 6 7 24 11 40 8 21 -3 23 -2 12 6 -13 9 -13 11
0 20 22 14 29 12 25 -8 -2 -11 3 -19 10 -19 8 0 11 5 7 11 -13 22 -12 46 3 47
31 3 35 4 33 12 -4 11 62 48 73 41 5 -3 9 -2 8 3 -4 22 3 33 19 33 10 0 24 -6
32 -12 8 -7 6 -3 -4 10 -16 19 -17 22 -3 22 8 0 18 -6 21 -12 3 -7 3 -3 1 8
-6 24 20 42 29 21 3 -7 4 -5 3 4 -2 18 51 71 64 63 5 -3 9 -1 9 5 0 5 18 22
40 39 22 16 37 32 33 35 -3 4 1 7 11 7 9 0 15 -4 12 -8 -3 -5 1 -9 9 -9 10 0
12 4 5 12 -11 14 12 40 24 28 4 -4 4 0 1 8 -4 10 3 19 20 27 14 6 25 17 25 23
0 8 4 8 15 -1 13 -11 14 -10 10 2 -7 17 51 72 66 63 5 -4 6 2 2 11 -4 12 -3
15 5 10 7 -4 12 -1 12 9 0 9 4 14 9 11 5 -3 11 1 15 9 3 8 12 15 21 15 8 0 14
3 14 8 -4 23 3 33 23 30 12 -2 23 3 25 12 4 12 3 12 -5 1 -7 -9 -12 -10 -16
-2 -4 6 -3 11 3 11 5 0 48 39 95 86 47 47 90 83 95 80 5 -4 13 -1 17 5 4 8 3
9 -4 5 -30 -18 -5 13 63 81 41 41 75 79 75 85 0 6 8 2 18 -9 9 -10 14 -14 10
-9 -21 27 -6 51 28 47 6 -1 18 7 25 16 13 16 12 17 -4 4 -9 -8 -20 -11 -23 -8
-9 9 5 27 22 27 8 0 13 6 12 13 -2 6 3 11 10 9 6 -1 11 1 10 5 -5 15 35 64 48
59 9 -3 11 0 7 11 -5 13 -2 15 12 10 16 -7 16 -5 4 10 -8 9 -9 14 -4 11 6 -3
16 0 23 8 7 8 11 14 8 14 -3 0 6 12 19 26 22 23 27 25 42 13 16 -13 17 -12 5
3 -15 19 -7 42 10 32 7 -4 8 -2 4 4 -4 6 6 25 21 42 31 34 34 37 83 100 19 24
46 56 59 70 13 14 30 35 38 48 9 12 23 22 32 22 13 0 13 2 2 9 -9 6 -10 11 -2
15 6 4 16 4 23 0 7 -4 8 -3 4 4 -4 6 3 25 15 41 16 23 27 28 48 25 19 -3 22
-2 11 5 -8 5 -18 7 -22 5 -4 -3 -8 -1 -8 5 0 18 21 23 38 9 15 -11 16 -11 4 3
-14 18 -6 52 12 46 6 -2 11 -9 11 -15 0 -5 3 -13 7 -17 3 -4 5 1 4 12 -2 10 2
25 8 33 10 13 9 13 -6 1 -19 -14 -23 -5 -9 18 5 8 14 10 21 6 9 -6 11 -4 6 4
-5 7 0 21 10 32 9 10 14 19 10 19 -4 0 4 11 18 24 15 13 26 28 26 34 0 6 10
19 23 29 13 10 24 22 24 26 1 5 10 20 22 33 11 13 22 27 22 32 1 4 9 17 17 30
11 17 18 20 28 11 8 -6 11 -16 7 -23 -3 -6 -2 -7 2 -3 13 11 15 37 3 34 -6 -1
-13 4 -16 12 -3 10 0 12 11 8 10 -4 14 -2 11 7 -3 7 6 24 18 38 13 14 24 32
26 39 2 8 10 21 19 29 10 9 13 10 8 2 -5 -9 -1 -12 11 -10 13 2 19 -4 20 -19
1 -22 -6 -27 -33 -24 -17 2 -23 -13 -11 -29 8 -12 9 -11 4 3 -4 12 -2 17 6 14
7 -2 21 0 30 4 12 7 20 4 27 -8 6 -10 11 -14 11 -9 0 5 -7 18 -17 28 -9 11
-11 18 -5 18 7 0 12 -3 12 -7 0 -5 11 -21 25 -37 13 -16 22 -33 18 -39 -3 -6
-1 -7 5 -3 12 7 52 -31 51 -49 0 -5 9 -13 21 -17 14 -5 20 -14 17 -23 -4 -10
-1 -12 10 -8 13 5 15 2 11 -15 -4 -15 -2 -19 8 -15 8 3 14 0 14 -7 0 -6 5 -8
10 -5 6 3 10 -4 10 -16 0 -12 3 -19 7 -16 7 8 39 -34 35 -46 -1 -4 3 -6 10 -5
6 2 17 -7 23 -19 7 -13 15 -20 19 -16 4 4 9 -3 13 -15 3 -12 12 -22 19 -22 8
0 14 -4 14 -10 0 -5 9 -19 20 -30 12 -12 18 -25 15 -30 -3 -6 1 -7 9 -4 9 3
16 1 16 -5 0 -5 18 -28 40 -50 22 -22 38 -45 37 -53 -2 -7 -2 -10 0 -5 3 4 10
7 16 7 5 0 8 -3 5 -6 -4 -3 10 -21 29 -39 32 -31 35 -36 22 -52 -12 -16 -12
-17 2 -6 13 11 22 5 58 -33 24 -26 39 -50 35 -57 -4 -7 -4 -9 1 -5 9 8 35 -15
35 -32 0 -6 4 -8 10 -5 5 3 15 -5 21 -19 7 -14 20 -28 31 -31 10 -4 18 -11 18
-17 0 -5 -7 -8 -15 -5 -8 4 -17 2 -20 -3 -3 -4 6 -7 20 -5 18 2 29 -4 38 -21
7 -13 15 -23 20 -23 4 -1 10 -1 15 -1 4 0 0 -5 -8 -10 -13 -9 -13 -10 1 -10 8
0 26 -12 40 -27 13 -14 18 -23 10 -18 -9 5 -12 4 -7 -3 4 -7 14 -12 22 -12 8
0 13 -4 9 -9 -3 -5 4 -12 15 -16 11 -3 20 -12 20 -18 0 -7 14 -23 30 -37 29
-24 42 -49 18 -34 -7 5 -8 3 -4 -5 5 -7 11 -10 14 -7 8 9 52 -35 52 -51 0 -8
4 -12 9 -9 8 5 23 -16 25 -36 1 -3 5 -10 10 -15 5 -5 6 -3 2 5 -4 6 -2 12 3
12 6 0 11 -4 11 -10 0 -5 9 -19 20 -30 12 -12 18 -25 15 -29 -2 -5 3 -8 13 -7
11 1 18 -7 20 -23 3 -19 6 -21 13 -10 7 11 9 11 9 -3 0 -10 5 -18 10 -18 6 0
10 -6 10 -14 0 -7 10 -16 21 -19 14 -4 20 -11 16 -21 -4 -9 -3 -15 1 -13 16 5
62 -52 56 -70 -5 -14 -4 -15 4 -4 11 16 32 7 32 -15 0 -8 5 -14 11 -14 5 0 7
-5 4 -10 -4 -6 -2 -9 3 -8 10 3 72 -59 72 -73 0 -5 6 -9 14 -9 13 0 31 -27 28
-42 -1 -4 4 -5 12 -2 7 3 19 -2 26 -10 7 -9 17 -13 22 -10 6 4 8 -3 4 -17 -3
-13 -3 -18 0 -11 8 17 43 15 51 -4 5 -13 7 -13 14 -2 6 9 9 10 9 1 0 -7 7 -10
16 -6 9 3 20 0 25 -8 7 -12 9 -12 9 0 0 11 4 9 15 -5 10 -12 14 -14 13 -4 -3
16 33 21 44 5 4 -6 8 -2 8 9 0 13 5 17 20 13 11 -3 20 -1 20 4 0 4 7 6 15 2 9
-3 15 -1 13 5 -2 5 1 10 5 10 5 1 18 14 30 29 12 15 25 30 29 31 5 2 6 8 2 13
-3 5 -1 9 4 9 17 0 11 139 -8 178 -10 20 -16 40 -13 44 2 5 -1 8 -8 8 -7 0
-10 3 -6 6 3 3 -1 23 -8 44 -7 21 -11 41 -8 44 4 3 0 6 -7 6 -7 0 -10 3 -7 7
4 3 0 17 -8 30 -12 17 -12 23 -3 23 8 0 6 5 -4 10 -10 6 -15 19 -13 30 2 11 1
20 -3 20 -13 0 -54 119 -46 131 3 5 1 9 -4 9 -8 0 -39 78 -46 115 -1 6 -10 24
-19 42 -20 38 -21 46 -4 38 6 -4 4 0 -5 8 -10 8 -15 17 -11 20 3 4 1 12 -5 19
-5 7 -12 22 -14 33 -1 11 -5 22 -8 25 -3 3 -16 36 -29 74 -20 57 -22 70 -10
78 11 8 10 9 -3 4 -14 -4 -21 5 -33 47 -8 29 -15 56 -14 61 0 5 -5 12 -11 16
-7 4 -13 19 -13 34 -1 14 -6 26 -10 26 -5 0 -5 5 -2 10 3 6 1 10 -6 10 -7 0
-10 3 -6 6 3 4 0 19 -9 35 -8 16 -14 30 -14 31 1 4 -9 36 -20 63 -4 11 -13 36
-20 55 -7 19 -16 44 -20 55 -15 36 -34 100 -32 108 1 4 -3 7 -9 7 -5 0 -8 4
-5 8 2 4 -1 21 -8 37 -7 17 -19 44 -26 60 -8 17 -13 33 -12 37 1 4 -12 42 -29
83 -17 42 -31 85 -32 96 -1 10 -4 19 -8 19 -3 0 -12 21 -19 48 -7 26 -16 52
-19 57 -11 20 -31 80 -31 98 0 9 -4 17 -10 17 -5 0 -10 8 -10 18 0 11 -7 33
-16 50 -8 18 -12 37 -8 43 4 8 3 9 -4 5 -8 -5 -12 2 -12 18 0 14 -4 26 -8 26
-4 0 -9 12 -10 27 -1 15 -6 29 -10 32 -5 3 -14 27 -22 53 -7 27 -16 48 -21 48
-4 0 -6 9 -4 20 2 11 -2 26 -8 33 -7 7 -14 19 -16 27 -4 18 -7 28 -16 57 -4
12 -6 25 -5 29 1 4 -3 10 -10 14 -6 4 -12 17 -13 28 -1 12 -6 22 -11 22 -5 0
-6 3 -3 7 4 3 2 12 -4 20 -6 7 -9 22 -6 33 3 11 1 18 -4 14 -8 -5 -13 9 -10
29 0 4 -4 7 -10 7 -6 0 -9 7 -6 15 4 8 1 17 -4 21 -6 3 -9 15 -6 25 3 11 1 17
-4 13 -5 -3 -9 3 -9 13 0 11 -5 24 -10 29 -6 6 -12 24 -13 41 -1 17 -6 29 -11
25 -5 -3 -7 5 -4 16 4 12 1 25 -4 29 -7 4 -8 1 -3 -8 5 -8 4 -10 0 -6 -14 12
-15 38 -2 31 7 -3 5 0 -4 8 -17 14 -17 37 1 83 l11 28 22 -22 c13 -11 27 -21
31 -21 4 0 -5 11 -20 24 -28 23 -28 24 -10 51 12 18 13 25 5 20 -8 -3 -6 0 4
8 10 9 18 17 17 19 -4 11 38 87 45 80 5 -4 5 -2 1 5 -8 14 47 137 56 128 3 -4
6 0 5 7 -1 32 4 49 12 43 6 -3 8 4 6 15 -2 11 0 20 6 20 5 0 9 8 9 18 0 10 3
22 8 26 4 4 7 13 7 19 1 7 6 11 13 10 7 -2 9 4 5 14 -5 12 -3 14 8 8 11 -6 12
-5 2 5 -10 11 -10 17 1 29 8 9 15 19 15 24 1 4 4 6 9 5 4 -2 6 -6 4 -10 -1 -5
2 -8 8 -8 15 0 12 11 -7 33 -17 20 -17 20 1 13 17 -6 17 -5 5 11 -11 13 -11
15 -1 9 9 -5 12 -3 10 5 -5 25 31 101 45 93 9 -5 9 -4 1 5 -9 10 -8 19 2 39 8
15 14 33 14 40 0 6 5 12 11 12 5 0 8 4 5 9 -3 5 1 22 9 37 8 16 15 37 15 48 0
12 5 16 15 13 8 -4 17 -1 21 5 4 6 3 8 -4 4 -18 -11 -22 9 -6 38 7 16 14 35
14 43 0 8 4 12 9 9 5 -4 8 2 6 11 -1 10 0 23 4 28 3 6 7 19 8 30 2 11 11 26
20 33 11 8 13 12 4 12 -10 0 -11 3 -2 13 6 8 8 17 4 20 -3 4 2 7 13 8 10 0 13
3 7 6 -9 3 -10 10 -3 22 5 10 6 21 3 25 -3 3 0 6 7 6 7 0 11 3 7 6 -8 9 14 65
23 59 5 -3 12 0 16 6 4 7 3 9 -4 5 -6 -3 -13 -2 -16 3 -4 5 -2 12 4 16 6 4 8
11 5 16 -4 5 -1 9 6 9 7 0 9 3 6 7 -4 3 1 15 10 26 10 11 12 17 6 13 -7 -4
-13 -2 -13 3 0 6 5 11 11 11 5 0 8 4 4 9 -3 5 -1 12 4 16 6 3 8 12 4 20 -3 10
1 15 13 16 11 0 14 3 7 5 -9 4 -8 16 3 47 15 42 20 60 30 106 3 13 10 33 16
44 5 11 12 34 15 51 2 17 8 42 14 56 10 27 20 67 21 88 1 6 8 12 17 12 14 0
14 2 1 10 -9 6 -11 13 -5 18 6 4 12 21 13 37 2 17 7 34 12 39 5 5 6 15 3 24
-4 8 -2 13 3 9 5 -3 9 7 8 21 -1 15 1 32 5 37 3 6 6 12 6 15 0 3 7 33 14 67 9
41 18 60 25 56 6 -4 6 -1 -1 9 -7 8 -10 17 -7 21 6 6 21 60 30 112 3 17 10 38
15 47 6 11 5 19 -1 23 -7 4 -8 11 -1 18 5 7 11 16 13 22 1 5 7 9 12 7 5 -2 4
3 -2 11 -7 8 -9 17 -5 20 3 4 6 20 7 37 1 17 8 35 16 40 10 7 11 10 2 10 -12
0 -12 5 2 70 3 14 7 39 8 55 1 17 6 36 11 43 6 8 6 12 -1 12 -6 0 -9 7 -5 16
7 19 10 45 12 107 1 35 4 46 14 41 10 -6 10 -4 0 7 -16 16 -17 33 -1 23 7 -5
8 -3 3 6 -10 16 -13 120 -4 120 10 0 5 34 -6 42 -7 5 -6 8 1 8 11 0 12 55 1
66 -3 4 -3 14 1 23 6 14 8 47 2 61 -1 3 -3 22 -5 42 -2 27 1 36 9 31 8 -5 8
-3 0 8 -6 8 -11 21 -12 29 0 22 -10 118 -18 170 -4 25 -7 55 -7 68 -1 12 -4
22 -7 22 -3 0 -6 8 -7 18 -1 9 -3 33 -5 52 -2 19 -6 37 -10 40 -4 3 -9 19 -12
35 -2 17 -5 30 -6 30 -1 0 -4 13 -6 29 -3 16 -10 38 -15 48 -5 10 -7 23 -4 28
3 5 1 11 -5 15 -6 4 -8 11 -5 16 4 5 2 9 -2 9 -5 0 -15 21 -22 48 -8 26 -18
54 -22 62 -7 13 -19 44 -24 60 -1 3 -13 31 -28 62 -15 31 -27 62 -27 67 0 6
-5 11 -11 11 -5 0 -8 4 -5 9 4 5 2 11 -3 13 -5 1 -11 10 -13 18 -2 8 -6 19
-11 25 -28 39 -55 85 -49 85 4 0 3 4 -3 8 -15 11 -55 70 -55 82 0 5 -4 10 -8
10 -5 0 -15 12 -23 27 -8 15 -23 37 -34 49 -22 25 -49 57 -97 117 -49 61 -245
249 -314 302 -15 11 -34 27 -44 35 -9 8 -23 20 -32 25 -163 110 -282 188 -318
208 -51 30 -304 155 -365 182 -22 9 -53 23 -69 31 -16 8 -35 14 -43 14 -7 0
-13 5 -13 11 0 5 -4 8 -9 5 -5 -3 -20 3 -33 14 -14 11 -28 17 -31 14 -3 -3 -3
3 0 15 3 12 10 18 17 14 6 -4 5 1 -3 10 -7 9 -11 17 -7 17 3 0 1 11 -4 24 -7
19 -5 26 6 30 9 3 20 3 26 0 15 -9 68 -13 72 -5 4 6 -21 9 -91 12 -12 1 -22 4
-21 8 0 3 -1 8 -2 11 -8 18 -7 80 1 80 6 0 8 4 4 9 -3 5 -1 12 5 16 6 4 8 10
5 15 -3 5 -1 11 5 15 6 4 8 11 5 16 -4 5 1 9 10 9 9 0 13 5 10 10 -3 6 -1 10
4 10 6 0 10 3 10 8 -3 20 3 32 17 32 9 0 12 5 8 13 -4 6 -4 9 1 5 4 -4 14 0
21 10 12 15 15 15 25 2 9 -13 10 -12 5 2 -6 20 47 54 66 42 6 -4 8 -3 4 4 -8
13 48 27 66 16 10 -6 11 -4 1 7 -7 7 -13 19 -13 27 0 12 3 12 17 1 11 -10 14
-10 9 -1 -4 6 -2 12 3 12 6 0 11 -5 11 -11 0 -6 5 -7 13 -2 19 12 98 12 90 0
-3 -6 -1 -7 5 -3 16 10 12 124 -5 159 -7 15 -11 27 -8 27 4 0 0 7 -9 15 -17
17 -46 20 -46 5 0 -5 -3 -9 -7 -8 -5 1 -29 -4 -55 -12 -44 -13 -54 -24 -49
-53 1 -5 -3 -6 -9 -2 -6 3 -8 11 -5 16 4 5 1 9 -4 9 -6 0 -11 8 -11 18 0 10
-5 23 -12 30 -9 9 -9 12 3 12 8 0 10 3 4 8 -10 7 -35 57 -35 69 0 3 9 -4 20
-17 11 -13 20 -19 20 -14 0 5 11 9 24 9 13 0 22 -3 19 -7 -2 -5 0 -8 6 -8 5 0
13 5 17 11 4 8 9 7 15 -2 6 -10 9 -10 9 -2 0 6 9 10 20 8 13 -3 20 2 21 13 6
76 2 110 -13 134 -10 14 -18 31 -18 36 0 18 -17 23 -42 13 -13 -5 -44 -17 -70
-26 -41 -14 -48 -21 -48 -43 -1 -24 -2 -25 -11 -9 -6 10 -8 25 -5 33 3 8 2 12
-3 9 -9 -5 -17 12 -26 52 -2 10 -6 26 -10 36 -4 10 -3 17 4 17 6 0 11 -4 11
-10 0 -5 12 -7 28 -5 15 3 45 7 67 9 33 3 40 7 39 25 0 11 3 21 7 21 5 0 4 11
-1 24 -5 13 -6 26 -3 30 3 3 -2 22 -12 43 -10 21 -18 43 -18 50 0 7 -3 10 -7
8 -6 -4 -48 -14 -80 -19 -29 -4 -70 -29 -70 -42 0 -7 -5 -16 -12 -20 -7 -5 -9
0 -6 14 4 13 0 23 -10 27 -8 3 -12 8 -9 12 3 3 0 21 -8 40 -8 19 -12 39 -9 44
3 5 1 9 -4 9 -12 0 -43 86 -34 94 3 3 -1 6 -8 6 -7 0 -11 3 -7 6 3 4 0 19 -9
35 -8 16 -12 29 -9 29 3 0 0 10 -7 23 -7 12 -11 28 -10 35 2 6 -2 12 -8 12 -5
0 -9 3 -8 8 4 21 -18 65 -42 82 -21 15 -43 20 -92 19 -34 0 -69 -3 -76 -6z
m-5267 -7264 c-2 -11 0 -17 6 -14 15 10 23 -26 8 -37 -11 -8 -10 -9 3 -4 14 4
24 -7 44 -45 14 -28 23 -57 20 -65 -3 -8 0 -11 10 -7 10 4 14 -2 14 -22 0 -15
4 -24 10 -20 6 3 10 -1 10 -9 0 -8 7 -22 16 -30 14 -15 13 -16 -8 -17 -13 -1
-33 -3 -45 -4 -13 -1 -23 3 -23 9 0 6 -5 4 -10 -4 -6 -10 -10 -11 -10 -3 0 9
-7 10 -22 5 -38 -13 -77 -6 -101 17 -13 11 -28 21 -34 21 -6 0 -9 9 -6 20 3
11 10 20 17 20 7 0 6 4 -2 9 -11 6 -10 12 5 26 10 10 16 19 14 19 -9 2 13 52
28 64 9 8 10 11 4 7 -16 -8 -16 0 -2 26 5 11 14 17 19 14 14 -9 23 15 10 30
-8 9 -8 15 0 20 6 3 8 12 4 18 -3 7 1 4 10 -6 8 -11 13 -28 11 -38z m-25 -9
c0 -5 -2 -10 -4 -10 -3 0 -8 5 -11 10 -3 6 -1 10 4 10 6 0 11 -4 11 -10z"/>
<path d="M2610 3976 c0 -2 8 -10 18 -17 15 -13 16 -12 3 4 -13 16 -21 21 -21
13z"/>
<path d="M2559 3913 c-13 -16 -12 -17 4 -4 16 13 21 21 13 21 -2 0 -10 -8 -17
-17z"/>
<path d="M2633 3915 c0 -8 4 -12 9 -9 5 3 6 10 3 15 -9 13 -12 11 -12 -6z"/>
<path d="M2666 3918 c3 -4 9 -8 15 -8 5 0 9 4 9 8 0 5 -7 9 -15 9 -8 0 -12 -4
-9 -9z"/>
<path d="M2726 3802 c-3 -5 1 -9 9 -9 8 0 12 4 9 9 -3 4 -7 8 -9 8 -2 0 -6 -4
-9 -8z"/>
<path d="M8336 10682 c-3 -5 1 -9 9 -9 8 0 15 4 15 9 0 4 -4 8 -9 8 -6 0 -12
-4 -15 -8z"/>
<path d="M7595 10630 c-4 -6 -11 -7 -17 -4 -7 4 -8 2 -4 -5 6 -9 11 -9 22 0
14 11 18 19 10 19 -3 0 -8 -5 -11 -10z"/>
<path d="M8410 10417 c0 -2 6 -10 14 -16 11 -9 16 -9 22 1 4 7 4 10 -1 6 -4
-4 -14 -3 -22 3 -7 6 -13 9 -13 6z"/>
<path d="M7415 10400 c3 -5 8 -10 11 -10 2 0 4 5 4 10 0 6 -5 10 -11 10 -5 0
-7 -4 -4 -10z"/>
<path d="M7474 10402 c4 -3 14 -7 22 -8 9 -1 13 0 10 4 -4 3 -14 7 -22 8 -9 1
-13 0 -10 -4z"/>
<path d="M8450 10380 c0 -5 5 -10 11 -10 5 0 7 5 4 10 -3 6 -8 10 -11 10 -2 0
-4 -4 -4 -10z"/>
<path d="M7392 10165 c3 -3 16 -8 28 -10 12 -2 20 -1 16 2 -4 4 -16 8 -28 10
-12 2 -19 1 -16 -2z"/>
<path d="M8435 10129 c-4 -6 -5 -12 -2 -15 2 -3 7 2 10 11 7 17 1 20 -8 4z"/>
<path d="M7556 10058 c3 -5 10 -6 15 -3 13 9 11 12 -6 12 -8 0 -12 -4 -9 -9z"/>
<path d="M7618 10038 c4 -16 2 -19 -8 -13 -9 5 -11 4 -6 -4 4 -6 12 -9 17 -6
12 8 12 32 0 39 -5 4 -7 -4 -3 -16z"/>
<path d="M8295 10021 c-11 -14 -18 -33 -16 -41 1 -8 0 -12 -4 -8 -10 10 -47
-11 -40 -22 3 -5 1 -11 -5 -15 -6 -4 -8 -10 -5 -15 3 -5 1 -12 -5 -15 -8 -5
-7 -11 1 -21 7 -9 8 -14 1 -14 -6 0 -9 -8 -8 -17 3 -16 46 -27 46 -11 0 4 -7
8 -15 8 -8 0 -15 5 -15 11 0 5 5 7 10 4 6 -4 9 -1 8 6 -2 6 3 14 10 16 8 3 10
-2 6 -14 -5 -14 -4 -15 4 -3 13 17 5 33 -14 26 -7 -3 -16 -1 -19 4 -6 10 7 14
38 11 9 -1 17 2 17 8 0 6 -6 8 -12 6 -8 -3 -14 5 -15 22 -1 26 0 27 13 8 8
-10 14 -13 14 -6 0 7 5 9 11 5 6 -3 4 4 -5 18 -15 22 -14 25 6 43 15 12 23 14
26 7 2 -7 8 -12 14 -12 7 0 7 5 -1 13 -6 8 -9 16 -6 19 3 2 -1 5 -8 5 -7 0
-22 -12 -32 -26z m-39 -90 c-4 -6 -13 -11 -19 -11 -8 0 -7 3 2 9 8 5 10 14 6
22 -6 11 -5 11 5 2 7 -6 9 -16 6 -22z"/>
<path d="M7580 10006 c0 -2 7 -9 15 -16 9 -7 15 -8 15 -2 0 5 -7 12 -15 16 -8
3 -15 4 -15 2z"/>
<path d="M7630 9995 c0 -9 7 -18 15 -21 20 -8 19 -22 -2 -27 -14 -3 -13 -4 2
-3 15 1 19 7 18 24 -2 13 1 21 7 17 6 -3 7 1 4 10 -6 14 -8 14 -21 -2 -14 -17
-14 -17 -9 0 3 9 1 17 -4 17 -6 0 -10 -7 -10 -15z"/>
<path d="M8308 9993 c6 -2 18 -2 25 0 6 3 1 5 -13 5 -14 0 -19 -2 -12 -5z"/>
<path d="M7596 9958 c3 -4 11 -5 19 -1 21 7 19 12 -4 10 -11 0 -18 -5 -15 -9z"/>
<path d="M8312 9944 c-11 -12 -9 -13 7 -11 11 2 24 7 28 12 5 4 3 5 -4 2 -6
-4 -13 -3 -15 2 -1 5 -9 3 -16 -5z"/>
<path d="M7628 9912 c9 -10 19 -17 21 -16 6 5 -20 34 -30 34 -5 0 -1 -8 9 -18z"/>
<path d="M7616 9897 c3 -10 9 -15 12 -12 3 3 0 11 -7 18 -10 9 -11 8 -5 -6z"/>
<path d="M8297 9903 c-2 -5 -3 -17 -3 -27 1 -22 33 -31 33 -10 0 10 -4 11 -13
3 -10 -8 -12 -5 -11 11 1 17 6 21 24 17 12 -2 20 0 17 4 -6 11 -41 12 -47 2z"/>
<path d="M8270 9835 c0 -8 2 -15 4 -15 2 0 6 7 10 15 3 8 1 15 -4 15 -6 0 -10
-7 -10 -15z"/>
<path d="M8230 9791 c0 -5 7 -11 15 -15 8 -3 15 -1 15 3 0 5 -7 11 -15 15 -8
3 -15 1 -15 -3z"/>
<path d="M8270 9766 c0 -8 4 -17 8 -20 4 -2 8 4 8 15 0 10 -4 19 -8 19 -4 0
-8 -6 -8 -14z"/>
<path d="M8233 9755 c0 -8 4 -12 8 -10 4 3 9 -2 13 -10 3 -8 -2 -18 -11 -23
-9 -6 -12 -12 -5 -16 5 -3 13 1 16 10 3 8 11 12 17 8 15 -9 -5 29 -24 44 -11
9 -14 8 -14 -3z"/>
<path d="M8270 9690 c-9 -6 -10 -10 -3 -10 6 0 15 5 18 10 8 12 4 12 -15 0z"/>
<path d="M1773 6345 c0 -8 4 -12 9 -9 5 3 6 10 3 15 -9 13 -12 11 -12 -6z"/>
<path d="M9913 6285 c0 -8 4 -12 9 -9 5 3 6 10 3 15 -9 13 -12 11 -12 -6z"/>
<path d="M1856 5993 c-6 -14 -5 -15 5 -6 7 7 10 15 7 18 -3 3 -9 -2 -12 -12z"/>
<path d="M9770 5740 c0 -5 5 -10 11 -10 5 0 7 5 4 10 -3 6 -8 10 -11 10 -2 0
-4 -4 -4 -10z"/>
<path d="M1995 5551 c-3 -5 -2 -12 3 -15 5 -3 9 1 9 9 0 17 -3 19 -12 6z"/>
<path d="M1955 5509 c-4 -6 -5 -12 -2 -15 2 -3 7 2 10 11 7 17 1 20 -8 4z"/>
<path d="M9650 5380 c0 -5 5 -10 11 -10 5 0 7 5 4 10 -3 6 -8 10 -11 10 -2 0
-4 -4 -4 -10z"/>
<path d="M9646 5342 c-3 -5 1 -9 9 -9 8 0 12 4 9 9 -3 4 -7 8 -9 8 -2 0 -6 -4
-9 -8z"/>
<path d="M9420 4746 c0 -2 8 -10 18 -17 15 -13 16 -12 3 4 -13 16 -21 21 -21
13z"/>
<path d="M9336 4462 c-3 -5 1 -9 9 -9 8 0 12 4 9 9 -3 4 -7 8 -9 8 -2 0 -6 -4
-9 -8z"/>
<path d="M9309 4403 c-13 -16 -12 -17 4 -4 16 13 21 21 13 21 -2 0 -10 -8 -17
-17z"/>
<path d="M9193 4225 c0 -8 4 -12 9 -9 5 3 6 10 3 15 -9 13 -12 11 -12 -6z"/>
<path d="M9133 4115 c0 -8 4 -12 9 -9 5 3 6 10 3 15 -9 13 -12 11 -12 -6z"/>
<path d="M1156 3063 c-6 -14 -5 -15 5 -6 7 7 10 15 7 18 -3 3 -9 -2 -12 -12z"/>
<path d="M1370 2911 c0 -6 4 -13 10 -16 6 -3 7 1 4 9 -7 18 -14 21 -14 7z"/>
<path d="M2975 2909 c-4 -6 -5 -12 -2 -15 2 -3 7 2 10 11 7 17 1 20 -8 4z"/>
<path d="M2155 2900 c-3 -6 1 -7 9 -4 18 7 21 14 7 14 -6 0 -13 -4 -16 -10z"/>
<path d="M2375 2900 c-3 -5 -1 -10 4 -10 6 0 11 5 11 10 0 6 -2 10 -4 10 -3 0
-8 -4 -11 -10z"/>
<path d="M2580 2900 c-12 -7 -10 -9 7 -7 12 0 19 5 17 9 -6 10 -6 10 -24 -2z"/>
<path d="M2855 2900 c-3 -5 -1 -10 4 -10 6 0 11 5 11 10 0 6 -2 10 -4 10 -3 0
-8 -4 -11 -10z"/>
<path d="M3173 2897 c-3 -6 -1 -7 5 -3 15 9 16 -6 1 -21 -8 -8 -8 -13 0 -18 6
-3 10 -3 9 2 -1 4 3 17 9 29 10 17 9 21 -3 21 -8 0 -18 -5 -21 -10z"/>
<path d="M3251 2903 c0 -4 4 -17 9 -28 8 -19 9 -19 9 2 1 12 -3 25 -9 28 -5 3
-10 3 -9 -2z"/>
<path d="M1953 2875 c0 -8 4 -12 9 -9 5 3 6 10 3 15 -9 13 -12 11 -12 -6z"/>
<path d="M2675 2880 c-3 -5 -1 -10 4 -10 6 0 11 5 11 10 0 6 -2 10 -4 10 -3 0
-8 -4 -11 -10z"/>
<path d="M2915 2880 c-3 -5 -1 -10 4 -10 6 0 11 5 11 10 0 6 -2 10 -4 10 -3 0
-8 -4 -11 -10z"/>
<path d="M3210 2880 c0 -5 5 -10 10 -10 6 0 10 5 10 10 0 6 -4 10 -10 10 -5 0
-10 -4 -10 -10z"/>
<path d="M3266 2842 c-3 -5 1 -9 9 -9 8 0 15 4 15 9 0 4 -4 8 -9 8 -6 0 -12
-4 -15 -8z"/>
<path d="M3286 2798 c3 -5 10 -6 15 -3 13 9 11 12 -6 12 -8 0 -12 -4 -9 -9z"/>
<path d="M3373 2727 c0 -8 6 -14 14 -14 9 0 10 4 2 14 -6 7 -12 13 -14 13 -1
0 -2 -6 -2 -13z"/>
<path d="M3433 2635 c0 -8 4 -12 9 -9 4 3 8 9 8 15 0 5 -4 9 -8 9 -5 0 -9 -7
-9 -15z"/>
<path d="M8216 2575 c-2 -6 5 -11 15 -11 10 0 20 5 23 11 2 6 -5 11 -15 11
-10 0 -20 -5 -23 -11z"/>
<path d="M3475 2540 c-3 -5 -1 -10 4 -10 6 0 11 5 11 10 0 6 -2 10 -4 10 -3 0
-8 -4 -11 -10z"/>
<path d="M3515 2520 c2 -27 10 -33 12 -10 1 11 -2 22 -6 24 -4 3 -7 -4 -6 -14z"/>
<path d="M8260 2500 c-9 -6 -10 -10 -3 -10 6 0 15 5 18 10 8 12 4 12 -15 0z"/>
<path d="M8296 2478 c3 -5 10 -6 15 -3 13 9 11 12 -6 12 -8 0 -12 -4 -9 -9z"/>
<path d="M3552 2460 c2 -9 -3 -14 -12 -12 -8 2 -11 0 -7 -4 4 -4 14 -9 21 -10
14 -2 16 20 2 33 -4 4 -6 1 -4 -7z"/>
<path d="M8210 2459 c0 -5 5 -7 10 -4 6 3 10 8 10 11 0 2 -4 4 -10 4 -5 0 -10
-5 -10 -11z"/>
<path d="M8256 2458 c3 -4 11 -5 19 -1 21 7 19 12 -4 10 -11 0 -18 -5 -15 -9z"/>
<path d="M8340 2466 c0 -2 8 -10 18 -17 15 -13 16 -12 3 4 -13 16 -21 21 -21
13z"/>
<path d="M3550 2417 c0 -2 6 -10 14 -16 11 -9 16 -9 22 1 4 7 4 10 -1 6 -4 -4
-14 -3 -22 3 -7 6 -13 9 -13 6z"/>
<path d="M8136 2407 c3 -10 9 -15 12 -12 3 3 0 11 -7 18 -10 9 -11 8 -5 -6z"/>
<path d="M3600 2406 c0 -2 8 -10 18 -17 15 -13 16 -12 3 4 -13 16 -21 21 -21
13z"/>
<path d="M8140 2365 c0 -2 6 -8 13 -14 10 -8 14 -7 14 2 0 8 -6 14 -14 14 -7
0 -13 -1 -13 -2z"/>
<path d="M3560 2320 c-9 -6 -10 -10 -3 -10 6 0 15 5 18 10 8 12 4 12 -15 0z"/>
<path d="M3630 2321 c0 -6 4 -13 10 -16 6 -3 7 1 4 9 -7 18 -14 21 -14 7z"/>
<path d="M3666 2302 c-3 -5 1 -9 9 -9 8 0 12 4 9 9 -3 4 -7 8 -9 8 -2 0 -6 -4
-9 -8z"/>
<path d="M8086 2302 c-3 -5 1 -9 9 -9 8 0 12 4 9 9 -3 4 -7 8 -9 8 -2 0 -6 -4
-9 -8z"/>
<path d="M3695 2249 c-4 -6 -5 -12 -2 -15 2 -3 7 2 10 11 7 17 1 20 -8 4z"/>
<path d="M3713 2225 c0 -8 4 -12 9 -9 5 3 6 10 3 15 -9 13 -12 11 -12 -6z"/>
<path d="M7990 2216 c7 -7 13 -7 20 0 6 6 3 10 -10 10 -13 0 -16 -4 -10 -10z"/>
<path d="M8035 2219 c-3 -4 2 -6 10 -5 21 3 28 13 10 13 -9 0 -18 -4 -20 -8z"/>
<path d="M3755 2201 c-3 -5 -2 -12 3 -15 5 -3 9 1 9 9 0 17 -3 19 -12 6z"/>
<path d="M7990 2197 c0 -2 6 -10 14 -16 11 -9 16 -9 22 1 4 7 4 10 -1 6 -4 -4
-14 -3 -22 3 -7 6 -13 9 -13 6z"/>
<path d="M8570 2179 c0 -5 5 -7 10 -4 6 3 10 8 10 11 0 2 -4 4 -10 4 -5 0 -10
-5 -10 -11z"/>
<path d="M3640 2166 c0 -2 8 -10 18 -17 15 -13 16 -12 3 4 -13 16 -21 21 -21
13z"/>
<path d="M3810 2120 c0 -5 5 -10 11 -10 5 0 7 5 4 10 -3 6 -8 10 -11 10 -2 0
-4 -4 -4 -10z"/>
<path d="M3831 2087 c2 -1 13 -9 24 -17 19 -14 19 -14 6 3 -7 9 -18 17 -24 17
-6 0 -8 -1 -6 -3z"/>
<path d="M3790 2060 c0 -5 5 -10 11 -10 5 0 7 5 4 10 -3 6 -8 10 -11 10 -2 0
-4 -4 -4 -10z"/>
<path d="M8695 2060 c3 -5 8 -10 11 -10 2 0 4 5 4 10 0 6 -5 10 -11 10 -5 0
-7 -4 -4 -10z"/>
<path d="M7876 2033 c-6 -14 -5 -15 5 -6 7 7 10 15 7 18 -3 3 -9 -2 -12 -12z"/>
<path d="M3815 2020 c3 -5 8 -10 11 -10 2 0 4 5 4 10 0 6 -5 10 -11 10 -5 0
-7 -4 -4 -10z"/>
<path d="M3880 2005 c0 -2 6 -8 13 -14 10 -8 14 -7 14 2 0 8 -6 14 -14 14 -7
0 -13 -1 -13 -2z"/>
<path d="M7870 1999 c0 -5 5 -7 10 -4 6 3 10 8 10 11 0 2 -4 4 -10 4 -5 0 -10
-5 -10 -11z"/>
<path d="M7802 1978 c-15 -15 -15 -28 0 -28 6 0 8 3 5 7 -4 3 -2 12 4 20 14
16 7 17 -9 1z"/>
<path d="M8807 1939 c7 -7 15 -10 18 -7 3 3 -2 9 -12 12 -14 6 -15 5 -6 -5z"/>
<path d="M3973 1925 c0 -8 4 -15 9 -15 4 0 8 4 8 9 0 6 -4 12 -8 15 -5 3 -9
-1 -9 -9z"/>
<path d="M3895 1920 c-3 -5 -1 -10 4 -10 6 0 11 5 11 10 0 6 -2 10 -4 10 -3 0
-8 -4 -11 -10z"/>
<path d="M7740 1926 c0 -2 8 -10 18 -17 15 -13 16 -12 3 4 -13 16 -21 21 -21
13z"/>
<path d="M7773 1855 c0 -8 4 -12 9 -9 5 3 6 10 3 15 -9 13 -12 11 -12 -6z"/>
<path d="M7705 1840 c10 -11 20 -20 23 -20 3 0 -3 9 -13 20 -10 11 -20 20 -23
20 -3 0 3 -9 13 -20z"/>
<path d="M3975 1820 c3 -5 8 -10 11 -10 2 0 4 5 4 10 0 6 -5 10 -11 10 -5 0
-7 -4 -4 -10z"/>
<path d="M8885 1820 c-3 -6 1 -7 9 -4 18 7 21 14 7 14 -6 0 -13 -4 -16 -10z"/>
<path d="M8936 1787 c3 -10 9 -15 12 -12 3 3 0 11 -7 18 -10 9 -11 8 -5 -6z"/>
<path d="M4067 1779 c7 -7 15 -10 18 -7 3 3 -2 9 -12 12 -14 6 -15 5 -6 -5z"/>
<path d="M7670 1780 c0 -5 5 -10 11 -10 5 0 7 5 4 10 -3 6 -8 10 -11 10 -2 0
-4 -4 -4 -10z"/>
<path d="M7609 1763 c-13 -16 -12 -17 4 -4 16 13 21 21 13 21 -2 0 -10 -8 -17
-17z"/>
<path d="M8976 1747 c3 -10 9 -15 12 -12 3 3 0 11 -7 18 -10 9 -11 8 -5 -6z"/>
<path d="M7595 1730 c-4 -6 -10 -8 -15 -5 -5 3 -11 1 -14 -4 -8 -13 22 -7 36
7 7 7 9 12 6 12 -4 0 -10 -5 -13 -10z"/>
<path d="M7650 1701 c0 -6 4 -13 10 -16 6 -3 7 1 4 9 -7 18 -14 21 -14 7z"/>
<path d="M4180 1666 c0 -2 8 -10 18 -17 15 -13 16 -12 3 4 -13 16 -21 21 -21
13z"/>
<path d="M7606 1662 c-3 -5 1 -9 9 -9 8 0 12 4 9 9 -3 4 -7 8 -9 8 -2 0 -6 -4
-9 -8z"/>
<path d="M4050 1640 c0 -5 5 -10 11 -10 5 0 7 5 4 10 -3 6 -8 10 -11 10 -2 0
-4 -4 -4 -10z"/>
<path d="M4234 1594 c1 -8 4 -15 7 -16 2 -2 3 -1 2 1 -2 2 2 9 7 16 7 8 5 12
-4 12 -8 0 -13 -6 -12 -13z"/>
<path d="M7477 1591 c-10 -14 -10 -14 4 -4 9 7 18 10 21 7 3 -3 8 -1 12 4 9
16 -24 9 -37 -7z"/>
<path d="M4175 1591 c-3 -5 -2 -12 3 -15 5 -3 9 1 9 9 0 17 -3 19 -12 6z"/>
<path d="M7490 1539 c0 -5 5 -7 10 -4 6 3 10 8 10 11 0 2 -4 4 -10 4 -5 0 -10
-5 -10 -11z"/>
<path d="M7393 1512 c-8 -14 -8 -19 1 -19 7 0 13 9 13 19 1 10 1 18 0 18 -1 0
-7 -8 -14 -18z"/>
<path d="M9176 1493 c-6 -14 -5 -15 5 -6 7 7 10 15 7 18 -3 3 -9 -2 -12 -12z"/>
<path d="M7513 1475 c0 -8 4 -12 9 -9 5 3 6 10 3 15 -9 13 -12 11 -12 -6z"/>
<path d="M4350 1455 c5 -7 8 -14 5 -17 -3 -2 2 -5 10 -5 10 0 12 4 5 12 -5 7
-8 14 -5 17 3 2 -2 5 -10 5 -10 0 -12 -4 -5 -12z"/>
<path d="M7375 1449 c-4 -6 -5 -12 -2 -15 2 -3 7 2 10 11 7 17 1 20 -8 4z"/>
<path d="M4159 1433 c-13 -16 -12 -17 4 -4 9 7 17 15 17 17 0 8 -8 3 -21 -13z"/>
<path d="M7416 1422 c-3 -5 1 -9 9 -9 8 0 12 4 9 9 -3 4 -7 8 -9 8 -2 0 -6 -4
-9 -8z"/>
<path d="M9250 1426 c0 -2 7 -7 16 -10 8 -3 12 -2 9 4 -6 10 -25 14 -25 6z"/>
<path d="M4373 1345 c0 -8 4 -12 9 -9 5 3 6 10 3 15 -9 13 -12 11 -12 -6z"/>
<path d="M4479 1358 c-6 -20 -6 -39 0 -42 4 -3 7 6 7 20 0 20 -4 32 -7 22z"/>
<path d="M4430 1336 c7 -7 13 -7 20 0 6 6 3 10 -10 10 -13 0 -16 -4 -10 -10z"/>
<path d="M4415 1311 c-3 -5 -2 -12 3 -15 5 -3 9 1 9 9 0 17 -3 19 -12 6z"/>
<path d="M7147 1267 c-3 -7 3 -13 14 -13 13 0 15 3 7 13 -6 7 -12 13 -13 13
-2 0 -5 -6 -8 -13z"/>
<path d="M4450 1259 c0 -5 5 -7 10 -4 6 3 10 8 10 11 0 2 -4 4 -10 4 -5 0 -10
-5 -10 -11z"/>
<path d="M4549 1258 c7 -9 9 -23 5 -30 -6 -10 -4 -11 7 0 11 10 10 15 -6 30
-17 15 -18 15 -6 0z"/>
<path d="M4577 1249 c4 -13 8 -18 11 -10 2 7 -1 18 -6 23 -8 8 -9 4 -5 -13z"/>
<path d="M4496 1218 c3 -5 10 -6 15 -3 13 9 11 12 -6 12 -8 0 -12 -4 -9 -9z"/>
<path d="M7190 1225 c0 -7 30 -13 34 -7 3 4 -4 9 -15 9 -10 1 -19 0 -19 -2z"/>
<path d="M4571 1207 c-8 -10 -7 -14 2 -14 8 0 14 6 14 14 0 7 -1 13 -2 13 -2
0 -8 -6 -14 -13z"/>
<path d="M7099 1193 c-13 -16 -12 -17 4 -4 16 13 21 21 13 21 -2 0 -10 -8 -17
-17z"/>
<path d="M4615 1189 c-4 -6 -5 -12 -2 -15 2 -3 7 2 10 11 7 17 1 20 -8 4z"/>
<path d="M4535 1180 c-3 -5 -1 -10 4 -10 6 0 11 5 11 10 0 6 -2 10 -4 10 -3 0
-8 -4 -11 -10z"/>
<path d="M7031 1156 c-15 -16 -19 -26 -12 -31 7 -3 11 -3 10 2 -4 21 2 24 19
12 15 -12 16 -12 5 2 -10 12 -10 18 -1 27 7 7 10 12 7 12 -3 0 -16 -11 -28
-24z"/>
<path d="M7079 1154 c-7 -8 -6 -14 1 -19 6 -4 9 -1 8 6 -2 8 6 13 19 14 30 0
38 11 7 11 -14 0 -29 -5 -35 -12z"/>
<path d="M4635 1120 c3 -5 8 -10 11 -10 2 0 4 5 4 10 0 6 -5 10 -11 10 -5 0
-7 -4 -4 -10z"/>
<path d="M4675 1110 c10 -11 20 -20 23 -20 3 0 -3 9 -13 20 -10 11 -20 20 -23
20 -3 0 3 -9 13 -20z"/>
<path d="M7030 1096 c7 -7 13 -7 20 0 6 6 3 10 -10 10 -13 0 -16 -4 -10 -10z"/>
<path d="M4714 1092 c4 -7 2 -21 -5 -30 -12 -15 -11 -15 6 0 16 15 17 20 6 30
-11 11 -13 10 -7 0z"/>
<path d="M6976 1073 c-6 -14 -5 -15 5 -6 7 7 10 15 7 18 -3 3 -9 -2 -12 -12z"/>
<path d="M7000 1086 c0 -2 8 -10 18 -17 15 -13 16 -12 3 4 -13 16 -21 21 -21
13z"/>
<path d="M4735 1049 c-4 -6 -5 -12 -2 -15 2 -3 7 2 10 11 7 17 1 20 -8 4z"/>
<path d="M6976 1038 c3 -5 10 -6 15 -3 13 9 11 12 -6 12 -8 0 -12 -4 -9 -9z"/>
<path d="M6945 1020 c-3 -6 1 -7 9 -4 18 7 21 14 7 14 -6 0 -13 -4 -16 -10z"/>
<path d="M4753 995 c0 -8 4 -12 9 -9 5 3 6 10 3 15 -9 13 -12 11 -12 -6z"/>
<path d="M4790 996 c0 -2 8 -10 18 -17 15 -13 16 -12 3 4 -13 16 -21 21 -21
13z"/>
<path d="M9651 987 c2 -1 13 -9 24 -17 19 -14 19 -14 6 3 -7 9 -18 17 -24 17
-6 0 -8 -1 -6 -3z"/>
<path d="M4863 964 c9 -11 15 -23 12 -26 -3 -2 2 -5 10 -5 10 0 12 4 5 12 -5
7 -6 16 -2 21 4 5 3 6 -2 2 -5 -4 -16 -2 -25 4 -12 10 -12 7 2 -8z"/>
<path d="M4833 947 c0 -8 6 -14 14 -14 9 0 10 4 2 14 -6 7 -12 13 -14 13 -1 0
-2 -6 -2 -13z"/>
<path d="M6786 897 c3 -10 9 -15 12 -12 3 3 0 11 -7 18 -10 9 -11 8 -5 -6z"/>
<path d="M6880 900 c-12 -7 -10 -9 7 -7 12 0 19 5 17 9 -6 10 -6 10 -24 -2z"/>
<path d="M10130 900 c0 -5 5 -10 11 -10 5 0 7 5 4 10 -3 6 -8 10 -11 10 -2 0
-4 -4 -4 -10z"/>
<path d="M6825 880 c10 -11 20 -20 23 -20 3 0 -3 9 -13 20 -10 11 -20 20 -23
20 -3 0 3 -9 13 -20z"/>
<path d="M4944 862 c4 -3 14 -7 22 -8 9 -1 13 0 10 4 -4 3 -14 7 -22 8 -9 1
-13 0 -10 -4z"/>
<path d="M6716 841 c-3 -5 2 -15 12 -22 15 -12 16 -12 5 2 -7 9 -10 19 -6 22
3 4 4 7 0 7 -3 0 -8 -4 -11 -9z"/>
<path d="M10030 840 c0 -5 5 -10 11 -10 5 0 7 5 4 10 -3 6 -8 10 -11 10 -2 0
-4 -4 -4 -10z"/>
<path d="M4905 820 c-3 -6 1 -7 9 -4 18 7 21 14 7 14 -6 0 -13 -4 -16 -10z"/>
<path d="M6815 820 c3 -5 8 -10 11 -10 2 0 4 5 4 10 0 6 -5 10 -11 10 -5 0 -7
-4 -4 -10z"/>
<path d="M6673 787 c0 -8 6 -14 14 -14 9 0 10 4 2 14 -6 7 -12 13 -14 13 -1 0
-2 -6 -2 -13z"/>
<path d="M5053 765 c0 -8 4 -15 9 -15 4 0 8 4 8 9 0 6 -4 12 -8 15 -5 3 -9 -1
-9 -9z"/>
<path d="M5015 751 c-3 -5 -2 -12 3 -15 5 -3 9 1 9 9 0 17 -3 19 -12 6z"/>
<path d="M6596 741 c-3 -5 2 -15 12 -22 15 -12 16 -12 5 2 -7 9 -10 19 -6 22
3 4 4 7 0 7 -3 0 -8 -4 -11 -9z"/>
<path d="M6629 737 c6 -8 9 -16 6 -19 -3 -2 2 -5 10 -5 13 0 13 3 -2 19 -19
21 -31 25 -14 5z"/>
<path d="M5075 700 c3 -5 8 -10 11 -10 2 0 4 5 4 10 0 6 -5 10 -11 10 -5 0 -7
-4 -4 -10z"/>
<path d="M5165 700 c-7 -12 2 -30 16 -30 5 0 9 5 9 11 0 5 -5 7 -12 3 -8 -5
-9 -2 -5 9 7 19 2 23 -8 7z"/>
<path d="M6696 698 c3 -5 10 -6 15 -3 13 9 11 12 -6 12 -8 0 -12 -4 -9 -9z"/>
<path d="M6569 683 c-13 -16 -12 -17 4 -4 9 7 17 15 17 17 0 8 -8 3 -21 -13z"/>
<path d="M6530 681 c0 -6 4 -13 10 -16 6 -3 7 1 4 9 -7 18 -14 21 -14 7z"/>
<path d="M6499 668 c-7 -24 -4 -34 12 -35 11 -1 19 2 19 8 0 5 -6 8 -12 7 -7
-2 -12 3 -10 10 2 10 -6 19 -9 10z"/>
<path d="M6610 659 c0 -5 5 -7 10 -4 6 3 10 8 10 11 0 2 -4 4 -10 4 -5 0 -10
-5 -10 -11z"/>
<path d="M5233 647 c0 -8 6 -14 14 -14 9 0 10 4 2 14 -6 7 -12 13 -14 13 -1 0
-2 -6 -2 -13z"/>
<path d="M5156 639 c4 -8 30 -6 38 2 3 3 -5 5 -19 5 -13 0 -22 -3 -19 -7z"/>
<path d="M5270 626 c0 -2 7 -7 16 -10 8 -3 12 -2 9 4 -6 10 -25 14 -25 6z"/>
<path d="M5253 607 c0 -8 6 -14 14 -14 9 0 10 4 2 14 -6 7 -12 13 -14 13 -1 0
-2 -6 -2 -13z"/>
<path d="M6459 618 c-5 -18 -6 -38 -1 -34 7 8 12 36 6 36 -2 0 -4 -1 -5 -2z"/>
<path d="M6490 617 c0 -2 6 -10 14 -16 11 -9 16 -9 22 1 4 7 4 10 -1 6 -4 -4
-14 -3 -22 3 -7 6 -13 9 -13 6z"/>
<path d="M5153 575 c0 -8 4 -12 9 -9 5 3 6 10 3 15 -9 13 -12 11 -12 -6z"/>
<path d="M5270 555 c13 -14 26 -25 28 -25 3 0 -5 11 -18 25 -13 14 -26 25 -28
25 -3 0 5 -11 18 -25z"/>
<path d="M5306 560 c5 -8 9 -18 9 -22 0 -3 3 -9 7 -13 3 -4 5 0 4 9 -1 9 -8
22 -16 29 -10 10 -11 9 -4 -3z"/>
<path d="M6439 553 c-13 -16 -12 -17 4 -4 9 7 17 15 17 17 0 8 -8 3 -21 -13z"/>
<path d="M6506 562 c-3 -5 1 -9 9 -9 8 0 12 4 9 9 -3 4 -7 8 -9 8 -2 0 -6 -4
-9 -8z"/>
<path d="M6335 541 c-3 -5 -2 -12 3 -15 5 -3 9 1 9 9 0 17 -3 19 -12 6z"/>
<path d="M6380 546 c0 -2 9 -6 20 -9 11 -3 18 -1 14 4 -5 9 -34 13 -34 5z"/>
<path d="M5225 520 c-3 -6 1 -7 9 -4 18 7 21 14 7 14 -6 0 -13 -4 -16 -10z"/>
<path d="M5355 511 c-3 -5 -2 -12 3 -15 5 -3 9 1 9 9 0 17 -3 19 -12 6z"/>
<path d="M5295 500 c3 -5 8 -10 11 -10 2 0 4 5 4 10 0 6 -5 10 -11 10 -5 0 -7
-4 -4 -10z"/>
<path d="M6316 498 c3 -5 10 -6 15 -3 13 9 11 12 -6 12 -8 0 -12 -4 -9 -9z"/>
<path d="M6261 484 c0 -11 3 -14 6 -6 3 7 2 16 -1 19 -3 4 -6 -2 -5 -13z"/>
<path d="M6303 482 c10 -10 14 -22 10 -27 -5 -4 -2 -5 5 -1 11 6 10 12 -4 27
-9 10 -19 19 -22 19 -3 0 2 -8 11 -18z"/>
<path d="M5245 480 c-3 -6 1 -7 9 -4 18 7 21 14 7 14 -6 0 -13 -4 -16 -10z"/>
<path d="M5340 486 c0 -2 8 -10 18 -17 15 -13 16 -12 3 4 -13 16 -21 21 -21
13z"/>
<path d="M5415 480 c3 -5 8 -10 11 -10 2 0 4 5 4 10 0 6 -5 10 -11 10 -5 0 -7
-4 -4 -10z"/>
<path d="M6370 459 c0 -5 5 -7 10 -4 6 3 10 8 10 11 0 2 -4 4 -10 4 -5 0 -10
-5 -10 -11z"/>
<path d="M5474 419 c-2 -35 5 -33 12 5 2 14 1 26 -3 26 -5 0 -9 -14 -9 -31z"/>
<path d="M5390 419 c0 -5 5 -7 10 -4 6 3 10 8 10 11 0 2 -4 4 -10 4 -5 0 -10
-5 -10 -11z"/>
<path d="M6159 428 c-5 -18 -6 -39 -2 -34 4 3 13 0 22 -6 12 -10 12 -7 -2 8
-9 11 -14 24 -10 27 3 4 3 7 0 7 -4 0 -7 -1 -8 -2z"/>
<path d="M6188 423 c6 -3 10 -9 6 -14 -8 -14 2 -11 14 4 8 10 6 13 -11 14 -12
0 -16 -1 -9 -4z"/>
<path d="M6233 413 c0 -9 4 -10 14 -2 7 6 13 12 13 14 0 1 -6 2 -13 2 -8 0
-14 -6 -14 -14z"/>
<path d="M5572 411 c-11 -6 -10 -10 0 -19 11 -8 14 -7 14 9 0 10 0 19 -1 19 0
0 -6 -4 -13 -9z"/>
<path d="M6276 393 c-6 -14 -5 -15 5 -6 7 7 10 15 7 18 -3 3 -9 -2 -12 -12z"/>
<path d="M5551 373 c7 -12 15 -20 18 -17 3 2 -3 12 -13 22 -17 16 -18 16 -5
-5z"/>
<path d="M5469 363 c-13 -16 -12 -17 4 -4 16 13 21 21 13 21 -2 0 -10 -8 -17
-17z"/>
<path d="M6130 366 c0 -8 4 -17 9 -20 5 -4 7 3 4 14 -6 23 -13 26 -13 6z"/>
<path d="M6050 361 c0 -6 4 -13 10 -16 6 -3 7 1 4 9 -7 18 -14 21 -14 7z"/>
<path d="M5637 311 c-10 -14 -10 -14 4 -4 9 7 18 10 21 7 3 -3 8 -1 12 4 9 16
-24 9 -37 -7z"/>
<path d="M5806 321 c-3 -5 1 -11 9 -14 9 -4 12 -1 8 9 -6 16 -10 17 -17 5z"/>
<path d="M6044 322 c4 -3 14 -7 22 -8 9 -1 13 0 10 4 -4 3 -14 7 -22 8 -9 1
-13 0 -10 -4z"/>
<path d="M5714 296 c1 -14 4 -28 7 -31 3 -3 5 6 5 19 -1 14 -4 28 -7 31 -3 3
-5 -6 -5 -19z"/>
<path d="M5565 300 c-3 -6 1 -7 9 -4 18 7 21 14 7 14 -6 0 -13 -4 -16 -10z"/>
<path d="M5908 303 c10 -4 10 -8 0 -21 -9 -12 -6 -11 10 2 12 11 22 20 22 20
0 1 -10 2 -22 3 -13 0 -17 -1 -10 -4z"/>
<path d="M5950 306 c0 -2 7 -7 16 -10 8 -3 12 -2 9 4 -6 10 -25 14 -25 6z"/>
<path d="M5816 273 c-6 -14 -5 -15 5 -6 7 7 10 15 7 18 -3 3 -9 -2 -12 -12z"/>
<path d="M5871 267 c-13 -21 -12 -21 5 -5 10 10 16 20 13 22 -3 3 -11 -5 -18
-17z"/>
<path d="M5936 282 c-3 -5 1 -9 9 -9 8 0 12 4 9 9 -3 4 -7 8 -9 8 -2 0 -6 -4
-9 -8z"/>
<path d="M6050 279 c0 -5 5 -7 10 -4 6 3 10 8 10 11 0 2 -4 4 -10 4 -5 0 -10
-5 -10 -11z"/>
<path d="M6160 286 c0 -2 8 -10 18 -17 15 -13 16 -12 3 4 -13 16 -21 21 -21
13z"/>
<path d="M5675 240 c3 -5 8 -10 11 -10 2 0 4 5 4 10 0 6 -5 10 -11 10 -5 0 -7
-4 -4 -10z"/>
<path d="M5975 221 c-3 -5 -2 -12 3 -15 5 -3 9 1 9 9 0 17 -3 19 -12 6z"/>
<path d="M5795 200 c3 -5 8 -10 11 -10 2 0 4 5 4 10 0 6 -5 10 -11 10 -5 0 -7
-4 -4 -10z"/>
</g>
</svg>
