<?xml version="1.0" standalone="no"?>
<!DOCTYPE svg PUBLIC "-//W3C//DTD SVG 20010904//EN"
 "http://www.w3.org/TR/2001/REC-SVG-20010904/DTD/svg10.dtd">
<svg version="1.0" xmlns="http://www.w3.org/2000/svg"
 width="1036.000000pt" height="1036.000000pt" viewBox="0 0 1036.000000 1036.000000"
 preserveAspectRatio="xMidYMid meet">
<metadata>
Created by potrace 1.11, written by Peter Selinger 2001-2013
</metadata>
<g transform="translate(0.000000,1036.000000) scale(0.100000,-0.100000)"
fill="#000000" stroke="none">
<path d="M4885 10082 c-2 -2 -45 -5 -97 -7 -94 -4 -240 -13 -313 -20 -22 -2
-71 -6 -110 -9 -38 -3 -70 -6 -70 -7 0 -1 -31 -6 -85 -13 -30 -4 -69 -9 -85
-11 -17 -2 -50 -6 -75 -9 -41 -5 -183 -29 -255 -43 -16 -3 -39 -7 -50 -8 -11
-2 -20 -4 -20 -5 0 -2 -24 -7 -75 -15 -24 -4 -48 -9 -53 -12 -4 -2 -21 -6 -37
-8 -16 -2 -48 -9 -72 -16 -24 -6 -52 -13 -63 -15 -11 -2 -60 -15 -110 -29 -49
-15 -97 -28 -105 -30 -8 -2 -15 -4 -15 -5 0 -1 -8 -3 -17 -5 -35 -7 -213 -68
-225 -78 -7 -5 -13 -7 -13 -4 0 5 -127 -41 -175 -63 -11 -5 -54 -23 -95 -41
-136 -57 -379 -183 -391 -201 -3 -5 -9 -9 -13 -8 -8 2 -185 -111 -207 -132 -8
-7 -27 -22 -44 -32 -34 -22 -40 -27 -76 -58 -15 -13 -48 -41 -75 -63 -27 -22
-68 -59 -91 -82 -24 -23 -43 -39 -43 -35 0 3 -11 -9 -24 -26 -13 -18 -37 -46
-55 -62 -17 -17 -31 -32 -31 -34 0 -3 -14 -20 -31 -38 -17 -18 -44 -52 -60
-75 -17 -24 -35 -43 -41 -43 -6 0 -8 -3 -5 -7 4 -3 -8 -27 -27 -52 -49 -69
-145 -239 -138 -245 3 -3 0 -6 -6 -6 -7 0 -12 -9 -12 -20 0 -11 -4 -20 -10
-20 -5 0 -9 -3 -8 -7 2 -5 -8 -33 -21 -63 -13 -30 -22 -55 -21 -55 2 0 -3 -11
-10 -25 -8 -14 -15 -32 -17 -41 -1 -9 -8 -29 -14 -45 -14 -34 -19 -49 -26 -86
-3 -16 -8 -28 -12 -28 -3 0 -7 -17 -9 -37 -1 -20 -6 -39 -10 -43 -4 -3 -8 -14
-8 -25 -2 -24 -12 -80 -14 -80 -2 0 -4 -9 -5 -20 -2 -11 -6 -40 -9 -65 -8 -60
-15 -134 -20 -198 -2 -29 -5 -55 -7 -57 -2 -2 -3 -46 -2 -99 0 -53 -3 -94 -8
-91 -4 3 -2 -7 6 -22 8 -15 11 -32 7 -37 -5 -6 -7 -20 -6 -31 9 -89 14 -148
16 -192 1 -29 5 -53 8 -53 3 0 5 -21 4 -48 0 -26 2 -51 5 -57 3 -5 6 -26 7
-46 0 -19 4 -41 8 -48 4 -7 9 -29 11 -49 1 -20 6 -45 10 -54 4 -10 8 -37 8
-62 1 -24 5 -42 10 -39 4 2 8 -6 8 -19 3 -40 7 -62 23 -113 12 -38 13 -51 3
-57 -8 -5 -9 -8 0 -8 18 0 33 -53 21 -75 -8 -13 -7 -16 1 -11 6 4 12 2 12 -3
3 -26 4 -30 11 -36 4 -4 3 -16 -3 -26 -7 -15 -7 -19 3 -17 8 2 13 -7 12 -24 0
-16 4 -28 9 -28 4 0 6 -4 2 -9 -3 -5 -1 -13 5 -16 8 -5 7 -12 -2 -23 -9 -11
-9 -14 -1 -9 13 8 22 -15 26 -60 0 -13 4 -23 7 -23 6 0 11 -25 14 -67 0 -11 5
-19 10 -15 5 3 7 -5 4 -16 -4 -12 -2 -20 2 -17 5 3 12 -11 15 -32 4 -21 10
-47 13 -58 3 -11 6 -22 7 -25 0 -3 4 -11 9 -18 4 -7 9 -23 11 -35 4 -31 9 -51
15 -57 4 -4 40 -115 53 -165 2 -5 9 -21 16 -34 11 -19 11 -22 -1 -15 -10 6
-11 5 -1 -8 7 -8 10 -18 6 -21 -3 -4 -1 -7 5 -7 7 0 11 -3 10 -7 -1 -5 4 -21
10 -36 7 -16 12 -34 12 -41 0 -6 5 -17 12 -24 7 -7 9 -12 5 -12 -4 0 -1 -13 8
-30 8 -16 15 -32 14 -35 0 -3 8 -29 19 -58 34 -88 35 -92 34 -99 -1 -5 2 -8 8
-8 5 0 7 -7 4 -15 -4 -8 -1 -15 5 -15 6 0 11 -11 11 -25 0 -14 4 -25 8 -25 4
0 14 -21 21 -47 8 -27 19 -54 25 -62 5 -7 11 -20 12 -28 2 -9 12 -38 24 -65
11 -27 18 -54 14 -61 -4 -7 -3 -9 1 -4 8 7 44 -56 45 -79 0 -6 7 -17 15 -24 9
-7 14 -19 11 -26 -3 -7 -1 -16 5 -19 5 -4 7 -11 4 -16 -4 -5 -3 -9 2 -9 4 0
13 -11 20 -25 6 -14 7 -23 2 -19 -5 3 -9 0 -9 -5 0 -6 6 -11 13 -11 11 0 47
-81 46 -104 -1 -5 4 -12 9 -15 11 -7 52 -94 52 -110 0 -6 5 -11 11 -11 6 0 9
-6 6 -14 -3 -8 1 -17 9 -20 8 -3 14 -9 13 -13 -3 -13 25 -73 33 -73 4 0 8 -9
8 -20 0 -11 5 -20 11 -20 5 0 7 -4 4 -10 -3 -5 -1 -10 5 -10 7 0 10 -6 7 -13
-3 -7 4 -24 14 -38 10 -13 19 -30 19 -36 0 -7 5 -13 11 -13 5 0 7 -5 4 -10 -3
-6 -1 -10 4 -10 6 0 10 -3 9 -7 -1 -9 13 -46 21 -53 17 -14 61 -113 55 -122
-4 -7 -3 -8 4 -4 11 6 16 -6 13 -26 0 -5 4 -8 9 -8 6 0 20 -22 32 -50 12 -27
26 -50 30 -50 5 0 6 -5 3 -10 -3 -6 -1 -10 5 -10 6 0 8 -5 5 -10 -3 -5 -1 -10
4 -10 6 0 11 -7 11 -15 0 -8 5 -15 10 -15 6 0 10 -6 10 -14 0 -8 6 -17 13 -19
9 -4 8 -8 -3 -16 -13 -9 -13 -11 3 -11 9 0 17 -5 17 -11 0 -5 -5 -7 -12 -3 -7
4 -8 3 -4 -5 4 -6 11 -9 16 -6 11 7 32 -30 23 -39 -3 -3 -1 -6 5 -6 6 0 18
-13 26 -30 9 -16 23 -43 32 -60 8 -16 20 -32 25 -36 6 -3 3 -12 -8 -19 -17
-13 -16 -14 5 -8 16 4 22 1 22 -10 0 -8 4 -17 9 -19 5 -1 11 -10 13 -18 2 -8
11 -22 21 -31 9 -9 17 -24 17 -33 0 -9 5 -16 10 -16 6 0 10 -7 10 -15 0 -8 5
-15 10 -15 6 0 10 -9 10 -21 0 -11 4 -17 10 -14 6 3 10 0 10 -9 0 -8 -6 -17
-12 -20 -7 -3 -2 -3 11 0 22 6 23 4 17 -22 -5 -21 -4 -25 3 -14 11 17 10 17
39 -33 25 -43 27 -51 10 -41 -7 4 -8 3 -4 -5 4 -6 11 -9 16 -6 11 7 32 -30 23
-39 -3 -3 1 -6 10 -6 15 0 19 -6 16 -26 0 -3 9 -14 20 -23 11 -10 18 -21 14
-25 -3 -3 -1 -6 5 -6 7 0 12 -6 12 -13 0 -7 9 -20 20 -29 11 -10 34 -42 51
-73 17 -30 35 -55 41 -55 6 0 7 -8 4 -17 -4 -10 -4 -14 0 -11 9 10 44 -36 44
-57 0 -9 4 -13 10 -10 5 3 10 2 10 -3 0 -5 11 -22 25 -38 13 -15 22 -30 20
-33 -3 -2 4 -11 14 -20 29 -26 53 -69 45 -82 -5 -8 -3 -9 5 -4 7 4 20 -1 31
-13 14 -15 16 -22 7 -25 -7 -3 -4 -6 6 -6 9 -1 17 -8 17 -16 0 -8 5 -15 11
-15 5 0 7 -4 4 -10 -3 -5 0 -10 8 -10 17 0 30 -27 20 -42 -3 -6 -1 -8 4 -5 14
9 47 -29 38 -43 -3 -6 -2 -9 3 -8 13 4 53 -42 46 -54 -3 -4 -1 -7 4 -6 10 3
62 -55 62 -69 0 -4 9 -14 21 -21 13 -9 18 -19 14 -32 -3 -10 -1 -21 4 -25 7
-4 8 1 5 12 -4 11 8 4 29 -17 19 -19 33 -37 31 -39 -2 -2 4 -10 12 -19 13 -12
13 -17 2 -24 -9 -6 -6 -7 10 -3 13 4 22 2 22 -5 0 -6 10 -22 22 -35 39 -41 49
-55 41 -56 -4 0 2 -4 15 -9 12 -5 22 -17 22 -25 0 -9 4 -13 10 -10 5 3 10 1
10 -5 0 -5 14 -24 30 -42 17 -17 29 -37 26 -44 -2 -6 3 -11 12 -10 10 0 16 -6
16 -16 -1 -10 4 -14 11 -11 13 4 42 -34 37 -50 -1 -4 1 -6 5 -5 18 3 43 -16
43 -33 0 -12 5 -16 15 -13 10 4 13 0 10 -15 -2 -11 -1 -20 3 -20 19 3 32 -2
32 -12 0 -5 -5 -7 -12 -3 -7 4 -8 3 -4 -5 4 -6 12 -9 17 -5 12 7 59 -45 59
-64 0 -7 4 -11 9 -8 13 8 44 -31 35 -45 -4 -7 -3 -10 3 -6 6 4 33 -14 60 -41
52 -50 86 -91 66 -79 -6 4 -14 3 -18 -2 -3 -6 5 -8 19 -5 30 5 42 -11 24 -34
-12 -15 -11 -16 4 -4 15 12 23 9 62 -28 25 -24 43 -46 41 -50 -6 -9 20 -32 27
-24 3 3 27 -15 52 -40 25 -26 51 -46 57 -46 5 0 7 -5 4 -10 -3 -6 0 -10 8 -10
8 0 22 -11 33 -24 10 -14 21 -23 26 -20 4 3 8 -2 8 -11 0 -9 3 -14 8 -12 4 3
13 -1 20 -9 7 -8 9 -14 5 -14 -4 0 7 -8 25 -17 20 -10 31 -21 28 -29 -3 -8 -2
-13 2 -12 18 5 53 -15 48 -27 -3 -9 0 -12 10 -8 7 3 14 0 14 -6 0 -6 7 -11 16
-11 10 0 14 -6 11 -14 -4 -10 -1 -13 7 -10 7 3 19 -2 26 -11 7 -8 17 -15 22
-15 5 0 23 -15 40 -33 18 -17 35 -31 38 -31 17 4 30 -11 25 -30 -5 -15 -4 -17
3 -7 6 8 17 11 27 7 15 -5 15 -9 4 -24 -13 -16 -13 -16 5 -2 15 11 20 12 23 3
3 -7 11 -13 19 -13 8 0 14 -4 14 -10 0 -5 6 -10 14 -10 8 0 16 -3 18 -7 2 -5
24 -19 50 -32 26 -13 45 -28 41 -34 -4 -6 0 -8 9 -5 21 8 79 -21 71 -36 -4 -6
0 -5 9 2 9 7 18 9 20 3 1 -5 17 -10 33 -12 17 -2 35 -6 40 -9 9 -5 32 -5 45 0
3 1 23 4 45 6 22 3 42 10 46 16 4 6 16 8 28 5 12 -3 19 0 18 7 -1 6 5 11 13
11 8 0 21 6 29 13 7 7 20 11 27 8 7 -3 19 3 26 12 14 19 67 56 83 57 6 1 19
-6 30 -14 18 -15 19 -15 7 0 -6 9 -8 20 -4 24 4 5 1 5 -5 1 -7 -4 -13 -3 -13
2 0 13 29 24 42 15 6 -3 8 -2 5 3 -3 5 11 21 31 34 20 14 41 31 46 39 6 10 10
11 16 1 6 -9 10 -6 15 9 3 11 10 21 14 21 4 0 18 9 31 20 12 11 27 17 33 13 6
-3 7 -1 3 5 -7 11 26 35 38 27 3 -3 4 -2 1 1 -2 4 10 19 28 35 22 19 35 25 43
18 9 -8 11 -5 7 10 -5 19 5 26 30 22 5 -1 6 3 2 8 -7 12 29 33 39 23 4 -3 4 1
0 11 -3 9 -2 17 3 17 5 0 29 18 52 40 23 22 47 37 53 34 6 -4 8 -3 5 3 -7 11
72 89 86 85 4 -1 7 5 7 14 0 10 6 14 15 10 8 -3 14 -2 12 3 -4 14 62 73 74 65
8 -4 9 -3 5 5 -5 7 3 23 18 38 14 14 26 30 26 34 0 5 4 9 9 9 12 0 81 67 81
79 0 6 3 11 8 11 8 0 91 76 95 87 1 5 7 7 14 7 7 -1 12 1 11 5 -2 18 3 34 9
28 3 -4 11 3 18 16 6 12 17 21 24 19 7 -1 10 2 6 8 -3 5 1 13 9 16 9 3 16 10
16 16 0 5 26 36 58 69 32 32 57 61 54 63 -2 3 8 12 22 21 14 10 26 21 26 25 0
4 15 24 33 44 26 28 36 33 45 24 9 -9 15 -9 25 1 10 10 9 11 -4 6 -29 -11 -32
15 -4 41 14 13 23 24 19 24 -4 0 1 6 11 14 11 8 23 12 27 10 4 -3 5 2 2 10 -4
10 -1 16 7 16 7 0 10 3 6 6 -3 3 5 17 19 31 13 13 24 28 24 34 0 6 5 7 10 4 6
-3 10 0 10 8 0 18 34 49 44 40 4 -4 4 1 0 12 -6 14 -4 17 9 12 10 -4 14 -2 11
7 -3 7 5 24 16 37 16 18 20 19 16 6 -4 -11 -2 -16 5 -12 6 4 8 13 5 20 -6 18
73 117 86 108 7 -3 8 -1 4 5 -9 15 23 64 37 55 6 -3 7 -1 3 6 -4 6 0 14 8 17
9 3 13 11 9 17 -4 6 0 8 10 4 9 -3 19 -2 22 4 4 5 3 9 -2 8 -23 -4 -24 3 -1
24 13 12 27 31 31 40 4 11 12 15 18 11 8 -4 9 -3 5 5 -4 6 -2 19 5 27 10 12
14 12 22 2 6 -9 7 -7 3 6 -7 20 11 49 25 40 5 -3 7 1 4 8 -6 17 21 52 33 44 6
-3 8 2 6 12 -3 9 4 27 15 39 12 12 21 26 21 30 0 5 9 14 21 21 12 7 19 16 16
19 -3 3 0 11 6 18 9 10 16 10 27 1 13 -9 13 -9 2 6 -10 12 -11 22 -3 35 6 10
11 14 11 8 0 -5 9 8 20 31 11 22 29 50 40 62 11 12 20 26 20 32 0 5 5 10 10
10 6 0 10 6 10 14 0 7 7 19 15 26 8 7 13 16 10 20 -3 4 2 10 10 14 8 3 15 12
15 21 0 8 6 15 14 15 8 0 18 5 22 12 4 7 3 8 -4 4 -19 -12 -14 8 8 32 11 12
20 26 20 32 0 5 4 10 9 10 5 0 14 14 20 30 6 18 17 30 28 30 15 0 16 2 3 10
-13 8 -8 14 11 12 4 -1 6 6 5 16 0 10 6 17 16 17 9 0 20 4 25 8 4 5 2 7 -6 5
-7 -1 -16 3 -18 10 -3 6 0 12 6 12 6 0 11 7 11 15 0 7 7 18 16 23 9 5 16 12
16 15 0 24 13 47 24 43 8 -3 11 0 8 8 -3 7 1 20 9 27 7 8 14 19 15 24 1 6 8
17 16 27 8 9 12 19 9 22 -3 3 1 8 10 12 9 3 13 12 10 22 -5 11 -2 14 10 9 11
-4 14 -2 11 8 -5 13 21 75 32 75 3 0 2 -5 -2 -12 -4 -7 -3 -8 5 -4 6 4 8 12 5
18 -4 6 1 17 11 25 11 7 16 13 12 13 -4 0 5 23 20 51 16 29 36 67 46 86 10 19
22 31 26 28 5 -3 7 4 4 15 -3 12 0 20 6 20 7 0 9 5 6 10 -3 6 -1 10 6 10 7 0
9 3 6 7 -4 3 1 12 11 20 9 8 10 11 2 7 -8 -5 -5 4 8 20 12 16 19 32 16 37 -3
5 0 9 5 9 6 0 11 7 11 15 0 8 4 15 10 15 5 0 10 3 9 7 -2 16 14 53 23 53 5 0
7 4 3 10 -3 5 3 18 13 28 10 10 16 24 14 30 -2 7 2 12 9 12 7 0 9 3 6 7 -4 3
1 12 11 20 9 8 11 11 4 8 -9 -5 -5 10 10 36 12 24 26 46 31 47 4 2 7 11 7 19
0 8 13 41 29 72 16 31 40 80 53 108 14 29 29 49 33 45 5 -4 5 -1 1 5 -4 7 -1
23 6 35 6 13 13 29 14 37 2 8 8 17 15 21 6 4 9 12 5 18 -3 5 1 15 9 22 8 7 12
16 9 21 -3 5 -1 9 4 9 6 0 9 8 8 18 0 9 5 16 12 14 8 -1 10 2 7 8 -8 13 14 70
27 70 5 0 7 4 4 9 -8 12 49 142 59 133 4 -4 5 -1 1 5 -4 7 0 30 9 50 31 69 34
78 46 121 7 23 16 42 21 42 5 0 8 6 6 13 -3 17 22 87 32 87 4 0 8 10 8 23 0
12 9 42 20 66 12 24 19 48 16 52 -3 5 0 9 5 9 6 0 10 3 9 8 -5 17 14 52 25 45
7 -4 6 1 -2 10 -9 12 -10 17 -2 17 7 0 9 5 6 10 -3 6 -3 16 2 23 4 6 9 21 10
32 2 10 8 22 14 26 6 3 10 9 10 13 -1 3 -1 7 0 9 3 9 10 45 11 60 1 9 6 17 10
17 4 0 8 7 8 16 0 9 12 54 26 100 23 75 28 83 43 72 12 -9 11 -7 -2 9 -20 22
-7 42 16 26 7 -4 5 0 -5 9 -12 10 -15 19 -8 23 6 3 8 10 5 15 -3 5 -1 11 5 15
6 4 8 11 5 16 -4 5 -3 15 2 22 4 6 9 18 10 25 2 6 5 18 6 25 2 6 7 26 11 42 4
17 10 37 13 45 12 32 21 70 22 94 1 16 3 17 19 5 14 -11 15 -11 5 1 -14 15
-18 54 -5 47 4 -3 8 5 8 16 2 37 11 81 22 107 5 14 8 28 5 33 -2 4 0 7 5 7 5
0 9 8 9 18 0 48 4 73 11 69 4 -3 8 9 9 27 2 28 8 63 13 76 1 3 2 8 2 11 -1 4
3 22 8 40 6 19 13 52 16 74 6 49 12 80 14 80 1 0 3 11 5 25 1 14 5 48 10 75
10 73 16 118 17 135 0 8 5 21 11 28 6 7 6 12 0 12 -11 0 -13 30 -4 45 4 6 7
40 7 77 -1 38 1 68 4 68 5 0 3 195 -3 243 -2 15 0 27 5 27 5 0 6 6 1 13 -4 6
-8 26 -9 42 -9 127 -28 262 -53 365 -4 19 -8 38 -9 43 -1 4 -2 8 -3 10 -2 6
-9 34 -13 52 -2 11 -5 20 -6 20 -2 0 -10 36 -13 60 -1 11 -5 22 -8 25 -3 3
-16 34 -28 70 -13 36 -29 79 -36 95 -7 17 -15 37 -17 45 -2 8 -9 21 -15 28 -7
7 -13 19 -13 26 0 7 -13 33 -30 59 -16 26 -30 52 -30 57 0 15 -128 214 -161
249 -8 10 -22 26 -30 38 -88 126 -434 453 -478 453 -6 0 -11 4 -11 9 0 5 -17
20 -37 32 -21 13 -39 27 -41 31 -2 4 -10 8 -18 8 -8 0 -14 5 -14 10 0 6 -5 10
-11 10 -6 0 -25 11 -43 25 -18 14 -35 25 -38 25 -3 0 -35 17 -69 39 -53 31
-264 137 -394 196 -87 40 -384 145 -495 176 -25 7 -49 14 -55 15 -80 23 -165
46 -185 50 -14 2 -38 9 -55 14 -16 5 -43 11 -60 14 -16 2 -30 5 -30 6 0 1 -9
3 -20 5 -23 4 -83 17 -105 22 -8 1 -26 5 -40 7 -14 3 -52 9 -85 15 -33 6 -76
14 -95 17 -19 2 -48 8 -65 11 -33 7 -62 11 -112 14 -18 1 -33 5 -33 8 0 3 -15
6 -32 7 -38 0 -157 12 -208 19 -53 8 -268 24 -400 29 -47 2 -87 5 -90 6 -9 3
-651 5 -655 2z m-645 -8992 c0 -5 -2 -10 -4 -10 -3 0 -8 5 -11 10 -3 6 -1 10
4 10 6 0 11 -4 11 -10z"/>
<path d="M9320 6846 c0 -2 8 -10 18 -17 15 -13 16 -12 3 4 -13 16 -21 21 -21
13z"/>
<path d="M9310 6646 c0 -2 7 -7 16 -10 8 -3 12 -2 9 4 -6 10 -25 14 -25 6z"/>
<path d="M1475 5381 c-3 -5 -2 -12 3 -15 5 -3 9 1 9 9 0 17 -3 19 -12 6z"/>
<path d="M1475 5240 c-3 -5 -1 -10 4 -10 6 0 11 5 11 10 0 6 -2 10 -4 10 -3 0
-8 -4 -11 -10z"/>
<path d="M1577 5095 c-4 -8 -3 -16 1 -19 4 -3 9 4 9 15 2 23 -3 25 -10 4z"/>
<path d="M8653 4655 c0 -8 4 -12 9 -9 5 3 6 10 3 15 -9 13 -12 11 -12 -6z"/>
<path d="M1753 4565 c0 -8 4 -12 9 -9 5 3 6 10 3 15 -9 13 -12 11 -12 -6z"/>
<path d="M1853 4425 c0 -8 4 -12 9 -9 5 3 6 10 3 15 -9 13 -12 11 -12 -6z"/>
<path d="M8475 4300 c-3 -5 -1 -10 4 -10 6 0 11 5 11 10 0 6 -2 10 -4 10 -3 0
-8 -4 -11 -10z"/>
<path d="M1950 4219 c0 -5 5 -7 10 -4 6 3 10 8 10 11 0 2 -4 4 -10 4 -5 0 -10
-5 -10 -11z"/>
<path d="M1975 4180 c3 -5 8 -10 11 -10 2 0 4 5 4 10 0 6 -5 10 -11 10 -5 0
-7 -4 -4 -10z"/>
<path d="M1955 4090 c10 -11 20 -20 23 -20 3 0 -3 9 -13 20 -10 11 -20 20 -23
20 -3 0 3 -9 13 -20z"/>
<path d="M2066 3922 c-3 -5 1 -9 9 -9 8 0 12 4 9 9 -3 4 -7 8 -9 8 -2 0 -6 -4
-9 -8z"/>
<path d="M8295 3900 c3 -5 8 -10 11 -10 2 0 4 5 4 10 0 6 -5 10 -11 10 -5 0
-7 -4 -4 -10z"/>
<path d="M8266 3858 c3 -5 10 -6 15 -3 13 9 11 12 -6 12 -8 0 -12 -4 -9 -9z"/>
<path d="M2150 3820 c0 -5 5 -10 11 -10 5 0 7 5 4 10 -3 6 -8 10 -11 10 -2 0
-4 -4 -4 -10z"/>
<path d="M8190 3739 c0 -5 5 -7 10 -4 6 3 10 8 10 11 0 2 -4 4 -10 4 -5 0 -10
-5 -10 -11z"/>
<path d="M2110 3681 c0 -6 4 -13 10 -16 6 -3 7 1 4 9 -7 18 -14 21 -14 7z"/>
<path d="M2246 3622 c-3 -5 1 -9 9 -9 8 0 12 4 9 9 -3 4 -7 8 -9 8 -2 0 -6 -4
-9 -8z"/>
<path d="M8230 3601 c0 -6 4 -13 10 -16 6 -3 7 1 4 9 -7 18 -14 21 -14 7z"/>
<path d="M2336 3458 c3 -4 11 -5 19 -1 21 7 19 12 -4 10 -11 0 -18 -5 -15 -9z"/>
<path d="M7976 3302 c-3 -4 4 -9 15 -9 23 -2 25 3 4 10 -8 4 -16 3 -19 -1z"/>
<path d="M7933 3215 c0 -8 4 -12 9 -9 5 3 6 10 3 15 -9 13 -12 11 -12 -6z"/>
<path d="M2494 3182 c4 -3 14 -7 22 -8 9 -1 13 0 10 4 -4 3 -14 7 -22 8 -9 1
-13 0 -10 -4z"/>
<path d="M2413 3165 c0 -8 4 -12 9 -9 5 3 6 10 3 15 -9 13 -12 11 -12 -6z"/>
<path d="M2536 3138 c3 -5 10 -6 15 -3 13 9 11 12 -6 12 -8 0 -12 -4 -9 -9z"/>
<path d="M7770 3019 c0 -5 5 -7 10 -4 6 3 10 8 10 11 0 2 -4 4 -10 4 -5 0 -10
-5 -10 -11z"/>
<path d="M7733 2965 c0 -8 4 -12 9 -9 5 3 6 10 3 15 -9 13 -12 11 -12 -6z"/>
<path d="M2630 2919 c0 -5 5 -7 10 -4 6 3 10 8 10 11 0 2 -4 4 -10 4 -5 0 -10
-5 -10 -11z"/>
<path d="M2676 2913 c-6 -14 -5 -15 5 -6 7 7 10 15 7 18 -3 3 -9 -2 -12 -12z"/>
<path d="M7694 2856 c1 -8 5 -18 8 -22 4 -3 5 1 4 10 -1 8 -5 18 -8 22 -4 3
-5 -1 -4 -10z"/>
<path d="M2730 2819 c0 -5 5 -7 10 -4 6 3 10 8 10 11 0 2 -4 4 -10 4 -5 0 -10
-5 -10 -11z"/>
<path d="M2750 2759 c0 -5 5 -7 10 -4 6 3 10 8 10 11 0 2 -4 4 -10 4 -5 0 -10
-5 -10 -11z"/>
<path d="M2777 2735 c-4 -8 -3 -16 1 -19 4 -3 9 4 9 15 2 23 -3 25 -10 4z"/>
<path d="M7606 2738 c3 -5 10 -6 15 -3 13 9 11 12 -6 12 -8 0 -12 -4 -9 -9z"/>
<path d="M2815 2700 c-3 -5 -1 -10 4 -10 6 0 11 5 11 10 0 6 -2 10 -4 10 -3 0
-8 -4 -11 -10z"/>
<path d="M2855 2620 c-3 -5 -1 -10 4 -10 6 0 11 5 11 10 0 6 -2 10 -4 10 -3 0
-8 -4 -11 -10z"/>
<path d="M7545 2600 c-3 -6 1 -7 9 -4 18 7 21 14 7 14 -6 0 -13 -4 -16 -10z"/>
<path d="M7470 2579 c0 -5 5 -7 10 -4 6 3 10 8 10 11 0 2 -4 4 -10 4 -5 0 -10
-5 -10 -11z"/>
<path d="M7417 2475 c-4 -8 -3 -16 1 -19 4 -3 9 4 9 15 2 23 -3 25 -10 4z"/>
<path d="M2976 2462 c-3 -4 4 -9 15 -9 23 -2 25 3 4 10 -8 4 -16 3 -19 -1z"/>
<path d="M7325 2340 c-3 -6 1 -7 9 -4 18 7 21 14 7 14 -6 0 -13 -4 -16 -10z"/>
<path d="M7295 2280 c-3 -5 -1 -10 4 -10 6 0 11 5 11 10 0 6 -2 10 -4 10 -3 0
-8 -4 -11 -10z"/>
<path d="M7256 2218 c3 -4 11 -5 19 -1 21 7 19 12 -4 10 -11 0 -18 -5 -15 -9z"/>
<path d="M3190 2180 c0 -5 5 -10 11 -10 5 0 7 5 4 10 -3 6 -8 10 -11 10 -2 0
-4 -4 -4 -10z"/>
<path d="M7206 2182 c-3 -5 1 -9 9 -9 8 0 12 4 9 9 -3 4 -7 8 -9 8 -2 0 -6 -4
-9 -8z"/>
<path d="M3240 2140 c-9 -6 -10 -10 -3 -10 6 0 15 5 18 10 8 12 4 12 -15 0z"/>
<path d="M7175 2140 c3 -5 8 -10 11 -10 2 0 4 5 4 10 0 6 -5 10 -11 10 -5 0
-7 -4 -4 -10z"/>
<path d="M3300 2086 c0 -2 8 -10 18 -17 15 -13 16 -12 3 4 -13 16 -21 21 -21
13z"/>
<path d="M7116 2073 c-6 -14 -5 -15 5 -6 7 7 10 15 7 18 -3 3 -9 -2 -12 -12z"/>
<path d="M3270 2039 c0 -5 5 -7 10 -4 6 3 10 8 10 11 0 2 -4 4 -10 4 -5 0 -10
-5 -10 -11z"/>
<path d="M7094 2036 c1 -8 5 -18 8 -22 4 -3 5 1 4 10 -1 8 -5 18 -8 22 -4 3
-5 -1 -4 -10z"/>
<path d="M3400 1940 c8 -5 20 -10 25 -10 6 0 3 5 -5 10 -8 5 -19 10 -25 10 -5
0 -3 -5 5 -10z"/>
<path d="M6913 1805 c0 -8 4 -12 9 -9 5 3 6 10 3 15 -9 13 -12 11 -12 -6z"/>
<path d="M3466 1802 c-2 -4 4 -8 14 -8 10 0 16 4 14 8 -3 4 -9 8 -14 8 -5 0
-11 -4 -14 -8z"/>
<path d="M3549 1723 c-13 -16 -12 -17 4 -4 9 7 17 15 17 17 0 8 -8 3 -21 -13z"/>
<path d="M6810 1736 c0 -2 8 -10 18 -17 15 -13 16 -12 3 4 -13 16 -21 21 -21
13z"/>
<path d="M3573 1705 c0 -8 4 -12 9 -9 5 3 6 10 3 15 -9 13 -12 11 -12 -6z"/>
<path d="M6713 1625 c0 -8 4 -12 9 -9 5 3 6 10 3 15 -9 13 -12 11 -12 -6z"/>
<path d="M3613 1615 c0 -8 4 -12 9 -9 5 3 6 10 3 15 -9 13 -12 11 -12 -6z"/>
<path d="M6776 1622 c-3 -5 1 -9 9 -9 8 0 12 4 9 9 -3 4 -7 8 -9 8 -2 0 -6 -4
-9 -8z"/>
<path d="M3710 1601 c0 -6 4 -13 10 -16 6 -3 7 1 4 9 -7 18 -14 21 -14 7z"/>
<path d="M6660 1566 c0 -2 8 -10 18 -17 15 -13 16 -12 3 4 -13 16 -21 21 -21
13z"/>
<path d="M6785 1560 c-3 -6 1 -7 9 -4 18 7 21 14 7 14 -6 0 -13 -4 -16 -10z"/>
<path d="M3696 1542 c-2 -4 -1 -14 4 -22 7 -11 9 -9 7 8 -1 24 -3 26 -11 14z"/>
<path d="M6630 1519 c0 -5 5 -7 10 -4 6 3 10 8 10 11 0 2 -4 4 -10 4 -5 0 -10
-5 -10 -11z"/>
<path d="M6674 1522 c4 -3 14 -7 22 -8 9 -1 13 0 10 4 -4 3 -14 7 -22 8 -9 1
-13 0 -10 -4z"/>
<path d="M6755 1520 c-3 -5 -1 -10 4 -10 6 0 11 5 11 10 0 6 -2 10 -4 10 -3 0
-8 -4 -11 -10z"/>
<path d="M3736 1502 c-3 -5 1 -9 9 -9 8 0 12 4 9 9 -3 4 -7 8 -9 8 -2 0 -6 -4
-9 -8z"/>
<path d="M3755 1441 c-3 -5 -2 -12 3 -15 5 -3 9 1 9 9 0 17 -3 19 -12 6z"/>
<path d="M3799 1448 c-5 -18 -6 -38 -1 -34 7 8 12 36 6 36 -2 0 -4 -1 -5 -2z"/>
<path d="M3874 1400 c0 -13 4 -16 10 -10 7 7 7 13 0 20 -6 6 -10 3 -10 -10z"/>
<path d="M3836 1398 c3 -5 10 -6 15 -3 13 9 11 12 -6 12 -8 0 -12 -4 -9 -9z"/>
<path d="M6440 1340 c-9 -6 -10 -10 -3 -10 6 0 15 5 18 10 8 12 4 12 -15 0z"/>
<path d="M6370 1219 c0 -5 5 -7 10 -4 6 3 10 8 10 11 0 2 -4 4 -10 4 -5 0 -10
-5 -10 -11z"/>
<path d="M4030 1179 c0 -5 5 -7 10 -4 6 3 10 8 10 11 0 2 -4 4 -10 4 -5 0 -10
-5 -10 -11z"/>
<path d="M6234 1062 c4 -3 14 -7 22 -8 9 -1 13 0 10 4 -4 3 -14 7 -22 8 -9 1
-13 0 -10 -4z"/>
<path d="M4236 1038 c3 -5 10 -6 15 -3 13 9 11 12 -6 12 -8 0 -12 -4 -9 -9z"/>
<path d="M4255 980 c-3 -5 -1 -10 4 -10 6 0 11 5 11 10 0 6 -2 10 -4 10 -3 0
-8 -4 -11 -10z"/>
<path d="M6030 938 c0 -4 4 -8 9 -8 6 0 12 4 15 8 3 5 -1 9 -9 9 -8 0 -15 -4
-15 -9z"/>
<path d="M4356 913 c-6 -14 -5 -15 5 -6 7 7 10 15 7 18 -3 3 -9 -2 -12 -12z"/>
<path d="M4390 921 c0 -6 4 -13 10 -16 6 -3 7 1 4 9 -7 18 -14 21 -14 7z"/>
<path d="M4456 847 c3 -10 9 -15 12 -12 3 3 0 11 -7 18 -10 9 -11 8 -5 -6z"/>
<path d="M5873 793 c0 -9 4 -10 14 -2 7 6 13 12 13 14 0 1 -6 2 -13 2 -8 0
-14 -6 -14 -14z"/>
<path d="M5915 800 c-3 -5 -1 -10 4 -10 6 0 11 5 11 10 0 6 -2 10 -4 10 -3 0
-8 -4 -11 -10z"/>
<path d="M4453 783 c4 -3 1 -13 -6 -22 -11 -14 -10 -14 5 -2 16 12 16 31 1 31
-4 0 -3 -3 0 -7z"/>
<path d="M4490 745 c0 -7 30 -13 34 -7 3 4 -4 9 -15 9 -10 1 -19 0 -19 -2z"/>
<path d="M5870 745 c0 -7 30 -13 34 -7 3 4 -4 9 -15 9 -10 1 -19 0 -19 -2z"/>
<path d="M5761 716 c-8 -10 -9 -16 -1 -21 6 -4 9 -1 8 7 -2 7 3 12 10 10 8 -1
11 2 7 8 -8 13 -10 13 -24 -4z"/>
<path d="M4633 705 c0 -8 4 -12 9 -9 5 3 6 10 3 15 -9 13 -12 11 -12 -6z"/>
<path d="M4666 700 c5 -8 9 -18 9 -22 0 -3 3 -9 7 -13 3 -4 5 0 4 9 -1 9 -8
22 -16 29 -10 10 -11 9 -4 -3z"/>
<path d="M5736 687 c3 -10 9 -15 12 -12 3 3 0 11 -7 18 -10 9 -11 8 -5 -6z"/>
<path d="M4676 638 c3 -5 10 -6 15 -3 13 9 11 12 -6 12 -8 0 -12 -4 -9 -9z"/>
<path d="M5650 641 c0 -6 4 -13 10 -16 6 -3 7 1 4 9 -7 18 -14 21 -14 7z"/>
<path d="M4747 599 c7 -7 15 -10 18 -7 3 3 -2 9 -12 12 -14 6 -15 5 -6 -5z"/>
<path d="M5513 545 c0 -8 4 -12 9 -9 5 3 6 10 3 15 -9 13 -12 11 -12 -6z"/>
<path d="M4830 521 c0 -6 4 -13 10 -16 6 -3 7 1 4 9 -7 18 -14 21 -14 7z"/>
<path d="M4890 521 c0 -6 4 -13 10 -16 6 -3 7 1 4 9 -7 18 -14 21 -14 7z"/>
<path d="M4950 500 c0 -5 5 -10 10 -10 6 0 10 5 10 10 0 6 -4 10 -10 10 -5 0
-10 -4 -10 -10z"/>
<path d="M5500 506 c0 -2 8 -10 18 -17 15 -13 16 -12 3 4 -13 16 -21 21 -21
13z"/>
<path d="M4855 480 c-3 -5 -1 -10 4 -10 6 0 11 5 11 10 0 6 -2 10 -4 10 -3 0
-8 -4 -11 -10z"/>
<path d="M4893 471 c0 -11 5 -18 9 -15 4 3 5 11 1 19 -7 21 -12 19 -10 -4z"/>
<path d="M5450 479 c0 -5 5 -7 10 -4 6 3 10 8 10 11 0 2 -4 4 -10 4 -5 0 -10
-5 -10 -11z"/>
<path d="M5535 461 c-3 -5 -2 -12 3 -15 5 -3 9 1 9 9 0 17 -3 19 -12 6z"/>
<path d="M5149 423 c-13 -16 -12 -17 4 -4 16 13 21 21 13 21 -2 0 -10 -8 -17
-17z"/>
<path d="M4935 421 c-3 -5 -2 -12 3 -15 5 -3 9 1 9 9 0 17 -3 19 -12 6z"/>
<path d="M5040 420 c-9 -6 -10 -10 -3 -10 6 0 15 5 18 10 8 12 4 12 -15 0z"/>
<path d="M5266 422 c-3 -5 1 -9 9 -9 8 0 15 4 15 9 0 4 -4 8 -9 8 -6 0 -12 -4
-15 -8z"/>
<path d="M5433 405 c0 -8 4 -12 9 -9 5 3 6 10 3 15 -9 13 -12 11 -12 -6z"/>
<path d="M5095 400 c3 -5 8 -10 11 -10 2 0 4 5 4 10 0 6 -5 10 -11 10 -5 0 -7
-4 -4 -10z"/>
<path d="M5025 380 c-3 -6 1 -7 9 -4 18 7 21 14 7 14 -6 0 -13 -4 -16 -10z"/>
<path d="M5335 380 c3 -5 8 -10 11 -10 2 0 4 5 4 10 0 6 -5 10 -11 10 -5 0 -7
-4 -4 -10z"/>
<path d="M5374 376 c1 -8 5 -18 8 -22 4 -3 5 1 4 10 -1 8 -5 18 -8 22 -4 3 -5
-1 -4 -10z"/>
<path d="M5040 360 c-9 -6 -10 -10 -3 -10 6 0 15 5 18 10 8 12 4 12 -15 0z"/>
<path d="M5256 342 c-3 -5 1 -9 9 -9 8 0 12 4 9 9 -3 4 -7 8 -9 8 -2 0 -6 -4
-9 -8z"/>
<path d="M5155 331 c-3 -5 -2 -12 3 -15 5 -3 9 1 9 9 0 17 -3 19 -12 6z"/>
</g>
</svg>
