<?xml version="1.0" standalone="no"?>
<!DOCTYPE svg PUBLIC "-//W3C//DTD SVG 20010904//EN"
 "http://www.w3.org/TR/2001/REC-SVG-20010904/DTD/svg10.dtd">
<svg version="1.0" xmlns="http://www.w3.org/2000/svg"
 width="1008.000000pt" height="1008.000000pt" viewBox="0 0 1008.000000 1008.000000"
 preserveAspectRatio="xMidYMid meet">
<metadata>
Created by potrace 1.11, written by Peter Selinger 2001-2013
</metadata>
<g transform="translate(0.000000,1008.000000) scale(0.100000,-0.100000)"
fill="#000000" stroke="none">
<path d="M4829 10076 c-2 -2 -53 -7 -114 -10 -60 -4 -130 -9 -155 -11 -25 -2
-74 -6 -110 -10 -36 -3 -83 -7 -105 -10 -22 -3 -58 -7 -80 -9 -22 -3 -62 -8
-90 -12 -27 -4 -57 -8 -65 -9 -8 -1 -33 -5 -55 -9 -84 -15 -161 -27 -190 -30
-16 -2 -41 -7 -55 -11 -14 -3 -38 -8 -55 -10 -16 -2 -30 -4 -30 -5 0 -2 -29
-8 -65 -15 -30 -5 -201 -47 -285 -70 -33 -9 -67 -17 -75 -19 -9 -1 -21 -5 -28
-10 -6 -4 -12 -4 -12 0 0 3 -7 1 -15 -6 -8 -7 -15 -9 -15 -5 0 4 -7 2 -15 -5
-8 -7 -15 -9 -15 -5 0 4 -7 2 -15 -5 -8 -7 -15 -10 -15 -7 0 5 -167 -48 -220
-70 -8 -3 -17 -7 -20 -8 -13 -3 -128 -47 -155 -59 -16 -8 -59 -26 -95 -41
-125 -53 -429 -212 -458 -241 -7 -8 -19 -14 -27 -14 -7 0 -15 -3 -17 -7 -1 -5
-23 -21 -48 -38 -25 -16 -71 -50 -103 -75 -33 -25 -66 -49 -75 -55 -9 -5 -26
-21 -39 -34 -13 -13 -23 -21 -23 -18 0 3 -15 -9 -34 -26 -18 -18 -53 -50 -77
-73 -78 -72 -211 -218 -249 -274 -8 -12 -25 -34 -37 -48 -12 -14 -30 -41 -40
-59 -10 -18 -21 -33 -25 -33 -5 0 -8 -7 -8 -15 0 -8 -4 -15 -9 -15 -5 0 -11
-8 -14 -17 -3 -10 -22 -45 -41 -78 -20 -33 -42 -73 -50 -90 -52 -110 -76 -167
-76 -180 0 -8 -4 -15 -8 -15 -4 0 -19 -36 -32 -80 -13 -44 -27 -80 -30 -80 -3
0 -6 -17 -8 -37 -1 -20 -6 -39 -10 -43 -4 -3 -8 -14 -9 -25 -1 -11 -5 -31 -8
-45 -4 -14 -8 -32 -9 -40 -2 -8 -6 -28 -10 -45 -9 -40 -17 -91 -21 -140 -2
-22 -4 -42 -5 -45 -1 -3 -1 -13 0 -24 1 -10 -2 -16 -7 -13 -4 3 -6 -15 -4 -40
2 -31 -1 -48 -10 -54 -8 -5 -9 -9 -3 -9 11 0 11 -46 0 -57 -3 -4 -1 -12 5 -20
6 -7 7 -13 2 -13 -10 0 -10 -71 1 -88 4 -7 3 -12 -2 -12 -5 0 -7 -19 -6 -42
10 -120 9 -158 -1 -158 -7 0 -7 -3 0 -8 6 -4 10 -14 10 -22 0 -8 2 -34 6 -57
3 -27 2 -40 -4 -36 -6 4 -7 1 -1 -8 9 -15 11 -22 19 -86 4 -31 1 -43 -7 -43
-10 0 -10 -2 0 -9 19 -11 26 -69 11 -87 -10 -12 -9 -13 5 -8 13 5 16 -1 16
-30 0 -46 0 -48 12 -69 6 -13 5 -23 -4 -35 -9 -11 -10 -14 0 -8 6 4 12 4 13
-1 0 -4 3 -17 5 -28 3 -11 7 -35 10 -54 2 -19 7 -38 10 -42 3 -5 0 -9 -7 -9
-7 0 -4 -7 7 -16 10 -8 12 -12 4 -8 -12 6 -13 5 -4 -7 6 -8 14 -25 17 -39 3
-14 8 -36 12 -50 4 -14 7 -34 6 -45 0 -11 5 -23 11 -26 9 -6 8 -12 -3 -25 -9
-11 -9 -15 -1 -10 11 6 17 -11 13 -36 0 -5 3 -8 7 -8 7 0 12 -20 14 -60 1 -8
6 -18 11 -22 7 -4 6 -13 -4 -24 -8 -10 -9 -15 -2 -11 13 8 37 -59 27 -75 -3
-4 0 -8 6 -8 6 0 9 -4 5 -9 -3 -5 -1 -13 5 -16 8 -5 7 -12 -2 -23 -7 -9 -8
-13 -2 -9 13 8 28 -49 17 -66 -3 -6 -1 -7 5 -3 7 4 13 1 13 -8 2 -19 3 -26 12
-46 3 -8 11 -35 17 -59 9 -35 9 -46 -2 -53 -10 -6 -8 -8 6 -6 13 2 20 -4 22
-22 2 -14 8 -36 14 -50 5 -14 10 -34 12 -45 2 -11 6 -23 10 -26 5 -3 9 -17 10
-32 1 -15 6 -27 11 -27 5 0 3 -8 -4 -17 -12 -14 -12 -16 0 -8 11 6 13 3 9 -13
-3 -12 -3 -21 1 -20 19 2 22 -4 10 -19 -8 -9 -9 -14 -3 -10 14 8 39 -47 29
-62 -3 -6 -2 -11 3 -11 6 0 15 -13 21 -30 5 -16 7 -30 4 -30 -3 0 0 -6 6 -13
6 -8 8 -17 4 -20 -3 -4 -1 -7 6 -7 7 0 9 -4 6 -10 -3 -5 -1 -10 4 -10 6 0 11
-5 11 -11 0 -5 -6 -7 -12 -3 -7 4 -4 -2 6 -14 11 -12 16 -22 12 -22 -3 0 0
-14 9 -30 9 -16 12 -30 8 -30 -5 0 -1 -5 7 -10 13 -8 13 -10 1 -10 -12 0 -11
-3 2 -13 9 -6 18 -21 20 -32 2 -11 9 -30 15 -43 7 -12 10 -27 7 -32 -3 -6 -2
-10 4 -10 5 0 18 -26 28 -57 9 -32 22 -61 27 -64 5 -4 6 -14 3 -24 -4 -9 -3
-14 2 -11 10 7 21 -17 21 -45 0 -10 4 -19 8 -19 12 0 43 -91 35 -103 -3 -5 -1
-7 4 -4 13 8 26 -20 16 -36 -3 -7 -2 -9 2 -4 10 8 38 -51 30 -63 -3 -4 2 -10
10 -14 8 -3 15 -17 15 -31 0 -15 4 -24 10 -20 6 3 10 -1 10 -10 0 -8 4 -23 10
-33 15 -25 33 -76 32 -84 -1 -5 2 -8 6 -8 8 0 34 -64 32 -76 -1 -4 3 -10 10
-14 7 -5 5 -20 -9 -52 -11 -26 -17 -49 -14 -52 4 -3 1 -6 -5 -6 -7 0 -12 -7
-12 -16 0 -8 -4 -13 -8 -10 -5 3 -8 -8 -7 -24 1 -16 -2 -27 -6 -24 -5 3 -11
-7 -15 -21 -4 -18 -11 -24 -22 -20 -12 4 -12 3 -3 -9 9 -11 8 -22 -8 -49 -11
-19 -17 -38 -14 -41 4 -3 1 -6 -6 -6 -7 0 -9 -4 -6 -10 3 -5 1 -10 -5 -10 -6
0 -9 -4 -5 -9 3 -5 1 -12 -5 -16 -6 -4 -8 -11 -5 -16 4 -5 1 -9 -4 -9 -6 0
-11 -9 -11 -21 0 -11 -4 -18 -8 -15 -4 2 -8 -4 -9 -14 -1 -10 -15 -46 -32 -80
-17 -34 -31 -68 -31 -76 0 -8 -4 -14 -10 -14 -5 0 -10 -9 -10 -19 0 -11 -4
-22 -9 -25 -4 -3 -11 -19 -14 -35 -3 -16 -13 -36 -22 -45 -10 -9 -12 -16 -5
-16 7 0 5 -6 -4 -16 -9 -8 -16 -19 -16 -23 0 -5 -14 -39 -32 -77 -17 -38 -32
-71 -33 -74 -1 -3 -6 -16 -12 -30 -6 -14 -16 -37 -22 -52 -6 -16 -15 -28 -20
-28 -6 0 -8 -7 -5 -15 4 -8 1 -15 -5 -15 -6 0 -8 -7 -5 -15 4 -8 1 -15 -5 -15
-6 0 -11 -9 -11 -20 0 -11 -5 -20 -10 -20 -6 0 -9 -3 -8 -7 3 -15 -14 -63 -23
-63 -5 0 -8 -3 -7 -7 3 -14 -14 -63 -22 -63 -7 0 -24 -50 -20 -58 1 -2 -6 -9
-15 -16 -9 -6 -16 -16 -15 -21 2 -6 1 -13 0 -17 -1 -5 -4 -11 -5 -15 -11 -34
-31 -73 -38 -73 -4 0 -6 -4 -2 -9 3 -5 1 -12 -5 -16 -5 -3 -10 -15 -10 -26 0
-10 -4 -19 -10 -19 -5 0 -10 -6 -10 -13 0 -7 -9 -30 -20 -51 -10 -22 -17 -43
-14 -47 3 -5 2 -9 -3 -9 -9 0 -59 -120 -55 -132 1 -5 -2 -8 -7 -8 -5 0 -17
-22 -27 -50 -10 -27 -22 -50 -26 -50 -4 0 -8 -8 -8 -18 0 -10 -3 -22 -7 -26
-5 -4 -8 -11 -9 -14 -3 -21 -38 -92 -45 -92 -5 0 -6 -7 -3 -15 4 -8 2 -15 -3
-15 -5 0 -9 -10 -10 -22 -1 -11 -6 -24 -10 -27 -29 -20 -66 -301 -39 -301 5 0
3 -6 -3 -14 -8 -10 -9 -16 -1 -21 5 -3 10 -13 10 -21 0 -9 -5 -12 -11 -8 -6 3
-3 -5 6 -20 10 -14 14 -26 10 -26 -4 0 -3 -6 2 -12 18 -23 24 -50 10 -43 -6 4
-3 -1 7 -9 11 -9 20 -26 21 -38 1 -13 7 -23 14 -23 14 0 32 -26 25 -37 -3 -5
-2 -7 3 -6 10 4 53 -38 53 -51 0 -5 8 -15 17 -22 11 -10 14 -10 9 -1 -12 20 8
14 24 -8 8 -11 20 -20 27 -20 7 0 13 -4 13 -9 0 -6 13 -18 29 -27 17 -10 28
-20 26 -24 -2 -3 9 -5 23 -4 15 1 32 -2 37 -6 13 -10 76 -7 94 4 10 7 12 6 6
-4 -5 -8 -3 -11 6 -8 8 3 22 1 33 -4 13 -7 16 -7 12 1 -4 6 0 11 9 11 12 0 15
-5 11 -17 -6 -17 -5 -17 7 -1 8 10 17 15 20 11 4 -3 13 0 22 7 8 7 15 8 15 3
0 -6 22 -10 49 -9 27 0 47 5 44 9 -3 5 3 5 13 0 11 -5 26 -9 34 -8 8 0 18 -4
22 -10 5 -6 8 -6 8 3 0 6 5 12 11 12 5 0 8 -4 5 -8 -3 -5 1 -9 9 -9 8 0 12 4
10 8 -3 4 2 9 10 13 8 3 17 1 20 -4 4 -6 11 -10 16 -10 6 0 7 5 3 11 -4 8 -1
8 12 2 20 -11 95 -10 112 1 15 9 43 -4 35 -18 -3 -6 -1 -6 8 2 17 16 29 16 25
-1 -1 -6 -1 -9 1 -4 3 4 10 4 15 1 6 -4 8 -2 5 3 -4 6 0 14 9 17 10 4 13 2 8
-6 -5 -8 -2 -9 10 -5 14 6 17 3 12 -10 -6 -17 -5 -17 8 0 17 22 27 22 20 -1
-5 -16 -5 -16 6 1 6 9 15 15 21 12 5 -4 9 0 9 7 0 8 3 9 8 2 9 -13 82 -15 82
-2 0 7 5 7 13 1 6 -5 19 -9 27 -8 8 0 18 -4 22 -10 5 -6 8 -6 8 3 0 6 5 12 11
12 5 0 8 -4 5 -8 -3 -5 1 -9 9 -9 8 0 12 4 9 9 -3 4 -2 8 3 9 4 0 16 2 26 4
14 3 16 -1 12 -16 -4 -11 -2 -19 4 -19 6 0 10 5 9 11 -2 6 3 14 11 17 10 3 11
0 5 -9 -6 -11 -5 -12 7 -3 8 6 24 10 37 8 13 -2 21 0 18 5 -4 5 2 8 11 6 10
-2 22 -4 26 -4 5 -1 6 -5 3 -9 -3 -5 1 -9 9 -9 8 0 12 4 9 9 -3 4 2 8 11 8 12
0 15 -5 11 -17 -5 -16 -5 -16 6 -2 7 9 18 14 25 12 6 -2 14 0 17 6 9 14 37 2
29 -13 -3 -6 -1 -6 8 2 17 16 29 16 25 -1 -1 -6 -1 -9 1 -4 3 4 10 4 15 1 6
-4 8 -2 5 3 -4 6 0 14 9 17 10 4 13 2 8 -6 -5 -8 -2 -9 10 -5 14 6 17 3 12
-10 -6 -17 -5 -17 8 0 17 22 27 22 20 0 -5 -17 -5 -17 6 0 6 9 15 15 21 12 5
-4 9 0 9 7 0 8 3 9 8 2 9 -13 82 -15 82 -2 0 7 5 7 13 1 6 -5 19 -9 27 -8 8 0
18 -4 22 -10 5 -6 8 -6 8 3 0 6 5 12 11 12 5 0 8 -4 5 -8 -3 -5 1 -9 9 -9 8 0
12 4 9 9 -3 4 -2 8 3 9 4 0 16 2 26 4 14 3 16 -1 12 -16 -4 -11 -2 -19 4 -19
6 0 10 5 9 11 -2 6 3 14 11 17 10 3 11 0 5 -9 -6 -11 -5 -12 7 -3 8 6 24 10
37 8 13 -2 21 0 18 5 -4 5 2 8 11 6 10 -2 22 -4 26 -4 5 -1 6 -5 3 -9 -3 -5 1
-9 9 -9 8 0 12 4 9 9 -3 4 2 8 11 8 12 0 15 -5 11 -18 -5 -15 -5 -15 6 -2 8
10 26 15 45 14 19 -1 30 2 27 8 -4 6 0 7 12 1 11 -5 26 -9 34 -8 8 0 18 -4 22
-10 5 -6 8 -6 8 3 0 6 5 12 11 12 5 0 8 -4 5 -8 -3 -5 1 -9 9 -9 8 0 12 4 10
8 -3 4 2 9 10 13 8 3 17 1 20 -4 4 -6 11 -10 16 -10 6 0 7 5 3 11 -4 8 -1 8
12 2 16 -9 79 -10 109 -3 29 7 47 -1 41 -17 -6 -17 -5 -17 7 -1 8 10 17 15 20
11 4 -3 12 -1 20 5 16 14 42 -1 33 -19 -4 -8 -1 -6 7 4 10 12 17 15 22 7 5 -8
10 -8 20 0 10 8 15 8 20 0 5 -8 11 -5 21 7 7 10 14 13 14 7 0 -14 42 -13 53 1
6 6 7 4 4 -5 -2 -8 0 -24 5 -35 8 -18 8 -18 4 2 -2 13 0 26 5 29 8 5 14 -17
10 -39 -1 -5 3 -6 9 -2 6 4 8 15 5 24 -4 15 0 17 22 15 16 -1 36 -2 45 -3 21
-1 70 -45 61 -54 -3 -4 -1 -7 7 -7 7 0 71 -58 142 -130 71 -71 132 -129 136
-129 3 0 8 -5 11 -12 2 -7 -1 -9 -9 -4 -9 5 -11 4 -6 -4 4 -6 12 -9 17 -5 6 3
29 -12 52 -34 23 -23 52 -51 65 -62 20 -18 21 -24 10 -38 -12 -15 -11 -16 4
-4 18 15 42 7 32 -9 -3 -6 2 -9 12 -7 11 2 18 -2 16 -9 -1 -7 4 -13 12 -13 8
0 21 -8 28 -17 7 -10 25 -24 40 -32 15 -8 25 -18 22 -23 -3 -4 0 -8 6 -8 6 0
22 -10 35 -22 33 -33 68 -58 78 -58 4 0 5 -4 2 -10 -3 -5 0 -7 8 -5 7 3 19 -5
27 -19 7 -14 16 -25 19 -24 25 3 33 -3 22 -16 -9 -11 -6 -12 14 -8 15 2 25 0
25 -7 0 -6 7 -11 16 -11 12 0 14 -3 6 -13 -8 -10 -5 -13 16 -12 21 0 27 -5 27
-22 0 -11 4 -25 8 -29 4 -5 5 -1 2 8 -4 9 -2 19 4 23 6 3 11 2 11 -4 0 -5 16
-15 35 -21 19 -6 33 -16 30 -21 -6 -8 8 -13 28 -10 4 0 7 -3 7 -9 0 -5 7 -10
15 -10 8 0 15 -5 15 -11 0 -5 4 -8 9 -5 5 3 14 -1 21 -9 6 -7 19 -11 27 -8 12
5 14 3 8 -7 -5 -9 -4 -11 4 -6 12 8 43 -17 36 -28 -3 -3 0 -2 6 3 7 6 26 4 49
-4 21 -7 41 -11 44 -8 3 4 6 1 6 -4 0 -11 46 -11 57 0 3 4 14 2 24 -4 14 -7
19 -6 19 3 0 9 3 9 10 -2 5 -8 10 -10 10 -4 0 18 52 28 65 12 16 -20 34 -20
30 1 -2 10 5 25 15 34 22 19 35 10 17 -12 -11 -14 -10 -14 5 -2 10 7 16 16 14
20 -2 3 3 13 12 21 9 8 17 14 17 12 0 -2 13 1 28 7 16 6 33 9 38 6 5 -4 6 2 2
11 -4 12 -3 15 5 10 7 -4 12 -3 12 3 0 5 13 16 29 24 22 11 32 12 42 3 9 -8
10 -8 5 2 -4 6 0 19 8 28 16 15 22 7 16 -21 -1 -5 2 -7 6 -2 4 4 17 -1 28 -10
16 -14 15 -12 -3 9 -25 28 -23 58 4 58 8 0 15 5 15 10 0 6 7 10 15 10 8 0 15
5 15 11 0 6 6 9 14 6 8 -3 20 2 28 11 12 16 11 16 -6 2 -12 -9 -17 -10 -12 -3
10 18 96 76 97 66 1 -4 1 -12 0 -17 -1 -5 5 -4 13 4 18 14 22 25 6 15 -5 -3
-10 1 -10 9 0 9 4 16 8 16 5 0 26 15 47 32 21 18 41 32 44 31 3 -1 9 7 14 19
6 18 9 18 24 7 15 -12 16 -12 11 2 -4 11 4 26 23 43 30 27 45 34 33 14 -4 -7
-3 -8 5 -4 6 4 9 11 6 16 -3 5 12 21 32 37 52 39 63 50 56 57 -6 6 16 10 46 9
8 -1 10 2 3 9 -11 11 35 68 55 68 6 0 15 9 18 21 5 14 13 19 26 16 11 -3 16
-1 13 5 -9 14 37 60 54 53 7 -2 10 0 7 5 -7 12 18 40 36 40 7 0 10 3 6 6 -8 8
18 34 33 34 6 0 8 4 5 10 -3 5 -2 10 4 10 5 0 12 -6 15 -12 3 -7 2 1 -1 17 -6
28 -5 29 12 15 11 -9 16 -10 11 -2 -8 13 15 42 33 42 6 0 10 6 9 13 -2 6 5 11
14 11 10 -1 15 2 12 8 -7 11 15 40 26 33 5 -3 12 0 16 6 4 8 3 9 -4 5 -7 -4
-12 -3 -12 1 0 10 42 38 53 35 5 -1 6 2 2 8 -8 13 52 73 65 65 6 -3 7 0 4 9
-4 10 -1 16 7 16 7 0 10 3 6 6 -7 8 47 64 62 64 7 0 9 5 6 10 -3 6 -1 10 5 10
6 0 9 4 6 9 -7 10 18 22 37 17 6 -1 9 -1 4 1 -4 3 -4 10 -1 15 5 7 2 8 -7 3
-8 -5 2 9 21 31 19 23 38 39 43 37 4 -2 7 1 7 7 0 6 4 9 9 6 5 -3 8 1 7 9 -1
15 64 104 77 105 5 0 5 -4 2 -10 -3 -5 -1 -10 5 -10 7 0 9 7 6 16 -3 9 4 25
19 40 13 13 21 24 18 24 -3 0 0 7 8 16 7 9 21 13 33 10 18 -4 19 -3 5 7 -14
11 -14 14 2 31 10 10 22 15 28 11 7 -3 8 0 5 9 -3 8 3 22 15 32 11 10 17 22
14 27 -3 5 3 6 15 3 11 -4 23 -2 27 3 3 7 0 8 -9 5 -23 -9 -20 12 4 29 11 8
17 17 13 21 -4 4 5 5 20 2 14 -2 29 -1 32 4 3 5 -4 7 -15 5 -13 -2 -20 1 -20
11 0 8 5 12 10 9 6 -3 10 1 10 9 0 9 6 16 14 16 8 0 18 5 22 12 5 7 3 8 -6 3
-8 -5 -11 -3 -8 6 3 8 11 13 17 11 7 -1 10 2 7 7 -4 5 -1 13 6 18 7 4 18 17
25 28 6 11 16 19 22 18 6 -2 8 4 5 12 -4 8 -1 15 5 15 6 0 11 5 11 11 0 16 26
39 35 31 5 -4 5 -1 1 6 -5 8 -1 19 10 27 11 8 15 15 11 15 -8 0 1 13 35 50 9
10 13 22 10 26 -4 4 0 5 9 2 9 -4 16 -1 16 6 0 20 104 166 114 160 5 -3 6 2 3
10 -3 9 -1 16 6 16 6 0 8 5 4 12 -5 7 -2 9 9 5 12 -4 14 -2 10 10 -5 12 -3 14
7 8 9 -5 11 -4 6 4 -4 6 0 18 8 27 9 9 14 19 11 24 -3 5 3 15 13 22 10 7 37
45 61 83 24 39 48 72 53 73 4 2 6 8 2 13 -3 5 0 9 5 9 6 0 11 5 11 10 0 6 5
16 10 23 30 36 78 116 73 121 -4 3 -2 6 3 6 5 0 18 16 28 35 10 19 23 32 27
29 5 -3 6 3 2 12 -5 14 -3 16 12 11 15 -6 16 -5 5 8 -9 11 -9 15 -1 15 7 0 9
5 6 10 -3 5 -1 10 4 10 6 0 11 5 11 12 0 6 10 25 23 42 13 17 38 58 56 91 58
106 83 145 92 145 4 0 6 7 3 15 -4 8 1 17 10 21 9 3 14 10 11 14 -3 5 1 15 9
23 8 8 12 17 9 21 -4 3 -1 6 5 6 7 0 11 6 10 13 -2 6 2 11 9 10 7 -2 10 4 7
12 -4 11 1 15 17 16 18 1 20 2 6 6 -20 5 -17 30 3 25 7 -2 10 3 7 12 -4 9 1
20 11 25 14 8 14 11 2 11 -12 0 -11 3 3 11 9 6 15 14 12 18 -2 5 2 14 10 21 8
7 12 16 9 21 -3 5 0 9 5 9 6 0 11 7 11 15 0 8 5 15 10 15 6 0 9 3 8 8 -4 11
26 72 34 72 5 0 8 5 8 11 0 21 32 79 41 73 5 -3 8 5 6 18 -1 18 2 22 18 20 15
-2 17 -1 6 7 -9 6 -11 15 -6 27 5 11 7 23 6 28 -1 5 5 6 13 3 10 -4 14 0 11
14 -3 12 2 19 13 20 9 0 12 3 6 5 -8 3 -5 19 9 49 11 24 24 42 28 40 4 -3 6 3
5 12 0 10 4 18 11 18 6 0 15 4 20 8 4 5 4 8 -2 7 -25 -5 -27 2 -4 27 13 14 19
23 12 20 -8 -5 -8 -1 0 17 7 13 16 22 21 19 5 -4 6 -1 3 5 -9 14 3 43 14 36 5
-3 6 2 3 11 -4 9 1 22 12 31 11 9 12 12 4 8 -13 -7 -13 -5 -1 9 7 9 10 17 7
17 -4 0 0 10 8 22 9 12 16 30 16 40 0 10 4 18 9 18 5 0 12 13 16 30 4 18 13
30 23 31 9 0 12 3 6 5 -9 4 -8 16 3 44 9 22 20 37 24 34 5 -3 6 2 3 11 -4 8
-1 22 6 30 7 8 9 15 4 15 -4 0 1 7 12 16 10 8 14 13 7 10 -7 -4 -9 1 -6 14 3
11 10 20 16 20 6 0 8 3 4 6 -3 4 0 19 9 35 8 16 15 32 15 36 0 5 7 19 16 32
11 17 11 21 2 16 -8 -5 -5 1 5 13 11 12 15 22 11 22 -4 0 0 10 11 22 10 12 13
18 7 14 -9 -5 -11 -2 -7 8 3 9 9 14 13 12 3 -2 7 10 8 27 1 17 7 33 12 37 6 3
13 21 16 39 3 18 12 46 20 61 8 15 11 30 8 34 -4 3 -1 6 5 6 7 0 11 3 11 8 -3
20 2 32 13 26 7 -4 8 -3 4 5 -11 17 3 53 17 44 8 -5 8 -2 0 9 -7 8 -9 18 -5
22 4 4 8 12 8 17 1 5 2 13 3 19 0 5 7 8 14 6 6 -1 9 -1 5 1 -5 3 -8 11 -8 19
0 10 5 12 13 8 7 -5 6 0 -3 11 -9 11 -10 16 -2 11 8 -5 12 0 12 18 0 33 10 57
21 50 5 -3 6 2 3 10 -3 8 -2 21 3 28 4 7 9 24 9 38 2 34 2 34 22 19 15 -12 16
-12 5 1 -18 24 -10 55 15 54 12 -1 19 3 16 7 -3 5 -9 7 -14 4 -5 -3 -11 -1
-15 5 -3 5 -2 10 4 10 6 0 7 7 4 17 -5 12 -3 14 7 8 9 -5 11 -4 6 3 -8 14 14
93 24 87 4 -2 5 7 2 20 -2 14 0 25 7 25 5 0 8 7 5 15 -3 8 -2 20 2 27 4 7 9
23 10 37 2 13 7 27 11 30 5 3 8 13 8 21 -1 8 1 20 4 25 3 6 6 17 6 25 0 8 4
20 8 27 4 6 8 23 9 37 1 14 6 26 10 26 4 0 5 9 3 20 -2 11 -1 20 3 20 4 0 8 8
9 18 0 9 4 28 8 42 11 43 13 55 14 69 1 11 4 11 19 0 16 -13 16 -13 0 6 -14
17 -15 24 -4 50 7 17 11 36 9 43 -3 6 0 12 5 12 6 0 8 9 5 20 -3 11 -1 20 5
20 6 0 8 8 5 18 -2 11 3 36 11 57 13 31 14 40 4 47 -10 6 -10 8 0 8 6 0 12 12
12 26 0 17 4 23 13 18 9 -6 9 -5 0 8 -7 8 -10 18 -7 21 4 3 9 26 11 49 3 24
10 49 17 57 9 12 8 13 -2 7 -11 -7 -12 -4 -4 10 5 11 7 25 5 32 -3 6 1 12 9
12 11 0 11 2 -1 9 -9 6 -10 11 -3 15 6 4 9 13 5 21 -3 9 1 23 8 32 12 14 12
16 0 8 -10 -6 -12 -4 -6 5 8 13 10 31 16 147 1 35 6 50 13 46 8 -5 8 -3 1 8
-12 16 -13 39 -2 57 5 7 3 12 -3 12 -6 0 -8 5 -4 11 8 13 12 229 4 229 -3 0
-5 24 -4 53 0 28 -3 67 -7 85 -4 18 -3 32 2 32 6 0 5 9 -1 20 -6 11 -9 20 -6
20 3 0 1 13 -4 28 -4 17 -3 36 2 47 8 13 7 16 -1 11 -7 -5 -12 4 -13 26 -1 31
-3 46 -8 58 -4 12 -10 48 -13 80 -2 19 -8 44 -14 55 -6 11 -11 23 -11 28 -1
20 -15 73 -22 82 -5 6 -8 12 -8 15 3 18 -26 110 -35 110 -6 0 -8 3 -4 6 3 4 0
22 -8 41 -8 19 -13 39 -10 43 3 4 -2 10 -10 14 -8 3 -15 12 -15 20 0 7 -7 26
-14 42 -8 15 -13 31 -10 36 3 4 1 8 -5 8 -5 0 -15 15 -21 34 -6 19 -14 36 -18
38 -4 2 -18 26 -32 53 -13 28 -27 52 -30 55 -3 3 -11 17 -19 32 -8 15 -22 37
-33 47 -10 11 -18 23 -18 27 0 11 -124 174 -132 174 -4 0 -8 6 -8 13 0 7 -9
18 -20 25 -11 7 -20 20 -20 29 0 9 -3 14 -6 10 -3 -3 -23 14 -44 38 -21 24
-41 41 -44 38 -3 -4 -6 0 -6 8 0 7 -11 23 -25 35 -25 21 -25 22 -4 27 16 4 19
2 14 -11 -5 -15 -4 -15 12 0 10 9 36 19 57 22 22 4 42 9 45 11 2 3 14 -3 25
-12 20 -17 20 -17 6 1 -14 18 -13 19 22 14 20 -2 34 0 32 4 -3 4 2 8 11 8 10
0 14 -5 10 -12 -4 -7 0 -5 8 5 11 14 16 15 20 5 4 -10 6 -10 6 0 1 6 8 12 17
12 9 0 13 -5 9 -12 -4 -7 1 -4 10 7 17 21 21 21 44 2 12 -9 13 -9 7 1 -4 7 -2
13 6 14 36 4 44 3 50 -7 5 -6 8 -2 8 8 0 10 5 15 10 12 6 -4 8 -10 6 -14 -3
-4 0 -13 6 -21 8 -12 9 -12 4 2 -7 23 22 52 38 39 7 -6 16 -7 22 -2 5 5 27 11
49 12 22 2 45 7 52 12 14 10 36 0 27 -14 -3 -5 -10 -6 -16 -3 -7 4 -8 2 -4 -5
6 -9 11 -9 22 0 7 6 11 16 7 22 -4 6 0 8 10 4 10 -4 17 -2 17 4 0 6 7 8 17 5
9 -4 20 -1 25 6 6 10 8 10 8 -1 0 -11 3 -11 17 0 15 12 16 12 8 -1 -6 -12 -5
-13 6 -2 7 6 17 12 22 12 4 0 5 -6 2 -12 -4 -7 0 -5 8 4 17 22 32 11 14 -11
-11 -14 -10 -14 5 -2 10 7 15 18 12 23 -3 5 0 9 7 7 33 -4 39 2 39 41 0 22 -3
40 -7 40 -5 0 -39 29 -77 65 -38 36 -73 65 -78 65 -5 0 -7 4 -4 9 3 5 -9 16
-27 25 -17 8 -28 16 -23 16 5 0 -2 9 -15 20 -13 11 -30 25 -38 32 -30 27 -55
36 -77 28 -12 -5 -25 -6 -28 -3 -10 10 -136 9 -136 0 0 -6 -5 -6 -12 0 -14 9
-99 10 -115 0 -5 -3 -15 -2 -23 3 -9 5 -19 5 -27 -2 -7 -6 -13 -6 -13 -2 0 5
-18 9 -40 9 -22 0 -40 -4 -40 -9 0 -6 -5 -5 -11 1 -8 8 -20 8 -34 3 -13 -5
-26 -6 -29 -3 -10 10 -136 9 -136 0 0 -6 -5 -6 -12 0 -14 9 -99 10 -115 0 -5
-3 -15 -2 -23 3 -9 5 -19 5 -27 -2 -7 -6 -13 -6 -13 -2 0 5 -18 9 -40 9 -22 0
-40 -3 -40 -8 0 -4 -5 -5 -12 -1 -17 11 -58 11 -58 1 0 -5 -7 -4 -15 3 -11 9
-15 9 -15 1 0 -7 -5 -9 -12 -5 -16 10 -128 11 -128 1 0 -5 -5 -5 -12 -1 -6 4
-28 8 -47 9 -20 1 -72 20 -116 41 -105 51 -218 99 -227 96 -5 -1 -8 3 -8 10 0
6 -3 9 -6 5 -4 -3 -18 0 -33 7 -24 13 -315 115 -326 115 -3 0 -38 11 -78 23
-39 12 -75 23 -79 24 -5 1 -11 3 -15 4 -5 1 -12 3 -18 4 -58 11 -92 20 -102
28 -7 6 -18 8 -25 5 -7 -2 -28 2 -45 9 -18 7 -33 11 -33 9 0 -2 -15 1 -32 6
-18 5 -49 12 -68 15 -38 7 -42 8 -80 17 -23 6 -59 13 -117 22 -21 3 -102 17
-113 20 -3 1 -32 5 -65 9 -32 4 -68 10 -80 12 -11 2 -40 6 -65 9 -25 3 -57 8
-71 11 -15 3 -55 7 -90 9 -35 3 -73 6 -84 9 -11 2 -67 7 -125 11 -58 5 -123
10 -145 12 -49 5 -981 13 -986 9z m-2014 -7407 c-4 -5 1 -12 9 -15 18 -7 48
-63 40 -75 -3 -5 1 -6 8 -4 8 3 22 -8 33 -27 10 -18 29 -44 42 -58 l22 -24
-22 -26 -22 -25 23 20 c19 16 25 17 32 5 5 -8 6 -18 4 -22 -3 -5 0 -7 7 -6 6
2 13 -2 16 -8 4 -13 -35 -13 -56 0 -10 6 -12 5 -7 -2 4 -7 3 -12 -3 -12 -5 0
-13 5 -17 11 -4 8 -9 8 -17 0 -15 -15 -30 -14 -21 2 5 8 2 8 -9 -2 -16 -13
-22 -8 -18 13 1 5 -4 4 -12 -3 -8 -6 -17 -8 -19 -4 -2 6 -48 39 -97 69 -1 2 1
9 5 16 5 7 10 19 11 26 6 25 10 38 23 67 8 17 14 38 15 47 1 10 7 24 14 31 6
8 7 18 3 22 -4 5 -1 5 6 1 7 -4 10 -12 7 -17z m2602 -2324 c0 -8 -4 -15 -8
-15 -11 0 -20 16 -12 24 11 11 20 7 20 -9z"/>
<path d="M2800 2640 c0 -5 5 -10 11 -10 5 0 7 -5 3 -12 -4 -7 -3 -8 5 -4 9 6
9 11 0 22 -14 17 -19 18 -19 4z"/>
<path d="M2835 2603 c3 -3 0 -11 -5 -18 -7 -8 -5 -12 4 -12 14 0 16 22 3 32
-4 3 -5 2 -2 -2z"/>
<path d="M2787 2587 c-3 -8 0 -14 7 -14 7 0 13 6 13 14 0 7 -4 13 -8 13 -4 0
-9 -6 -12 -13z"/>
<path d="M2773 2525 c0 -8 4 -12 9 -9 5 3 6 10 3 15 -9 13 -12 11 -12 -6z"/>
<path d="M2816 2518 c3 -5 10 -6 15 -3 13 9 11 12 -6 12 -8 0 -12 -4 -9 -9z"/>
<path d="M2855 2480 c-3 -5 -1 -10 4 -10 6 0 11 5 11 10 0 6 -2 10 -4 10 -3 0
-8 -4 -11 -10z"/>
<path d="M2915 2449 c-4 -6 -5 -12 -2 -15 2 -3 7 2 10 11 7 17 1 20 -8 4z"/>
<path d="M9469 9123 c-13 -16 -12 -17 4 -4 9 7 17 15 17 17 0 8 -8 3 -21 -13z"/>
<path d="M9130 9060 c0 -5 5 -10 11 -10 5 0 7 5 4 10 -3 6 -8 10 -11 10 -2 0
-4 -4 -4 -10z"/>
<path d="M8870 9039 c0 -5 5 -7 10 -4 6 3 10 8 10 11 0 2 -4 4 -10 4 -5 0 -10
-5 -10 -11z"/>
<path d="M9039 9033 c-13 -16 -12 -17 4 -4 9 7 17 15 17 17 0 8 -8 3 -21 -13z"/>
<path d="M1019 7193 c-13 -16 -12 -17 4 -4 16 13 21 21 13 21 -2 0 -10 -8 -17
-17z"/>
<path d="M9356 6113 c-6 -14 -5 -15 5 -6 7 7 10 15 7 18 -3 3 -9 -2 -12 -12z"/>
<path d="M1227 6039 c7 -7 15 -10 18 -7 3 3 -2 9 -12 12 -14 6 -15 5 -6 -5z"/>
<path d="M1336 5667 c3 -10 9 -15 12 -12 3 3 0 11 -7 18 -10 9 -11 8 -5 -6z"/>
<path d="M1326 5602 c-3 -5 1 -9 9 -9 8 0 15 4 15 9 0 4 -4 8 -9 8 -6 0 -12
-4 -15 -8z"/>
<path d="M1453 5275 c0 -8 4 -12 9 -9 5 3 6 10 3 15 -9 13 -12 11 -12 -6z"/>
<path d="M8995 5171 c-3 -5 -2 -12 3 -15 5 -3 9 1 9 9 0 17 -3 19 -12 6z"/>
<path d="M1476 5073 c-6 -14 -5 -15 5 -6 7 7 10 15 7 18 -3 3 -9 -2 -12 -12z"/>
<path d="M1550 5019 c0 -5 5 -7 10 -4 6 3 10 8 10 11 0 2 -4 4 -10 4 -5 0 -10
-5 -10 -11z"/>
<path d="M8976 5018 c3 -5 10 -6 15 -3 13 9 11 12 -6 12 -8 0 -12 -4 -9 -9z"/>
<path d="M1576 4982 c-3 -5 1 -9 9 -9 8 0 12 4 9 9 -3 4 -7 8 -9 8 -2 0 -6 -4
-9 -8z"/>
<path d="M8939 4968 c-5 -18 -6 -38 -1 -34 7 8 12 36 6 36 -2 0 -4 -1 -5 -2z"/>
<path d="M1590 4896 c0 -2 8 -10 18 -17 15 -13 16 -12 3 4 -13 16 -21 21 -21
13z"/>
<path d="M8873 4835 c0 -8 4 -12 9 -9 5 3 6 10 3 15 -9 13 -12 11 -12 -6z"/>
<path d="M1593 4805 c0 -8 4 -12 9 -9 5 3 6 10 3 15 -9 13 -12 11 -12 -6z"/>
<path d="M1693 4625 c0 -8 4 -12 9 -9 5 3 6 10 3 15 -9 13 -12 11 -12 -6z"/>
<path d="M1747 4559 c7 -7 15 -10 18 -7 3 3 -2 9 -12 12 -14 6 -15 5 -6 -5z"/>
<path d="M8754 4528 c-19 -23 -19 -23 2 -5 11 9 24 14 29 10 4 -5 5 -2 1 5 -9
16 -10 16 -32 -10z"/>
<path d="M8733 4485 c0 -8 4 -12 9 -9 5 3 6 10 3 15 -9 13 -12 11 -12 -6z"/>
<path d="M8759 4393 c-13 -16 -12 -17 4 -4 16 13 21 21 13 21 -2 0 -10 -8 -17
-17z"/>
<path d="M8666 4282 c-3 -5 1 -9 9 -9 8 0 12 4 9 9 -3 4 -7 8 -9 8 -2 0 -6 -4
-9 -8z"/>
<path d="M1870 4219 c0 -5 5 -7 10 -4 6 3 10 8 10 11 0 2 -4 4 -10 4 -5 0 -10
-5 -10 -11z"/>
<path d="M8490 3939 c0 -5 5 -7 10 -4 6 3 10 8 10 11 0 2 -4 4 -10 4 -5 0 -10
-5 -10 -11z"/>
<path d="M8494 3896 c1 -8 5 -18 8 -22 4 -3 5 1 4 10 -1 8 -5 18 -8 22 -4 3
-5 -1 -4 -10z"/>
<path d="M8411 3747 c2 -1 15 -11 29 -22 l25 -20 -19 23 c-11 12 -24 22 -29
22 -6 0 -8 -1 -6 -3z"/>
<path d="M8274 3522 c4 -3 14 -7 22 -8 9 -1 13 0 10 4 -4 3 -14 7 -22 8 -9 1
-13 0 -10 -4z"/>
<path d="M8204 3438 l-19 -23 23 19 c12 11 22 21 22 23 0 8 -8 2 -26 -19z"/>
<path d="M8175 3399 c-3 -4 2 -6 10 -5 21 3 28 13 10 13 -9 0 -18 -4 -20 -8z"/>
<path d="M8154 3366 c1 -8 5 -18 8 -22 4 -3 5 1 4 10 -1 8 -5 18 -8 22 -4 3
-5 -1 -4 -10z"/>
<path d="M8191 3367 c-8 -10 -7 -14 2 -14 8 0 14 6 14 14 0 7 -1 13 -2 13 -2
0 -8 -6 -14 -13z"/>
<path d="M8136 3313 c-6 -14 -5 -15 5 -6 7 7 10 15 7 18 -3 3 -9 -2 -12 -12z"/>
<path d="M8193 3315 c0 -8 4 -12 9 -9 5 3 6 10 3 15 -9 13 -12 11 -12 -6z"/>
<path d="M8056 3193 c-6 -14 -5 -15 5 -6 7 7 10 15 7 18 -3 3 -9 -2 -12 -12z"/>
<path d="M7996 3098 c3 -5 10 -6 15 -3 13 9 11 12 -6 12 -8 0 -12 -4 -9 -9z"/>
<path d="M7973 3045 c0 -8 4 -12 9 -9 5 3 6 10 3 15 -9 13 -12 11 -12 -6z"/>
<path d="M7950 2980 c0 -5 5 -10 11 -10 5 0 7 5 4 10 -3 6 -8 10 -11 10 -2 0
-4 -4 -4 -10z"/>
<path d="M7915 2969 c-4 -6 -5 -12 -2 -15 2 -3 7 2 10 11 7 17 1 20 -8 4z"/>
<path d="M8033 2915 c0 -8 4 -12 9 -9 5 3 6 10 3 15 -9 13 -12 11 -12 -6z"/>
<path d="M7875 2899 c-3 -4 2 -6 10 -5 21 3 28 13 10 13 -9 0 -18 -4 -20 -8z"/>
<path d="M7850 2800 c0 -5 5 -10 11 -10 5 0 7 5 4 10 -3 6 -8 10 -11 10 -2 0
-4 -4 -4 -10z"/>
<path d="M7810 2759 c0 -5 5 -7 10 -4 6 3 10 8 10 11 0 2 -4 4 -10 4 -5 0 -10
-5 -10 -11z"/>
<path d="M7716 2593 c-6 -14 -5 -15 5 -6 7 7 10 15 7 18 -3 3 -9 -2 -12 -12z"/>
<path d="M7631 2547 c-8 -10 -7 -14 2 -14 8 0 14 6 14 14 0 7 -1 13 -2 13 -2
0 -8 -6 -14 -13z"/>
<path d="M7695 2540 c-3 -5 -1 -10 4 -10 6 0 11 5 11 10 0 6 -2 10 -4 10 -3 0
-8 -4 -11 -10z"/>
<path d="M7627 2499 c7 -7 15 -10 18 -7 3 3 -2 9 -12 12 -14 6 -15 5 -6 -5z"/>
<path d="M7596 2393 c-6 -14 -5 -15 5 -6 7 7 10 15 7 18 -3 3 -9 -2 -12 -12z"/>
<path d="M7510 2396 c0 -2 8 -10 18 -17 15 -13 16 -12 3 4 -13 16 -21 21 -21
13z"/>
<path d="M7507 2359 c7 -7 15 -10 18 -7 3 3 -2 9 -12 12 -14 6 -15 5 -6 -5z"/>
<path d="M7550 2320 c0 -5 5 -10 11 -10 5 0 7 5 4 10 -3 6 -8 10 -11 10 -2 0
-4 -4 -4 -10z"/>
<path d="M7450 2219 c0 -5 5 -7 10 -4 6 3 10 8 10 11 0 2 -4 4 -10 4 -5 0 -10
-5 -10 -11z"/>
<path d="M7387 2079 c7 -7 15 -10 18 -7 3 3 -2 9 -12 12 -14 6 -15 5 -6 -5z"/>
<path d="M7164 1922 c4 -3 14 -7 22 -8 9 -1 13 0 10 4 -4 3 -14 7 -22 8 -9 1
-13 0 -10 -4z"/>
<path d="M7195 1890 c-4 -6 -11 -7 -17 -4 -7 4 -8 2 -4 -5 6 -9 11 -9 22 0 14
11 18 19 10 19 -3 0 -8 -5 -11 -10z"/>
<path d="M7153 1835 c0 -8 4 -12 9 -9 5 3 6 10 3 15 -9 13 -12 11 -12 -6z"/>
<path d="M7106 1818 c3 -5 10 -6 15 -3 13 9 11 12 -6 12 -8 0 -12 -4 -9 -9z"/>
<path d="M7130 1801 c0 -6 4 -13 10 -16 6 -3 7 1 4 9 -7 18 -14 21 -14 7z"/>
<path d="M7020 1760 c0 -5 7 -7 15 -4 8 4 15 8 15 10 0 2 -7 4 -15 4 -8 0 -15
-4 -15 -10z"/>
<path d="M6999 1728 c-5 -18 -6 -38 -1 -34 7 8 12 36 6 36 -2 0 -4 -1 -5 -2z"/>
<path d="M7046 1698 c3 -5 10 -6 15 -3 13 9 11 12 -6 12 -8 0 -12 -4 -9 -9z"/>
<path d="M6945 1659 c-3 -4 2 -6 10 -5 21 3 28 13 10 13 -9 0 -18 -4 -20 -8z"/>
<path d="M6995 1641 c-3 -5 -2 -12 3 -15 5 -3 9 1 9 9 0 17 -3 19 -12 6z"/>
<path d="M6930 1579 c0 -5 5 -7 10 -4 6 3 10 8 10 11 0 2 -4 4 -10 4 -5 0 -10
-5 -10 -11z"/>
<path d="M6920 1540 c-12 -7 -10 -9 7 -7 12 0 19 5 17 9 -6 10 -6 10 -24 -2z"/>
<path d="M6834 1495 c0 -13 3 -22 7 -19 8 4 6 30 -2 38 -3 3 -5 -5 -5 -19z"/>
<path d="M6873 1493 c0 -10 4 -10 16 -1 9 7 18 13 20 15 2 1 -5 1 -16 0 -11 0
-20 -7 -20 -14z"/>
<path d="M6871 1447 c-8 -10 -7 -14 2 -14 8 0 14 6 14 14 0 7 -1 13 -2 13 -2
0 -8 -6 -14 -13z"/>
<path d="M6775 1400 c3 -5 8 -10 11 -10 2 0 4 5 4 10 0 6 -5 10 -11 10 -5 0
-7 -4 -4 -10z"/>
<path d="M6916 1393 c-6 -14 -5 -15 5 -6 7 7 10 15 7 18 -3 3 -9 -2 -12 -12z"/>
<path d="M6696 1358 c3 -4 11 -5 19 -1 21 7 19 12 -4 10 -11 0 -18 -5 -15 -9z"/>
<path d="M6696 1327 c3 -10 9 -15 12 -12 3 3 0 11 -7 18 -10 9 -11 8 -5 -6z"/>
<path d="M1275 1311 c-3 -5 -2 -12 3 -15 5 -3 9 1 9 9 0 17 -3 19 -12 6z"/>
<path d="M1905 1310 c-3 -6 1 -7 9 -4 18 7 21 14 7 14 -6 0 -13 -4 -16 -10z"/>
<path d="M3845 1288 c3 -11 7 -23 11 -27 4 -3 4 2 1 12 -5 13 -3 17 5 14 7 -2
12 -9 11 -15 -3 -15 25 -23 33 -9 4 7 3 9 -1 4 -5 -4 -16 3 -24 15 -21 30 -41
34 -36 6z"/>
<path d="M1636 1287 c3 -10 9 -15 12 -12 3 3 0 11 -7 18 -10 9 -11 8 -5 -6z"/>
<path d="M2190 1296 c0 -2 8 -10 18 -17 15 -13 16 -12 3 4 -13 16 -21 21 -21
13z"/>
<path d="M2554 1289 c-3 -6 -2 -15 3 -20 5 -5 9 -1 9 11 0 23 -2 24 -12 9z"/>
<path d="M2830 1296 c0 -2 8 -10 18 -17 15 -13 16 -12 3 4 -13 16 -21 21 -21
13z"/>
<path d="M3195 1289 c-4 -6 -5 -12 -2 -15 2 -3 7 2 10 11 7 17 1 20 -8 4z"/>
<path d="M3236 1287 c3 -10 9 -15 12 -12 3 3 0 11 -7 18 -10 9 -11 8 -5 -6z"/>
<path d="M3760 1291 c0 -6 4 -13 10 -16 6 -3 7 1 4 9 -7 18 -14 21 -14 7z"/>
<path d="M1479 1273 c-13 -16 -12 -17 4 -4 9 7 17 15 17 17 0 8 -8 3 -21 -13z"/>
<path d="M1676 1278 c3 -5 10 -6 15 -3 13 9 11 12 -6 12 -8 0 -12 -4 -9 -9z"/>
<path d="M1890 1279 c0 -5 5 -7 10 -4 6 3 10 8 10 11 0 2 -4 4 -10 4 -5 0 -10
-5 -10 -11z"/>
<path d="M3276 1278 c3 -5 10 -6 15 -3 13 9 11 12 -6 12 -8 0 -12 -4 -9 -9z"/>
<path d="M3490 1279 c0 -5 5 -7 10 -4 6 3 10 8 10 11 0 2 -4 4 -10 4 -5 0 -10
-5 -10 -11z"/>
<path d="M3559 1273 c-13 -16 -12 -17 4 -4 9 7 17 15 17 17 0 8 -8 3 -21 -13z"/>
<path d="M3646 1278 c3 -5 10 -6 15 -3 13 9 11 12 -6 12 -8 0 -12 -4 -9 -9z"/>
<path d="M3920 1281 c0 -6 4 -13 10 -16 6 -3 7 1 4 9 -7 18 -14 21 -14 7z"/>
<path d="M3856 1238 c3 -5 10 -6 15 -3 13 9 11 12 -6 12 -8 0 -12 -4 -9 -9z"/>
<path d="M3918 1243 c7 -3 16 -2 19 1 4 3 -2 6 -13 5 -11 0 -14 -3 -6 -6z"/>
<path d="M6613 1235 c0 -8 4 -12 9 -9 4 3 8 9 8 15 0 5 -4 9 -8 9 -5 0 -9 -7
-9 -15z"/>
<path d="M3904 1222 c4 -3 14 -7 22 -8 9 -1 13 0 10 4 -4 3 -14 7 -22 8 -9 1
-13 0 -10 -4z"/>
<path d="M3753 1205 c0 -8 4 -12 9 -9 5 3 6 10 3 15 -9 13 -12 11 -12 -6z"/>
<path d="M3987 1179 c7 -7 15 -10 18 -7 3 3 -2 9 -12 12 -14 6 -15 5 -6 -5z"/>
<path d="M3955 1169 c-4 -6 -5 -12 -2 -15 2 -3 7 2 10 11 7 17 1 20 -8 4z"/>
<path d="M4001 1136 c-9 -11 -9 -16 1 -22 7 -4 10 -4 6 1 -4 4 -3 14 3 22 6 7
9 13 6 13 -2 0 -10 -6 -16 -14z"/>
<path d="M6573 1143 c4 -3 1 -13 -6 -22 -11 -14 -10 -14 5 -2 16 12 16 31 1
31 -4 0 -3 -3 0 -7z"/>
<path d="M4060 1131 c0 -6 4 -13 10 -16 6 -3 7 1 4 9 -7 18 -14 21 -14 7z"/>
<path d="M6455 1129 c-4 -6 -5 -12 -2 -15 2 -3 7 2 10 11 7 17 1 20 -8 4z"/>
<path d="M6450 1096 c0 -2 8 -10 18 -17 15 -13 16 -12 3 4 -13 16 -21 21 -21
13z"/>
<path d="M3996 1073 c-6 -14 -5 -15 5 -6 7 7 10 15 7 18 -3 3 -9 -2 -12 -12z"/>
<path d="M4109 1077 c6 -8 9 -16 6 -19 -3 -2 2 -5 10 -5 13 0 13 3 -2 19 -19
21 -31 25 -14 5z"/>
<path d="M6435 1071 c-3 -5 -2 -12 3 -15 5 -3 9 1 9 9 0 17 -3 19 -12 6z"/>
<path d="M4070 1066 c0 -2 7 -7 16 -10 8 -3 12 -2 9 4 -6 10 -25 14 -25 6z"/>
<path d="M6386 1062 c-2 -4 4 -8 14 -8 10 0 16 4 14 8 -3 4 -9 8 -14 8 -5 0
-11 -4 -14 -8z"/>
<path d="M6495 1061 c-3 -5 -2 -12 3 -15 5 -3 9 1 9 9 0 17 -3 19 -12 6z"/>
<path d="M6353 1007 c-1 -11 -1 -18 0 -16 2 2 8 11 15 20 9 12 9 16 -1 16 -7
0 -14 -9 -14 -20z"/>
<path d="M6393 1013 c0 -9 4 -10 14 -2 7 6 13 12 13 14 0 1 -6 2 -13 2 -8 0
-14 -6 -14 -14z"/>
<path d="M6450 1020 c0 -5 5 -10 11 -10 5 0 7 5 4 10 -3 6 -8 10 -11 10 -2 0
-4 -4 -4 -10z"/>
<path d="M4189 997 c6 -8 9 -16 6 -19 -3 -2 2 -5 10 -5 13 0 13 3 -2 19 -19
21 -31 25 -14 5z"/>
<path d="M4150 986 c0 -2 7 -7 16 -10 8 -3 12 -2 9 4 -6 10 -25 14 -25 6z"/>
<path d="M6395 980 c-3 -5 -1 -10 4 -10 6 0 11 5 11 10 0 6 -2 10 -4 10 -3 0
-8 -4 -11 -10z"/>
<path d="M6269 963 c-13 -16 -12 -17 4 -4 9 7 17 15 17 17 0 8 -8 3 -21 -13z"/>
<path d="M6355 969 c-4 -6 -5 -12 -2 -15 2 -3 7 2 10 11 7 17 1 20 -8 4z"/>
<path d="M4146 922 c-3 -5 1 -9 9 -9 8 0 12 4 9 9 -3 4 -7 8 -9 8 -2 0 -6 -4
-9 -8z"/>
<path d="M6230 895 c5 -7 6 -16 2 -21 -4 -5 -3 -5 2 -1 15 12 15 34 0 34 -9 0
-11 -4 -4 -12z"/>
<path d="M6267 899 c7 -7 15 -10 18 -7 3 3 -2 9 -12 12 -14 6 -15 5 -6 -5z"/>
<path d="M4150 860 c0 -5 5 -10 11 -10 5 0 7 5 4 10 -3 6 -8 10 -11 10 -2 0
-4 -4 -4 -10z"/>
<path d="M4347 855 c3 -8 9 -12 14 -9 12 7 11 11 -5 17 -10 4 -13 1 -9 -8z"/>
<path d="M6156 862 c-3 -5 1 -9 9 -9 8 0 12 4 9 9 -3 4 -7 8 -9 8 -2 0 -6 -4
-9 -8z"/>
<path d="M4296 841 c8 -8 43 -8 38 0 -2 4 -13 7 -24 6 -10 -1 -17 -3 -14 -6z"/>
<path d="M6130 841 c0 -6 4 -13 10 -16 6 -3 7 1 4 9 -7 18 -14 21 -14 7z"/>
<path d="M4270 819 c0 -5 5 -7 10 -4 6 3 10 8 10 11 0 2 -4 4 -10 4 -5 0 -10
-5 -10 -11z"/>
<path d="M6186 802 c-3 -5 1 -9 9 -9 8 0 12 4 9 9 -3 4 -7 8 -9 8 -2 0 -6 -4
-9 -8z"/>
<path d="M6146 778 c3 -5 10 -6 15 -3 13 9 11 12 -6 12 -8 0 -12 -4 -9 -9z"/>
<path d="M4395 761 c-3 -5 -2 -12 3 -15 5 -3 9 1 9 9 0 17 -3 19 -12 6z"/>
<path d="M6155 751 c-3 -5 -2 -12 3 -15 5 -3 9 1 9 9 0 17 -3 19 -12 6z"/>
<path d="M4494 720 c0 -10 4 -16 9 -13 4 2 16 -1 25 -9 15 -11 15 -11 5 3 -7
9 -9 20 -5 25 4 5 3 6 -2 2 -5 -4 -14 -4 -20 2 -8 6 -12 3 -12 -10z"/>
<path d="M6040 720 c-9 -6 -10 -10 -3 -10 6 0 15 5 18 10 8 12 4 12 -15 0z"/>
<path d="M6095 711 c-3 -5 -2 -12 3 -15 5 -3 9 1 9 9 0 17 -3 19 -12 6z"/>
<path d="M5975 701 c-6 -11 13 -26 22 -17 4 3 1 6 -6 6 -7 0 -9 5 -6 10 3 6 4
10 1 10 -3 0 -7 -4 -11 -9z"/>
<path d="M6036 687 c3 -10 9 -15 12 -12 3 3 0 11 -7 18 -10 9 -11 8 -5 -6z"/>
<path d="M4496 682 c-3 -5 1 -9 9 -9 8 0 12 4 9 9 -3 4 -7 8 -9 8 -2 0 -6 -4
-9 -8z"/>
<path d="M5953 667 c0 -8 6 -14 14 -14 9 0 10 4 2 14 -6 7 -12 13 -14 13 -1 0
-2 -6 -2 -13z"/>
<path d="M4575 650 c-4 -6 -12 -7 -18 -4 -7 4 -8 3 -4 -1 13 -15 34 -14 34 1
0 17 -4 18 -12 4z"/>
<path d="M4642 603 c25 -27 39 -32 15 -5 -10 10 -15 21 -12 24 3 2 -2 5 -10 5
-12 0 -10 -6 7 -24z"/>
<path d="M6013 615 c0 -8 4 -12 9 -9 5 3 6 10 3 15 -9 13 -12 11 -12 -6z"/>
<path d="M4575 609 c-4 -6 -5 -12 -2 -15 2 -3 7 2 10 11 7 17 1 20 -8 4z"/>
<path d="M5846 607 c-17 -12 -17 -14 1 -27 14 -11 16 -11 6 0 -10 11 -9 16 5
26 22 17 11 18 -12 1z"/>
<path d="M4467 599 c7 -7 15 -10 18 -7 3 3 -2 9 -12 12 -14 6 -15 5 -6 -5z"/>
<path d="M4596 593 c-6 -14 -5 -15 5 -6 7 7 10 15 7 18 -3 3 -9 -2 -12 -12z"/>
<path d="M5873 585 c0 -8 4 -12 9 -9 5 3 6 10 3 15 -9 13 -12 11 -12 -6z"/>
<path d="M5950 576 c0 -2 8 -10 18 -17 15 -13 16 -12 3 4 -13 16 -21 21 -21
13z"/>
<path d="M4595 559 c-3 -4 2 -6 10 -5 21 3 28 13 10 13 -9 0 -18 -4 -20 -8z"/>
<path d="M5815 561 c-3 -5 -2 -12 3 -15 5 -3 9 1 9 9 0 17 -3 19 -12 6z"/>
<path d="M4733 513 c0 -10 4 -10 16 -1 9 7 18 13 20 15 2 1 -5 1 -16 0 -11 0
-20 -7 -20 -14z"/>
<path d="M5806 518 c3 -5 10 -6 15 -3 13 9 11 12 -6 12 -8 0 -12 -4 -9 -9z"/>
<path d="M5759 518 c-4 -12 -5 -57 0 -53 6 6 10 55 4 55 -1 0 -3 -1 -4 -2z"/>
<path d="M4760 495 c-7 -9 -11 -17 -9 -20 3 -2 10 5 17 15 14 24 10 26 -8 5z"/>
<path d="M4716 478 c3 -5 10 -6 15 -3 13 9 11 12 -6 12 -8 0 -12 -4 -9 -9z"/>
<path d="M5635 450 c-4 -6 -10 -8 -15 -5 -5 3 -11 1 -14 -4 -8 -13 22 -7 36 7
7 7 9 12 6 12 -4 0 -10 -5 -13 -10z"/>
<path d="M5690 456 c0 -2 8 -10 18 -17 15 -13 16 -12 3 4 -13 16 -21 21 -21
13z"/>
<path d="M4814 442 c4 -3 14 -7 22 -8 9 -1 13 0 10 4 -4 3 -14 7 -22 8 -9 1
-13 0 -10 -4z"/>
<path d="M5675 431 c-3 -5 -2 -12 3 -15 5 -3 9 1 9 9 0 17 -3 19 -12 6z"/>
<path d="M5726 422 c-3 -5 1 -9 9 -9 8 0 12 4 9 9 -3 4 -7 8 -9 8 -2 0 -6 -4
-9 -8z"/>
<path d="M4810 416 c0 -2 8 -10 18 -17 15 -13 16 -12 3 4 -13 16 -21 21 -21
13z"/>
<path d="M4855 411 c-3 -5 -2 -12 3 -15 5 -3 9 1 9 9 0 17 -3 19 -12 6z"/>
<path d="M5630 417 c0 -2 6 -10 14 -16 11 -9 16 -9 22 1 4 7 4 10 -1 6 -4 -4
-14 -3 -22 3 -7 6 -13 9 -13 6z"/>
<path d="M4950 390 c-9 -6 -10 -10 -3 -10 6 0 15 5 18 10 8 12 4 12 -15 0z"/>
<path d="M5019 368 c7 -9 9 -23 5 -30 -6 -10 -4 -11 7 0 11 10 10 15 -6 30
-17 15 -18 15 -6 0z"/>
<path d="M5536 367 c3 -10 9 -15 12 -12 3 3 0 11 -7 18 -10 9 -11 8 -5 -6z"/>
<path d="M5510 360 c0 -5 5 -10 11 -10 5 0 7 5 4 10 -3 6 -8 10 -11 10 -2 0
-4 -4 -4 -10z"/>
<path d="M4991 347 c-8 -10 -7 -14 2 -14 8 0 14 6 14 14 0 7 -1 13 -2 13 -2 0
-8 -6 -14 -13z"/>
<path d="M4856 333 c-6 -14 -5 -15 5 -6 7 7 10 15 7 18 -3 3 -9 -2 -12 -12z"/>
<path d="M5559 348 c-6 -21 -5 -38 1 -38 5 0 8 9 7 20 -1 17 -5 26 -8 18z"/>
<path d="M5593 335 c0 -8 4 -12 9 -9 5 3 6 10 3 15 -9 13 -12 11 -12 -6z"/>
<path d="M5075 329 c-4 -6 -5 -12 -2 -15 2 -3 7 2 10 11 7 17 1 20 -8 4z"/>
<path d="M5120 320 c-12 -7 -10 -9 8 -7 12 0 22 5 22 9 0 11 -12 10 -30 -2z"/>
<path d="M5360 326 c0 -2 8 -10 18 -17 15 -13 16 -12 3 4 -13 16 -21 21 -21
13z"/>
<path d="M5625 320 c-3 -6 1 -7 9 -4 18 7 21 14 7 14 -6 0 -13 -4 -16 -10z"/>
<path d="M5470 316 c0 -2 8 -10 18 -17 15 -13 16 -12 3 4 -13 16 -21 21 -21
13z"/>
<path d="M4930 306 c0 -2 7 -7 16 -10 8 -3 12 -2 9 4 -6 10 -25 14 -25 6z"/>
<path d="M5155 301 c-3 -5 -2 -12 3 -15 5 -3 9 1 9 9 0 17 -3 19 -12 6z"/>
<path d="M5190 303 c7 -3 5 -13 -7 -26 -12 -15 -13 -18 -2 -9 9 6 18 9 22 6 3
-3 4 2 3 12 -2 10 -8 19 -15 20 -7 2 -7 1 -1 -3z"/>
<path d="M5300 292 c0 -6 5 -14 10 -17 6 -4 8 -10 6 -14 -3 -4 1 -8 9 -8 12 0
12 4 -2 21 -10 12 -19 23 -20 25 -2 2 -3 -1 -3 -7z"/>
<path d="M5343 284 c9 -11 14 -23 11 -26 -3 -3 -1 -8 3 -11 5 -3 9 5 9 18 0
14 -2 22 -5 20 -2 -3 -11 1 -20 7 -12 10 -12 7 2 -8z"/>
<path d="M5409 283 c-13 -16 -12 -17 4 -4 9 7 17 15 17 17 0 8 -8 3 -21 -13z"/>
<path d="M5636 273 c-6 -14 -5 -15 5 -6 7 7 10 15 7 18 -3 3 -9 -2 -12 -12z"/>
<path d="M5433 265 c0 -8 4 -12 9 -9 5 3 6 10 3 15 -9 13 -12 11 -12 -6z"/>
<path d="M5264 262 c4 -3 14 -7 22 -8 9 -1 13 0 10 4 -4 3 -14 7 -22 8 -9 1
-13 0 -10 -4z"/>
<path d="M5215 249 c-4 -6 -5 -12 -2 -15 2 -3 7 2 10 11 7 17 1 20 -8 4z"/>
<path d="M5070 220 c0 -5 5 -10 11 -10 5 0 7 5 4 10 -3 6 -8 10 -11 10 -2 0
-4 -4 -4 -10z"/>
<path d="M5475 200 c3 -5 8 -10 11 -10 2 0 4 5 4 10 0 6 -5 10 -11 10 -5 0 -7
-4 -4 -10z"/>
<path d="M5355 189 c-4 -6 -5 -12 -2 -15 2 -3 7 2 10 11 7 17 1 20 -8 4z"/>
</g>
</svg>
